<svg version="1.1" id="Layer_1" xmlns="http://www.w3.org/2000/svg" xmlns:xlink="http://www.w3.org/1999/xlink" x="0px" y="0px"
	 width="100%" viewBox="0 0 544 339" enable-background="new 0 0 544 339" xml:space="preserve">
<path fill="#FFFFFF" opacity="1.000000" stroke="none" 
	d="
M359.000000,340.000000 
	C239.367050,340.000000 120.234100,340.000000 1.050576,340.000000 
	C1.050576,227.065704 1.050576,114.131393 1.050576,1.098535 
	C182.216278,1.098535 363.432648,1.098535 544.824463,1.098535 
	C544.824463,113.999779 544.824463,226.999863 544.824463,340.000000 
	C483.131348,340.000000 421.315674,340.000000 359.000000,340.000000 
M526.000000,174.500000 
	C526.000000,222.588959 526.000000,270.677917 526.000000,318.743958 
	C385.054779,318.743958 244.667908,318.743958 103.891159,318.743958 
	C103.891159,301.743805 103.891159,284.995392 103.891159,268.248840 
	C101.424492,268.248840 99.353767,268.248840 97.252594,268.248840 
	C97.252594,287.237061 97.252594,305.975311 97.252594,324.771362 
	C242.558182,324.771362 387.611053,324.771362 532.789368,324.771362 
	C532.789368,231.144196 532.789368,137.745773 532.789368,44.117023 
	C520.418884,44.522598 510.035706,38.307377 498.814972,35.084671 
	C490.203979,32.611523 481.327393,29.441057 472.576508,29.464174 
	C460.015350,29.497355 448.306580,34.911179 436.655151,39.630875 
	C427.350433,43.399967 417.370667,45.849979 407.492889,43.552345 
	C397.571442,41.244537 388.047791,37.193058 378.391327,33.787960 
	C367.586853,29.978022 356.634460,27.578808 345.306091,30.999992 
	C333.657257,34.517967 322.075378,38.270981 310.540833,42.149052 
	C303.345795,44.568119 296.091949,45.031887 288.900391,42.944611 
	C280.144897,40.403404 271.500092,37.445610 262.907257,34.387512 
	C250.898911,30.113867 238.842178,27.375929 226.231903,31.364061 
	C226.231903,33.668003 226.231903,35.774677 226.231903,37.910187 
	C230.441803,37.249237 234.406174,36.216507 238.401505,36.078327 
	C249.356064,35.699448 259.095215,40.403671 269.076721,44.008595 
	C278.642883,47.463505 288.229492,52.079010 298.543579,50.763439 
	C308.183411,49.533875 317.719238,46.798923 327.030304,43.867290 
	C337.308899,40.631023 347.214935,34.841663 358.213379,36.272331 
	C367.327759,37.457916 376.113708,41.098057 385.077179,43.532822 
	C394.509216,46.094864 403.856567,49.763702 413.461395,50.708893 
	C428.008331,52.140423 441.030945,45.028587 454.314941,40.208393 
	C465.578705,36.121250 476.680695,34.376003 488.369171,38.677574 
	C500.642731,43.194469 513.127808,47.136684 526.000000,51.492298 
	C526.000000,91.550224 526.000000,132.525116 526.000000,174.500000 
M58.499081,97.000000 
	C51.401802,97.000000 44.304527,97.000000 37.280907,97.000000 
	C37.280907,116.972519 37.280907,136.372040 37.280907,155.999603 
	C49.864731,155.999603 62.168839,156.006546 74.472893,155.983704 
	C75.277336,155.982224 76.113754,155.855148 76.880516,155.612991 
	C83.964386,153.375961 88.815109,148.643875 89.857506,141.353134 
	C91.142365,132.366623 89.255806,124.211220 80.151421,119.541428 
	C80.480324,119.139191 80.746590,118.696442 81.118500,118.376488 
	C85.770218,114.374565 85.843529,109.369881 83.934914,104.172264 
	C82.529037,100.343719 77.356491,96.236862 71.980148,96.899536 
	C67.877686,97.405190 63.662964,97.000000 58.499081,97.000000 
M413.056885,155.253616 
	C413.625885,155.501175 414.194122,155.962875 414.763977,155.964813 
	C427.246979,156.007263 439.748047,156.399048 452.206329,155.842957 
	C459.180206,155.531662 465.162292,152.070175 470.078949,146.760590 
	C477.085388,139.194107 478.099396,129.973053 476.810150,120.669434 
	C475.385651,110.390068 469.069061,99.403946 456.263824,98.276360 
	C442.053802,97.025063 427.648621,97.990059 413.003937,97.990059 
	C413.003937,116.408989 413.003937,135.347565 413.056885,155.253616 
M226.208450,239.952042 
	C226.556503,238.123840 226.904572,236.295624 227.301453,234.210953 
	C217.369598,234.582916 216.470291,225.085190 210.305801,220.947144 
	C211.630951,220.055069 212.336700,219.339569 213.188110,219.044678 
	C220.259293,216.595657 225.436249,208.728531 225.022308,199.240250 
	C224.695526,191.749313 219.216690,183.410049 211.552368,182.168213 
	C200.312225,180.346985 188.824646,180.052948 177.220352,179.089752 
	C177.220352,200.179810 177.220352,219.920944 177.220352,239.780899 
	C180.181122,239.780899 182.917709,239.780899 186.049622,239.780899 
	C186.049622,233.490051 186.049622,227.404449 186.049622,221.000031 
	C189.573105,221.000031 192.724411,220.777527 195.821365,221.091461 
	C197.433273,221.254868 199.333984,221.994400 200.424835,223.127670 
	C202.419434,225.199799 204.001785,227.697083 205.592575,230.124207 
	C210.259109,237.244095 216.288803,241.544220 226.208450,239.952042 
M148.000000,21.542303 
	C148.000000,18.767756 148.000000,15.993209 148.000000,13.268724 
	C144.386703,13.268724 141.314621,13.268724 137.875137,13.268724 
	C137.875137,22.946821 137.875137,32.362167 137.875137,42.684689 
	C123.732269,40.084518 110.112892,37.580589 95.991234,34.984322 
	C95.991234,28.201616 95.991234,20.788420 95.991234,13.195978 
	C92.531197,13.195978 89.462135,13.195978 86.355705,13.195978 
	C86.355705,33.241806 86.355705,53.089684 86.355705,72.822037 
	C89.667839,72.822037 92.622795,72.822037 95.945686,72.822037 
	C95.945686,62.898766 95.945686,53.143078 95.945686,42.979027 
	C100.632790,43.560474 104.941780,43.962231 109.204178,44.651878 
	C117.643593,46.017353 126.030556,47.737659 134.496246,48.893490 
	C137.424530,49.293289 138.069443,50.452019 138.031967,53.025833 
	C137.935883,59.621727 137.999878,66.219955 137.999878,72.710533 
	C141.653961,72.710533 144.725082,72.710533 148.000000,72.710533 
	C148.000000,55.792667 148.000000,39.163357 148.000000,21.542303 
M377.961334,141.592270 
	C379.273468,143.244461 380.920776,144.729721 381.840851,146.577148 
	C386.286163,155.503189 393.677673,157.335968 402.835205,155.594208 
	C402.835205,154.198105 402.835205,152.770355 402.835205,151.413132 
	C393.773560,150.053207 391.246185,141.924423 385.978088,136.330872 
	C396.467133,133.505630 399.927582,125.693398 400.878540,117.200218 
	C401.730774,109.588310 394.944458,99.113037 387.322845,98.302826 
	C376.125031,97.112442 364.706757,97.996010 353.346741,97.996010 
	C353.346741,116.927818 353.346741,136.433701 353.346741,155.832489 
	C356.316650,155.832489 358.938416,155.832489 362.113892,155.832489 
	C362.113892,149.478165 362.113892,143.269867 362.113892,137.109726 
	C373.285583,136.791672 373.285583,136.791672 377.961334,141.592270 
M37.000000,191.517105 
	C37.000000,207.612869 37.000000,223.708618 37.000000,239.713989 
	C40.310432,239.713989 43.049068,239.713989 46.173195,239.713989 
	C46.173195,233.356873 46.173195,227.280212 46.173195,221.512802 
	C54.624825,220.992355 62.724682,220.974091 70.673248,219.868332 
	C78.549263,218.772675 84.452385,210.527100 85.085838,202.562317 
	C86.081856,190.039154 78.002113,182.532455 71.117661,181.418015 
	C60.012302,179.620316 48.546101,180.051788 37.000000,179.531204 
	C37.000000,183.898956 37.000000,187.211029 37.000000,191.517105 
M173.507874,73.000000 
	C182.664810,73.000000 191.821732,73.002541 200.978668,72.999107 
	C207.092529,72.996811 207.597366,72.353378 206.285019,65.778679 
	C193.965912,65.778679 181.563766,65.778679 169.304672,65.778679 
	C169.304672,57.309711 169.304672,49.241665 169.304672,40.802608 
	C176.688538,40.802608 183.773438,40.802608 190.705933,40.802608 
	C190.705933,38.336685 190.705933,36.267277 190.705933,33.820496 
	C183.342880,33.820496 176.268433,33.820496 169.288681,33.820496 
	C169.288681,29.346304 169.288681,25.275518 169.288681,20.873146 
	C182.001816,20.873146 194.430222,20.873146 207.366684,20.873146 
	C206.776215,17.989639 206.274338,15.538729 205.818146,13.310976 
	C190.291275,13.310976 175.228333,13.310976 160.292969,13.310976 
	C160.292969,33.347603 160.292969,53.072060 160.292969,73.000000 
	C164.559830,73.000000 168.535400,73.000000 173.507874,73.000000 
M128.000290,198.341522 
	C128.000290,194.926285 128.000290,191.511047 128.000290,187.765533 
	C141.099213,187.765533 153.517319,187.765533 166.404510,187.765533 
	C165.769836,184.887848 165.230698,182.443359 164.772537,180.366028 
	C149.162659,180.366028 134.107071,180.366028 119.349770,180.366028 
	C119.349770,200.459671 119.349770,220.186615 119.349770,239.860458 
	C134.661774,239.860458 149.623642,239.860458 164.797791,239.860458 
	C165.256439,237.650452 165.695023,235.537155 166.228394,232.967163 
	C153.238495,232.967163 140.816681,232.967163 128.200867,232.967163 
	C128.200867,224.542404 128.200867,216.476303 128.200867,207.846344 
	C135.567062,207.846344 142.768265,207.846344 149.827133,207.846344 
	C149.827133,205.326828 149.827133,203.372452 149.827133,201.000000 
	C143.712006,201.000000 137.757584,201.097275 131.811142,200.922943 
	C130.527420,200.885315 129.272369,199.869431 128.000290,198.341522 
M134.968781,108.676651 
	C133.328995,105.534607 131.786514,102.336090 130.008774,99.274139 
	C129.107849,97.722404 127.782356,96.417183 126.648819,95.000511 
	C125.099419,96.335701 122.928650,97.365379 122.098366,99.054123 
	C115.094101,113.300354 108.348549,127.673607 101.493988,141.993729 
	C99.325050,146.524918 97.061623,151.010880 94.851601,155.496902 
	C100.882019,157.207245 104.524124,155.601562 106.087196,149.814392 
	C106.663177,147.681854 107.722755,145.508102 109.128014,143.826309 
	C110.230721,142.506592 112.181137,141.176376 113.796059,141.124268 
	C122.095398,140.856415 130.408020,141.000153 138.682678,141.000153 
	C140.953384,146.042664 143.133087,150.883102 145.284775,155.661285 
	C148.805786,155.661285 152.338242,155.661285 156.107788,155.661285 
	C148.970657,140.007721 142.005875,124.732132 134.968781,108.676651 
M329.965240,127.629219 
	C325.632019,117.991898 321.380157,108.316284 316.882050,98.756531 
	C316.167328,97.237595 314.546356,95.709930 312.990021,95.118019 
	C310.242035,94.072891 309.702545,96.609566 308.810181,98.506134 
	C302.526642,111.860893 296.218170,125.204254 289.837891,138.513031 
	C287.149109,144.121628 284.267181,149.637619 281.380585,155.379562 
	C286.848969,156.863159 290.574890,156.414703 292.095886,150.773712 
	C292.628906,148.796936 294.262390,147.134918 294.925568,145.171173 
	C296.055359,141.825409 298.305084,140.861191 301.583435,140.963226 
	C306.238831,141.108124 310.902100,141.000000 315.562012,141.000000 
	C326.394012,140.999985 326.396301,140.999176 329.978149,151.266434 
	C330.083221,151.567612 329.928467,151.966064 330.049805,152.253860 
	C331.049561,154.625183 332.209625,156.585861 335.438812,156.063110 
	C337.516815,155.726715 339.693573,155.999969 342.712128,155.999969 
	C338.292664,146.379211 334.165283,137.394226 329.965240,127.629219 
M49.709484,21.003937 
	C58.439579,21.003937 67.169678,21.003937 77.324600,21.003937 
	C73.862328,18.263977 77.173035,13.019818 71.635445,13.011856 
	C51.856953,12.983418 32.078396,13.000729 12.275410,13.000729 
	C11.780427,15.787544 11.348963,18.216738 10.835308,21.108679 
	C20.540852,21.108679 29.622267,21.108679 39.064171,21.108679 
	C39.064171,38.541367 39.064171,55.602512 39.064171,72.787086 
	C42.174129,72.787086 44.908123,72.787086 48.000000,72.787086 
	C48.000000,57.138039 47.976509,41.699108 48.032692,26.260468 
	C48.039009,24.524958 48.495968,22.791086 49.709484,21.003937 
M175.000000,136.489014 
	C175.000000,123.391609 175.000000,110.294205 175.000000,97.284653 
	C171.689835,97.284653 168.952560,97.284653 166.279266,97.284653 
	C166.279266,116.969765 166.279266,136.368973 166.279266,156.000000 
	C179.527237,156.000000 192.508301,155.684921 205.461624,156.147263 
	C211.036102,156.346237 213.738632,154.872101 213.297653,148.784210 
	C200.706146,148.784210 187.951935,148.784210 175.000000,148.784210 
	C175.000000,144.772217 175.000000,141.127563 175.000000,136.489014 
M233.000000,138.476929 
	C233.000000,124.717285 233.000000,110.957642 233.000000,97.283325 
	C229.693512,97.283325 226.955612,97.283325 224.271912,97.283325 
	C224.271912,116.962952 224.271912,136.358078 224.271912,156.000000 
	C238.006180,156.000000 251.469803,156.001968 264.933411,155.999115 
	C271.075470,155.997818 271.533752,155.423264 270.327942,148.799744 
	C257.997406,148.799744 245.590347,148.799744 233.000000,148.799744 
	C233.000000,145.424591 233.000000,142.445480 233.000000,138.476929 
M97.000000,214.500000 
	C97.000000,222.934677 97.000000,231.369339 97.000000,239.712646 
	C100.646751,239.712646 103.719299,239.712646 106.717407,239.712646 
	C106.717407,219.684097 106.717407,199.944214 106.717407,180.287323 
	C103.353653,180.287323 100.278900,180.287323 97.000000,180.287323 
	C97.000000,191.548874 97.000000,202.524429 97.000000,214.500000 
M413.995789,182.488998 
	C410.728516,179.950211 408.921051,180.413116 407.993134,183.986023 
	C407.317993,186.585632 406.576172,189.167938 405.666748,192.475845 
	C404.459869,188.131577 403.486572,184.628098 402.491638,181.046661 
	C393.937195,180.157120 398.642944,189.390488 394.343964,191.362076 
	C393.478302,188.052994 392.555328,184.524887 391.613922,180.926331 
	C389.554016,181.031998 387.822357,181.120819 386.064575,181.210983 
	C388.220154,189.006729 390.262970,196.394714 392.291748,203.732010 
	C394.998474,203.884659 394.998474,203.884659 400.578796,193.272781 
	C401.394257,195.720078 402.006012,198.210541 403.067169,200.491974 
	C403.690521,201.832184 405.028534,202.839996 406.045135,203.997330 
	C407.038177,202.976669 408.548126,202.121277 408.936279,200.907211 
	C410.790131,195.108978 412.339661,189.213409 413.995789,182.488998 
M294.996948,185.511414 
	C294.511322,184.019608 294.025696,182.527817 293.624878,181.296600 
	C291.589264,181.296600 289.851501,181.296600 288.089203,181.296600 
	C290.210663,188.973160 292.253540,196.365356 294.366821,204.012375 
	C302.531250,204.488998 298.715485,195.942276 302.784454,193.496109 
	C303.487671,196.028137 304.099457,198.817673 305.082275,201.469666 
	C305.454620,202.474396 306.702728,203.853424 307.515472,203.829590 
	C308.686188,203.795227 310.350769,202.905136 310.863678,201.900085 
	C311.864380,199.939087 312.275116,197.660812 312.818695,195.486069 
	C313.998138,190.767502 315.107422,186.031387 316.277924,181.167206 
	C306.534943,179.888962 311.314941,189.096176 307.395599,191.518066 
	C306.441315,188.073730 305.465607,184.552032 304.420624,180.780334 
	C296.960114,180.942642 300.102051,188.930527 296.364471,191.421555 
	C295.915710,189.750854 295.458649,188.049164 294.996948,185.511414 
M346.004822,231.497635 
	C347.816467,228.000305 350.993958,224.526428 347.727661,220.460251 
	C343.552917,215.263168 337.676971,217.366257 332.210571,217.081039 
	C332.210571,224.876022 332.210571,232.274536 332.210571,239.802246 
	C334.159790,239.802246 335.897156,239.802246 338.169861,239.802246 
	C338.169861,236.783401 338.169861,233.936325 338.169861,231.089249 
	C340.448151,233.116898 341.302643,235.795517 343.067200,237.568314 
	C344.627472,239.135925 347.201477,239.694550 349.327911,240.698654 
	C349.561584,240.244858 349.795227,239.791077 350.028900,239.337296 
	C348.696716,236.986511 347.364563,234.635727 346.004822,231.497635 
M369.963837,271.591248 
	C368.263763,269.221130 367.138000,267.276703 369.863464,264.383179 
	C373.251984,260.785706 370.127441,254.419342 365.028046,254.051208 
	C361.451721,253.793045 357.841675,254.001373 354.223633,254.001373 
	C354.223633,261.592804 354.223633,268.659821 354.223633,275.787567 
	C355.855225,275.787567 357.260681,275.787567 358.986786,275.787567 
	C358.986786,273.145996 358.986786,270.708344 358.986786,268.270691 
	C359.467499,267.996521 359.948242,267.722321 360.428955,267.448151 
	C362.202087,270.226288 363.975220,273.004456 365.838562,275.923950 
	C367.616516,275.923950 369.596283,275.923950 371.836395,275.923950 
	C371.183685,274.635223 370.609467,273.501495 369.963837,271.591248 
M299.000000,258.355408 
	C299.000000,260.085419 299.000000,261.815430 299.000000,264.881226 
	C296.736511,261.590424 294.868896,259.563965 293.816620,257.177948 
	C292.370575,253.898880 290.170258,253.591171 287.223877,254.243881 
	C287.223877,261.559753 287.223877,268.639771 287.223877,275.789368 
	C288.852722,275.789368 290.255371,275.789368 292.015320,275.789368 
	C292.015320,272.224396 292.015320,268.851135 292.015320,265.395691 
	C296.767212,268.485138 296.322784,277.556427 304.726746,275.790649 
	C304.726746,268.307617 304.726746,261.234650 304.726746,253.968582 
	C302.130005,254.428619 298.331635,252.240967 299.000000,258.355408 
M332.621307,191.098587 
	C331.173187,188.964066 329.403015,186.975418 328.354034,184.660065 
	C326.862122,181.367188 324.682526,180.318375 321.182434,181.320908 
	C321.182434,188.730148 321.182434,196.167526 321.182434,203.645081 
	C322.881378,203.645081 324.388641,203.645081 326.335266,203.645081 
	C326.335266,199.660782 326.335266,196.023804 326.335266,192.791016 
	C331.020477,195.841202 330.624023,204.338150 338.710205,203.993912 
	C338.710205,195.953506 338.710205,188.526367 338.710205,180.918915 
	C336.991486,181.037399 335.581604,181.134583 333.843689,181.254379 
	C333.843689,185.216156 333.843689,188.835922 333.843689,192.455673 
	C333.592682,192.400330 333.320465,192.385529 333.100616,192.270599 
	C333.006653,192.221481 333.021759,191.963654 332.621307,191.098587 
M425.951080,194.426086 
	C432.144928,204.186523 432.144928,204.186523 436.729919,203.454544 
	C436.729919,196.012985 436.729919,188.583496 436.729919,180.953064 
	C435.039093,181.031921 433.629669,181.097656 431.831879,181.181503 
	C431.831879,185.210403 431.831879,188.886703 431.831879,192.351227 
	C426.705750,189.553528 428.031952,179.970032 419.226807,181.130554 
	C419.226807,188.858765 419.226807,196.292557 419.226807,203.781296 
	C420.867065,203.781296 422.269012,203.781296 424.267792,203.781296 
	C424.267792,199.868164 424.267792,196.161697 424.267792,191.125000 
	C425.010101,192.981064 425.193848,193.440491 425.951080,194.426086 
M407.000000,231.448715 
	C407.000000,226.670090 407.000000,221.891464 407.000000,216.909454 
	C405.003479,217.038498 403.591949,217.129730 401.794250,217.245926 
	C401.794250,220.917969 401.794250,224.264877 401.794250,227.847153 
	C397.199463,224.670227 397.497620,216.929657 390.193726,216.939499 
	C390.193726,224.747131 390.193726,232.192505 390.193726,239.631165 
	C391.908539,239.631165 393.419434,239.631165 395.124146,239.631165 
	C395.124146,236.008881 395.124146,232.753967 395.124146,229.474411 
	C399.595856,232.287476 399.177673,240.520004 407.000000,239.912262 
	C407.000000,237.068039 407.000000,234.746933 407.000000,231.448715 
M261.005371,198.268631 
	C264.309631,183.254730 259.995972,179.000519 245.244141,181.501846 
	C245.244141,188.902115 245.244141,196.309418 245.244141,203.994766 
	C251.050766,203.528397 257.405487,206.011429 261.005371,198.268631 
M278.096985,181.001144 
	C274.658447,181.225098 270.901031,180.085785 268.832947,184.533340 
	C266.649994,189.227859 265.866272,194.067154 268.198853,198.532959 
	C269.430786,200.891525 272.574799,203.508774 274.997467,203.654846 
	C277.738007,203.820084 281.589844,202.077225 283.280640,199.875565 
	C287.505157,194.374725 285.016998,185.245514 278.096985,181.001144 
M369.125153,202.654343 
	C374.646454,204.996048 378.589020,204.192398 381.289581,200.174728 
	C383.714752,196.566772 383.539551,187.408051 380.977570,183.863235 
	C378.411072,180.312256 369.853638,179.718018 367.464111,183.183151 
	C364.277313,187.804382 363.322937,198.155121 369.125153,202.654343 
M245.000000,224.557190 
	C245.000000,229.638550 245.000000,234.719910 245.000000,239.741364 
	C250.326630,239.741364 255.069656,239.741364 259.745728,239.741364 
	C259.745728,238.074631 259.745728,236.670685 259.745728,234.904999 
	C256.412720,234.904999 253.322235,234.904999 250.223633,234.904999 
	C250.223633,233.460159 250.223633,232.386673 250.223633,230.943497 
	C253.182236,230.943497 255.937744,230.943497 259.026703,230.943497 
	C258.931763,229.035065 258.856598,227.524567 258.772491,225.834320 
	C255.598068,225.834320 252.976837,225.834320 250.015244,225.834320 
	C250.135239,224.418289 250.234634,223.245361 250.349976,221.884293 
	C253.675049,221.884293 256.625885,221.884293 259.663452,221.884293 
	C259.663452,220.149567 259.663452,218.648438 259.663452,217.318939 
	C254.598465,217.318939 249.873352,217.318939 245.000000,217.318939 
	C245.000000,219.615051 245.000000,221.595047 245.000000,224.557190 
M378.478149,235.000000 
	C376.392639,234.325256 371.780151,236.983139 373.481354,230.871887 
	C376.277222,230.871887 379.036743,230.871887 381.755920,230.871887 
	C381.755920,229.079132 381.755920,227.678391 381.755920,225.917236 
	C378.767609,225.917236 376.004486,225.917236 373.214630,225.917236 
	C373.214630,224.470566 373.214630,223.398163 373.214630,221.954346 
	C376.499695,221.954346 379.590973,221.954346 382.809631,221.954346 
	C382.809631,220.175705 382.809631,218.775742 382.809631,217.368408 
	C377.756195,217.368408 372.899872,217.368408 368.347961,217.368408 
	C368.347961,225.133942 368.347961,232.529221 368.347961,239.839554 
	C373.315674,239.839554 377.933990,239.839554 382.874756,239.839554 
	C383.055908,237.075745 383.881744,234.259674 378.478149,235.000000 
M436.700928,239.995941 
	C440.990662,239.995941 445.280426,239.995941 449.671356,239.995941 
	C449.671356,238.153000 449.671356,236.648788 449.671356,234.934784 
	C446.391052,234.934784 443.436951,234.934784 440.049347,234.934784 
	C440.111664,233.528137 440.163635,232.355560 440.231659,230.821228 
	C443.344299,230.821228 446.099915,230.821228 448.726166,230.821228 
	C448.726166,229.036682 448.726166,227.634140 448.726166,225.869186 
	C445.704407,225.869186 442.943451,225.869186 440.244446,225.869186 
	C440.244446,224.423355 440.244446,223.350952 440.244446,221.909683 
	C443.560608,221.909683 446.649048,221.909683 449.781921,221.909683 
	C449.781921,220.131485 449.781921,218.731201 449.781921,217.214172 
	C444.829224,217.214172 440.095459,217.214172 434.666962,217.214172 
	C435.031555,224.946869 435.385071,232.444839 436.700928,239.995941 
M280.587830,234.070496 
	C272.724854,227.370987 281.983368,222.991974 283.025940,217.582779 
	C277.303619,214.966949 275.724487,219.524353 273.662476,223.179321 
	C269.743469,216.778503 269.743469,216.778503 264.311523,217.375183 
	C264.992096,218.859756 265.351135,220.608093 266.387726,221.730927 
	C270.136322,225.791504 271.185059,229.709229 267.036163,234.200470 
	C265.684479,235.663696 264.931976,237.680405 263.895996,239.460175 
	C269.581757,241.830276 271.500275,237.832962 273.778625,233.574448 
	C275.784576,237.696655 277.564545,241.652191 283.080811,239.496826 
	C282.379059,237.913086 281.677032,236.328812 280.587830,234.070496 
M325.936890,235.642426 
	C322.723114,235.307495 319.509308,234.972580 316.003510,234.607224 
	C316.130188,233.367981 316.250427,232.191833 316.388916,230.837112 
	C319.064545,230.837112 321.350555,230.837112 323.637878,230.837112 
	C323.637878,229.094986 323.637878,227.582794 323.637878,225.868286 
	C320.986145,225.868286 318.695831,225.868286 316.026794,225.868286 
	C316.127045,224.459137 316.210480,223.286331 316.319031,221.760559 
	C319.761963,221.760559 322.846405,221.760559 326.101776,221.760559 
	C325.962036,219.962067 325.852997,218.558517 325.755341,217.301544 
	C320.635742,217.301544 315.908447,217.301544 311.280457,217.301544 
	C311.280457,224.997070 311.280457,232.388138 311.280457,239.999863 
	C315.356995,239.999863 319.173248,239.772293 322.947571,240.072174 
	C325.944061,240.310257 326.253876,238.850494 325.936890,235.642426 
M339.728271,271.996674 
	C339.037262,270.488953 338.346252,268.981232 337.373383,266.858521 
	C341.024902,266.858521 343.316956,266.858521 345.972168,266.858521 
	C345.866211,265.445862 345.777802,264.267456 345.675476,262.903198 
	C343.022552,262.903198 340.732513,262.903198 338.031586,262.903198 
	C338.116028,261.492798 338.186310,260.318970 338.277985,258.788025 
	C341.726196,258.788025 344.811066,258.788025 348.073639,258.788025 
	C347.964233,256.987793 347.879059,255.586441 347.799988,254.285309 
	C342.338654,254.285309 337.276978,254.285309 332.266357,254.285309 
	C332.266357,261.630981 332.266357,268.688751 332.266357,275.768005 
	C337.615784,275.768005 342.695465,275.768005 347.772583,275.768005 
	C347.772583,274.458679 347.772583,273.384064 347.772583,271.999786 
	C345.256744,271.999786 342.959015,271.999786 339.728271,271.996674 
M280.934235,272.606934 
	C277.383484,272.289459 273.832703,271.971985 270.210388,271.648102 
	C270.210388,270.149719 270.210388,268.747131 270.210388,266.974121 
	C273.165680,266.974121 275.920288,266.974121 279.012299,266.974121 
	C278.865875,265.393494 278.756897,264.217102 278.631134,262.859711 
	C275.627472,262.859711 273.005768,262.859711 270.018066,262.859711 
	C270.128815,261.441132 270.220184,260.270355 270.326813,258.904480 
	C273.982880,258.904480 277.267548,258.904480 280.674652,258.904480 
	C280.674652,257.167603 280.674652,255.666595 280.674652,254.311050 
	C275.284851,254.311050 270.223694,254.311050 265.293701,254.311050 
	C265.293701,261.685913 265.293701,268.746613 265.293701,275.999207 
	C269.886566,275.999207 274.196167,276.133850 278.483948,275.887878 
	C279.362915,275.837463 280.160126,274.361938 280.934235,272.606934 
M295.189728,217.000076 
	C292.914978,217.000076 290.640228,217.000076 288.186707,217.000076 
	C288.186707,224.801651 288.186707,232.195770 288.186707,239.662689 
	C289.867310,239.662689 291.375305,239.662689 292.862305,239.662689 
	C292.988922,236.901840 293.100098,234.478119 293.213837,231.998688 
	C295.092590,231.998688 296.916382,232.547562 298.010254,231.887268 
	C300.475647,230.399063 303.569977,228.708618 304.516510,226.343369 
	C305.269226,224.462463 303.781891,220.993286 302.225525,219.106552 
	C301.052795,217.684921 298.196320,217.652237 295.189728,217.000076 
M428.381348,238.075241 
	C428.022461,234.518097 427.638214,234.126663 424.520569,234.843323 
	C420.733276,235.713928 418.978577,234.238083 418.999359,230.435013 
	C419.005707,229.273315 418.962280,228.110123 419.006683,226.950104 
	C419.189117,222.186966 421.635162,220.985992 425.895538,223.678146 
	C427.057556,222.413940 428.220642,221.148621 429.473755,219.785309 
	C428.182465,219.081528 427.457642,218.743973 426.791992,218.314667 
	C421.077911,214.629471 412.522766,219.321747 413.956818,226.226669 
	C414.254211,227.658554 413.999542,229.204987 414.000061,230.698639 
	C414.003021,239.073746 420.266388,242.690063 428.381348,238.075241 
M246.041077,274.362549 
	C250.427048,277.305450 254.757355,278.018524 259.502960,273.669769 
	C258.426544,272.340515 257.379303,271.047241 256.332031,269.753967 
	C256.204285,270.181335 256.076508,270.608673 255.948761,271.036011 
	C254.142792,271.036011 250.792709,271.239868 250.761765,271.005524 
	C250.274872,267.317444 249.990341,263.552460 250.326691,259.866058 
	C250.371399,259.375977 254.067551,259.219086 256.072693,258.907898 
	C256.196625,259.312286 256.320557,259.716675 256.444489,260.121063 
	C257.364471,259.045563 258.284424,257.970093 259.154877,256.952484 
	C255.241470,251.844833 245.529800,252.949234 244.507309,259.273224 
	C243.770432,263.830902 245.386002,268.768951 246.041077,274.362549 
M355.396606,181.000000 
	C351.633575,181.000000 347.870544,181.000000 343.909424,181.000000 
	C344.037628,182.984711 344.129059,184.400177 344.224915,185.884491 
	C346.293060,185.983780 348.034637,186.067398 350.104584,186.166763 
	C350.104584,192.268082 350.104584,198.011353 350.104584,203.782639 
	C351.874603,203.782639 353.273193,203.782639 355.024658,203.782639 
	C355.024658,197.836105 355.024658,192.092865 355.024658,186.004059 
	C357.109528,186.004059 358.856659,186.004059 360.796722,186.004059 
	C360.796722,184.247482 360.796722,182.840286 360.796722,181.000000 
	C359.261200,181.000000 357.808777,181.000000 355.396606,181.000000 
M321.044983,259.824554 
	C322.865814,259.407104 324.686615,258.989685 326.683960,258.531769 
	C326.683960,257.189453 326.683960,255.686203 326.683960,254.265671 
	C320.958282,254.265671 315.551086,254.265671 309.960388,254.265671 
	C310.040924,255.954971 310.108307,257.368164 310.192322,259.130798 
	C312.262085,259.130798 313.996124,259.130798 316.080353,259.130798 
	C316.080353,264.901154 316.080353,270.312592 316.080353,275.797424 
	C317.844818,275.797424 319.243683,275.797424 321.002991,275.797424 
	C321.002991,270.661377 321.002991,265.717865 321.044983,259.824554 
M360.952301,217.812347 
	C359.049835,217.492737 357.147369,217.173126 355.257629,216.855637 
	C355.257629,225.043182 355.257629,232.418442 355.257629,239.756653 
	C357.248688,239.756653 358.978394,239.756653 360.996887,239.756653 
	C360.996887,232.601547 360.996887,225.685135 360.952301,217.812347 
z"/>
<path fill="#000000" opacity="1.000000" stroke="none" 
	d="
M526.000000,174.000000 
	C526.000000,132.525116 526.000000,91.550224 526.000000,51.492298 
	C513.127808,47.136684 500.642731,43.194469 488.369171,38.677574 
	C476.680695,34.376003 465.578705,36.121250 454.314941,40.208393 
	C441.030945,45.028587 428.008331,52.140423 413.461395,50.708893 
	C403.856567,49.763702 394.509216,46.094864 385.077179,43.532822 
	C376.113708,41.098057 367.327759,37.457916 358.213379,36.272331 
	C347.214935,34.841663 337.308899,40.631023 327.030304,43.867290 
	C317.719238,46.798923 308.183411,49.533875 298.543579,50.763439 
	C288.229492,52.079010 278.642883,47.463505 269.076721,44.008595 
	C259.095215,40.403671 249.356064,35.699448 238.401505,36.078327 
	C234.406174,36.216507 230.441803,37.249237 226.231903,37.910187 
	C226.231903,35.774677 226.231903,33.668003 226.231903,31.364061 
	C238.842178,27.375929 250.898911,30.113867 262.907257,34.387512 
	C271.500092,37.445610 280.144897,40.403404 288.900391,42.944611 
	C296.091949,45.031887 303.345795,44.568119 310.540833,42.149052 
	C322.075378,38.270981 333.657257,34.517967 345.306091,30.999992 
	C356.634460,27.578808 367.586853,29.978022 378.391327,33.787960 
	C388.047791,37.193058 397.571442,41.244537 407.492889,43.552345 
	C417.370667,45.849979 427.350433,43.399967 436.655151,39.630875 
	C448.306580,34.911179 460.015350,29.497355 472.576508,29.464174 
	C481.327393,29.441057 490.203979,32.611523 498.814972,35.084671 
	C510.035706,38.307377 520.418884,44.522598 532.789368,44.117023 
	C532.789368,137.745773 532.789368,231.144196 532.789368,324.771362 
	C387.611053,324.771362 242.558182,324.771362 97.252594,324.771362 
	C97.252594,305.975311 97.252594,287.237061 97.252594,268.248840 
	C99.353767,268.248840 101.424492,268.248840 103.891159,268.248840 
	C103.891159,284.995392 103.891159,301.743805 103.891159,318.743958 
	C244.667908,318.743958 385.054779,318.743958 526.000000,318.743958 
	C526.000000,270.677917 526.000000,222.588959 526.000000,174.000000 
z"/>
<path fill="#000000" opacity="1.000000" stroke="none" 
	d="
M58.998631,97.000000 
	C63.662964,97.000000 67.877686,97.405190 71.980148,96.899536 
	C77.356491,96.236862 82.529037,100.343719 83.934914,104.172264 
	C85.843529,109.369881 85.770218,114.374565 81.118500,118.376488 
	C80.746590,118.696442 80.480324,119.139191 80.151421,119.541428 
	C89.255806,124.211220 91.142365,132.366623 89.857506,141.353134 
	C88.815109,148.643875 83.964386,153.375961 76.880516,155.612991 
	C76.113754,155.855148 75.277336,155.982224 74.472893,155.983704 
	C62.168839,156.006546 49.864731,155.999603 37.280907,155.999603 
	C37.280907,136.372040 37.280907,116.972519 37.280907,97.000000 
	C44.304527,97.000000 51.401802,97.000000 58.998631,97.000000 
M71.682152,124.172813 
	C63.256943,124.172813 54.831730,124.172813 46.346592,124.172813 
	C46.346592,132.561432 46.346592,140.734543 46.346592,149.000000 
	C53.499851,149.000000 60.306816,149.003647 67.113770,148.999023 
	C74.860184,148.993759 78.637032,145.872177 80.572533,137.887695 
	C81.633034,133.512817 77.638817,127.222244 71.682152,124.172813 
M46.059296,115.271942 
	C54.085003,115.489822 62.123547,116.044586 70.129318,115.739479 
	C72.863007,115.635292 76.076637,113.304070 74.831802,109.680664 
	C74.080292,107.493202 71.782829,104.393639 69.986656,104.257652 
	C62.130768,103.662842 54.204189,104.001633 46.004162,104.001633 
	C46.004162,107.750381 46.004162,111.030289 46.059296,115.271942 
z"/>
<path fill="#000000" opacity="1.000000" stroke="none" 
	d="
M413.030396,154.769867 
	C413.003937,135.347565 413.003937,116.408989 413.003937,97.990059 
	C427.648621,97.990059 442.053802,97.025063 456.263824,98.276360 
	C469.069061,99.403946 475.385651,110.390068 476.810150,120.669434 
	C478.099396,129.973053 477.085388,139.194107 470.078949,146.760590 
	C465.162292,152.070175 459.180206,155.531662 452.206329,155.842957 
	C439.748047,156.399048 427.246979,156.007263 414.763977,155.964813 
	C414.194122,155.962875 413.625885,155.501175 413.030396,154.769867 
M423.731873,148.942291 
	C430.895660,148.961517 438.070099,148.743988 445.220306,149.065445 
	C452.627106,149.398438 458.982452,147.434891 463.146606,141.167892 
	C465.297089,137.931458 467.101624,134.080368 467.719818,130.288116 
	C469.148407,121.524696 465.793365,107.360863 453.386627,105.239151 
	C443.586670,103.563217 433.419769,104.032829 423.056244,103.532227 
	C423.056244,119.018837 423.056244,133.635345 423.731873,148.942291 
z"/>
<path fill="#000000" opacity="1.000000" stroke="none" 
	d="
M225.743317,239.974365 
	C216.288803,241.544220 210.259109,237.244095 205.592575,230.124207 
	C204.001785,227.697083 202.419434,225.199799 200.424835,223.127670 
	C199.333984,221.994400 197.433273,221.254868 195.821365,221.091461 
	C192.724411,220.777527 189.573105,221.000031 186.049622,221.000031 
	C186.049622,227.404449 186.049622,233.490051 186.049622,239.780899 
	C182.917709,239.780899 180.181122,239.780899 177.220352,239.780899 
	C177.220352,219.920944 177.220352,200.179810 177.220352,179.089752 
	C188.824646,180.052948 200.312225,180.346985 211.552368,182.168213 
	C219.216690,183.410049 224.695526,191.749313 225.022308,199.240250 
	C225.436249,208.728531 220.259293,216.595657 213.188110,219.044678 
	C212.336700,219.339569 211.630951,220.055069 210.305801,220.947144 
	C216.470291,225.085190 217.369598,234.582916 227.301453,234.210953 
	C226.904572,236.295624 226.556503,238.123840 225.743317,239.974365 
M200.290756,213.000000 
	C200.956131,213.000000 201.621765,213.011765 202.286865,212.998138 
	C207.982834,212.881531 213.103241,209.101166 214.655075,203.871994 
	C216.183411,198.722000 214.059769,193.610367 208.779343,190.293793 
	C201.628784,185.802582 193.804092,188.942703 186.238007,187.936890 
	C186.238007,196.563614 186.238007,204.624542 186.238007,213.000000 
	C190.760345,213.000000 195.051880,213.000000 200.290756,213.000000 
z"/>
<path fill="#000000" opacity="1.000000" stroke="none" 
	d="
M148.000000,22.038174 
	C148.000000,39.163357 148.000000,55.792667 148.000000,72.710533 
	C144.725082,72.710533 141.653961,72.710533 137.999878,72.710533 
	C137.999878,66.219955 137.935883,59.621727 138.031967,53.025833 
	C138.069443,50.452019 137.424530,49.293289 134.496246,48.893490 
	C126.030556,47.737659 117.643593,46.017353 109.204178,44.651878 
	C104.941780,43.962231 100.632790,43.560474 95.945686,42.979027 
	C95.945686,53.143078 95.945686,62.898766 95.945686,72.822037 
	C92.622795,72.822037 89.667839,72.822037 86.355705,72.822037 
	C86.355705,53.089684 86.355705,33.241806 86.355705,13.195978 
	C89.462135,13.195978 92.531197,13.195978 95.991234,13.195978 
	C95.991234,20.788420 95.991234,28.201616 95.991234,34.984322 
	C110.112892,37.580589 123.732269,40.084518 137.875137,42.684689 
	C137.875137,32.362167 137.875137,22.946821 137.875137,13.268724 
	C141.314621,13.268724 144.386703,13.268724 148.000000,13.268724 
	C148.000000,15.993209 148.000000,18.767756 148.000000,22.038174 
z"/>
<path fill="#000000" opacity="1.000000" stroke="none" 
	d="
M377.730164,141.297226 
	C373.285583,136.791672 373.285583,136.791672 362.113892,137.109726 
	C362.113892,143.269867 362.113892,149.478165 362.113892,155.832489 
	C358.938416,155.832489 356.316650,155.832489 353.346741,155.832489 
	C353.346741,136.433701 353.346741,116.927818 353.346741,97.996010 
	C364.706757,97.996010 376.125031,97.112442 387.322845,98.302826 
	C394.944458,99.113037 401.730774,109.588310 400.878540,117.200218 
	C399.927582,125.693398 396.467133,133.505630 385.978088,136.330872 
	C391.246185,141.924423 393.773560,150.053207 402.835205,151.413132 
	C402.835205,152.770355 402.835205,154.198105 402.835205,155.594208 
	C393.677673,157.335968 386.286163,155.503189 381.840851,146.577148 
	C380.920776,144.729721 379.273468,143.244461 377.730164,141.297226 
M386.461395,107.975922 
	C379.089355,101.596771 370.385437,104.875854 362.288086,103.910484 
	C362.288086,113.016617 362.288086,121.404762 362.288086,129.999557 
	C367.204834,129.999557 371.874512,130.378036 376.455566,129.902557 
	C382.026276,129.324387 387.177582,127.458115 389.724548,121.717598 
	C391.958832,116.681763 390.594666,112.363510 386.461395,107.975922 
z"/>
<path fill="#000000" opacity="1.000000" stroke="none" 
	d="
M37.000000,191.020111 
	C37.000000,187.211029 37.000000,183.898956 37.000000,179.531204 
	C48.546101,180.051788 60.012302,179.620316 71.117661,181.418015 
	C78.002113,182.532455 86.081856,190.039154 85.085838,202.562317 
	C84.452385,210.527100 78.549263,218.772675 70.673248,219.868332 
	C62.724682,220.974091 54.624825,220.992355 46.173195,221.512802 
	C46.173195,227.280212 46.173195,233.356873 46.173195,239.713989 
	C43.049068,239.713989 40.310432,239.713989 37.000000,239.713989 
	C37.000000,223.708618 37.000000,207.612869 37.000000,191.020111 
M46.000000,200.500885 
	C46.000000,204.599396 46.000000,208.697906 46.000000,213.000000 
	C48.372814,213.000000 50.180958,213.000046 51.989101,213.000000 
	C55.817280,212.999908 59.650135,213.119324 63.472466,212.969757 
	C68.389061,212.777420 74.437874,207.564331 74.996582,203.251694 
	C75.875336,196.468643 72.832199,190.381119 66.617020,189.187317 
	C59.969799,187.910538 53.046280,188.072235 46.000000,187.589355 
	C46.000000,192.224991 46.000000,195.867096 46.000000,200.500885 
z"/>
<path fill="#000000" opacity="1.000000" stroke="none" 
	d="
M173.009430,73.000000 
	C168.535400,73.000000 164.559830,73.000000 160.292969,73.000000 
	C160.292969,53.072060 160.292969,33.347603 160.292969,13.310976 
	C175.228333,13.310976 190.291275,13.310976 205.818146,13.310976 
	C206.274338,15.538729 206.776215,17.989639 207.366684,20.873146 
	C194.430222,20.873146 182.001816,20.873146 169.288681,20.873146 
	C169.288681,25.275518 169.288681,29.346304 169.288681,33.820496 
	C176.268433,33.820496 183.342880,33.820496 190.705933,33.820496 
	C190.705933,36.267277 190.705933,38.336685 190.705933,40.802608 
	C183.773438,40.802608 176.688538,40.802608 169.304672,40.802608 
	C169.304672,49.241665 169.304672,57.309711 169.304672,65.778679 
	C181.563766,65.778679 193.965912,65.778679 206.285019,65.778679 
	C207.597366,72.353378 207.092529,72.996811 200.978668,72.999107 
	C191.821732,73.002541 182.664810,73.000000 173.009430,73.000000 
z"/>
<path fill="#000000" opacity="1.000000" stroke="none" 
	d="
M128.002197,198.822830 
	C129.272369,199.869431 130.527420,200.885315 131.811142,200.922943 
	C137.757584,201.097275 143.712006,201.000000 149.827133,201.000000 
	C149.827133,203.372452 149.827133,205.326828 149.827133,207.846344 
	C142.768265,207.846344 135.567062,207.846344 128.200867,207.846344 
	C128.200867,216.476303 128.200867,224.542404 128.200867,232.967163 
	C140.816681,232.967163 153.238495,232.967163 166.228394,232.967163 
	C165.695023,235.537155 165.256439,237.650452 164.797791,239.860458 
	C149.623642,239.860458 134.661774,239.860458 119.349770,239.860458 
	C119.349770,220.186615 119.349770,200.459671 119.349770,180.366028 
	C134.107071,180.366028 149.162659,180.366028 164.772537,180.366028 
	C165.230698,182.443359 165.769836,184.887848 166.404510,187.765533 
	C153.517319,187.765533 141.099213,187.765533 128.000290,187.765533 
	C128.000290,191.511047 128.000290,194.926285 128.002197,198.822830 
z"/>
<path fill="#000000" opacity="1.000000" stroke="none" 
	d="
M135.004944,109.066597 
	C142.005875,124.732132 148.970657,140.007721 156.107788,155.661285 
	C152.338242,155.661285 148.805786,155.661285 145.284775,155.661285 
	C143.133087,150.883102 140.953384,146.042664 138.682678,141.000153 
	C130.408020,141.000153 122.095398,140.856415 113.796059,141.124268 
	C112.181137,141.176376 110.230721,142.506592 109.128014,143.826309 
	C107.722755,145.508102 106.663177,147.681854 106.087196,149.814392 
	C104.524124,155.601562 100.882019,157.207245 94.851601,155.496902 
	C97.061623,151.010880 99.325050,146.524918 101.493988,141.993729 
	C108.348549,127.673607 115.094101,113.300354 122.098366,99.054123 
	C122.928650,97.365379 125.099419,96.335701 126.648819,95.000511 
	C127.782356,96.417183 129.107849,97.722404 130.008774,99.274139 
	C131.786514,102.336090 133.328995,105.534607 135.004944,109.066597 
M119.034828,123.617828 
	C117.342354,127.209045 115.649879,130.800262 113.786827,134.753418 
	C121.281616,134.753418 128.354980,134.753418 135.671661,134.753418 
	C132.344742,127.283257 128.991776,119.754608 125.318886,111.507637 
	C123.112602,115.864517 121.305679,119.432755 119.034828,123.617828 
z"/>
<path fill="#000000" opacity="1.000000" stroke="none" 
	d="
M330.001556,128.019226 
	C334.165283,137.394226 338.292664,146.379211 342.712128,155.999969 
	C339.693573,155.999969 337.516815,155.726715 335.438812,156.063110 
	C332.209625,156.585861 331.049561,154.625183 330.049805,152.253860 
	C329.928467,151.966064 330.083221,151.567612 329.978149,151.266434 
	C326.396301,140.999176 326.394012,140.999985 315.562012,141.000000 
	C310.902100,141.000000 306.238831,141.108124 301.583435,140.963226 
	C298.305084,140.861191 296.055359,141.825409 294.925568,145.171173 
	C294.262390,147.134918 292.628906,148.796936 292.095886,150.773712 
	C290.574890,156.414703 286.848969,156.863159 281.380585,155.379562 
	C284.267181,149.637619 287.149109,144.121628 289.837891,138.513031 
	C296.218170,125.204254 302.526642,111.860893 308.810181,98.506134 
	C309.702545,96.609566 310.242035,94.072891 312.990021,95.118019 
	C314.546356,95.709930 316.167328,97.237595 316.882050,98.756531 
	C321.380157,108.316284 325.632019,117.991898 330.001556,128.019226 
M300.951660,133.491425 
	C300.924988,133.980164 300.898315,134.468887 300.871674,134.957626 
	C307.880524,134.957626 314.889343,134.957626 322.272949,134.957626 
	C318.598785,126.798355 315.267517,119.400543 311.768707,111.630630 
	C308.005402,119.009445 304.516144,125.850922 300.951660,133.491425 
z"/>
<path fill="#000000" opacity="1.000000" stroke="none" 
	d="
M49.226715,21.030197 
	C48.495968,22.791086 48.039009,24.524958 48.032692,26.260468 
	C47.976509,41.699108 48.000000,57.138039 48.000000,72.787086 
	C44.908123,72.787086 42.174129,72.787086 39.064171,72.787086 
	C39.064171,55.602512 39.064171,38.541367 39.064171,21.108679 
	C29.622267,21.108679 20.540852,21.108679 10.835308,21.108679 
	C11.348963,18.216738 11.780427,15.787544 12.275410,13.000729 
	C32.078396,13.000729 51.856953,12.983418 71.635445,13.011856 
	C77.173035,13.019818 73.862328,18.263977 77.324600,21.003937 
	C67.169678,21.003937 58.439579,21.003937 49.226715,21.030197 
z"/>
<path fill="#000000" opacity="1.000000" stroke="none" 
	d="
M175.000000,136.985962 
	C175.000000,141.127563 175.000000,144.772217 175.000000,148.784210 
	C187.951935,148.784210 200.706146,148.784210 213.297653,148.784210 
	C213.738632,154.872101 211.036102,156.346237 205.461624,156.147263 
	C192.508301,155.684921 179.527237,156.000000 166.279266,156.000000 
	C166.279266,136.368973 166.279266,116.969765 166.279266,97.284653 
	C168.952560,97.284653 171.689835,97.284653 175.000000,97.284653 
	C175.000000,110.294205 175.000000,123.391609 175.000000,136.985962 
z"/>
<path fill="#000000" opacity="1.000000" stroke="none" 
	d="
M233.000000,138.971649 
	C233.000000,142.445480 233.000000,145.424591 233.000000,148.799744 
	C245.590347,148.799744 257.997406,148.799744 270.327942,148.799744 
	C271.533752,155.423264 271.075470,155.997818 264.933411,155.999115 
	C251.469803,156.001968 238.006180,156.000000 224.271912,156.000000 
	C224.271912,136.358078 224.271912,116.962952 224.271912,97.283325 
	C226.955612,97.283325 229.693512,97.283325 233.000000,97.283325 
	C233.000000,110.957642 233.000000,124.717285 233.000000,138.971649 
z"/>
<path fill="#000000" opacity="1.000000" stroke="none" 
	d="
M97.000000,214.000000 
	C97.000000,202.524429 97.000000,191.548874 97.000000,180.287323 
	C100.278900,180.287323 103.353653,180.287323 106.717407,180.287323 
	C106.717407,199.944214 106.717407,219.684097 106.717407,239.712646 
	C103.719299,239.712646 100.646751,239.712646 97.000000,239.712646 
	C97.000000,231.369339 97.000000,222.934677 97.000000,214.000000 
z"/>
<path fill="#000000" opacity="1.000000" stroke="none" 
	d="
M413.996582,182.920715 
	C412.339661,189.213409 410.790131,195.108978 408.936279,200.907211 
	C408.548126,202.121277 407.038177,202.976669 406.045135,203.997314 
	C405.028534,202.839996 403.690521,201.832184 403.067169,200.491974 
	C402.006012,198.210541 401.394257,195.720078 400.578796,193.272781 
	C394.998474,203.884659 394.998474,203.884659 392.291748,203.732010 
	C390.262970,196.394714 388.220154,189.006729 386.064575,181.210983 
	C387.822357,181.120819 389.554016,181.031998 391.613922,180.926331 
	C392.555328,184.524887 393.478302,188.052994 394.343964,191.362076 
	C398.642944,189.390488 393.937195,180.157120 402.491638,181.046661 
	C403.486572,184.628098 404.459869,188.131577 405.666748,192.475845 
	C406.576172,189.167938 407.317993,186.585632 407.993134,183.986023 
	C408.921051,180.413116 410.728516,179.950211 413.996582,182.920715 
z"/>
<path fill="#000000" opacity="1.000000" stroke="none" 
	d="
M294.999268,185.929443 
	C295.458649,188.049164 295.915710,189.750854 296.364471,191.421555 
	C300.102051,188.930527 296.960114,180.942642 304.420624,180.780334 
	C305.465607,184.552032 306.441315,188.073730 307.395599,191.518066 
	C311.314941,189.096176 306.534943,179.888962 316.277924,181.167206 
	C315.107422,186.031387 313.998138,190.767502 312.818695,195.486069 
	C312.275116,197.660812 311.864380,199.939087 310.863678,201.900085 
	C310.350769,202.905136 308.686188,203.795227 307.515472,203.829590 
	C306.702728,203.853424 305.454620,202.474396 305.082275,201.469666 
	C304.099457,198.817673 303.487671,196.028137 302.784454,193.496109 
	C298.715485,195.942276 302.531250,204.488998 294.366821,204.012375 
	C292.253540,196.365356 290.210663,188.973160 288.089203,181.296600 
	C289.851501,181.296600 291.589264,181.296600 293.624878,181.296600 
	C294.025696,182.527817 294.511322,184.019608 294.999268,185.929443 
z"/>
<path fill="#000000" opacity="1.000000" stroke="none" 
	d="
M346.018616,231.891296 
	C347.364563,234.635727 348.696716,236.986511 350.028900,239.337296 
	C349.795227,239.791077 349.561584,240.244858 349.327911,240.698654 
	C347.201477,239.694550 344.627472,239.135925 343.067200,237.568314 
	C341.302643,235.795517 340.448151,233.116898 338.169861,231.089249 
	C338.169861,233.936325 338.169861,236.783401 338.169861,239.802246 
	C335.897156,239.802246 334.159790,239.802246 332.210571,239.802246 
	C332.210571,232.274536 332.210571,224.876022 332.210571,217.081039 
	C337.676971,217.366257 343.552917,215.263168 347.727661,220.460251 
	C350.993958,224.526428 347.816467,228.000305 346.018616,231.891296 
z"/>
<path fill="#000000" opacity="1.000000" stroke="none" 
	d="
M369.999542,271.979492 
	C370.609467,273.501495 371.183685,274.635223 371.836395,275.923950 
	C369.596283,275.923950 367.616516,275.923950 365.838562,275.923950 
	C363.975220,273.004456 362.202087,270.226288 360.428955,267.448151 
	C359.948242,267.722321 359.467499,267.996521 358.986786,268.270691 
	C358.986786,270.708344 358.986786,273.145996 358.986786,275.787567 
	C357.260681,275.787567 355.855225,275.787567 354.223633,275.787567 
	C354.223633,268.659821 354.223633,261.592804 354.223633,254.001373 
	C357.841675,254.001373 361.451721,253.793045 365.028046,254.051208 
	C370.127441,254.419342 373.251984,260.785706 369.863464,264.383179 
	C367.138000,267.276703 368.263763,269.221130 369.999542,271.979492 
z"/>
<path fill="#000000" opacity="1.000000" stroke="none" 
	d="
M299.000000,257.907532 
	C298.331635,252.240967 302.130005,254.428619 304.726746,253.968582 
	C304.726746,261.234650 304.726746,268.307617 304.726746,275.790649 
	C296.322784,277.556427 296.767212,268.485138 292.015320,265.395691 
	C292.015320,268.851135 292.015320,272.224396 292.015320,275.789368 
	C290.255371,275.789368 288.852722,275.789368 287.223877,275.789368 
	C287.223877,268.639771 287.223877,261.559753 287.223877,254.243881 
	C290.170258,253.591171 292.370575,253.898880 293.816620,257.177948 
	C294.868896,259.563965 296.736511,261.590424 299.000000,264.881226 
	C299.000000,261.815430 299.000000,260.085419 299.000000,257.907532 
z"/>
<path fill="#000000" opacity="1.000000" stroke="none" 
	d="
M332.804321,191.449631 
	C333.021759,191.963654 333.006653,192.221481 333.100616,192.270599 
	C333.320465,192.385529 333.592682,192.400330 333.843689,192.455673 
	C333.843689,188.835922 333.843689,185.216156 333.843689,181.254379 
	C335.581604,181.134583 336.991486,181.037399 338.710205,180.918915 
	C338.710205,188.526367 338.710205,195.953506 338.710205,203.993912 
	C330.624023,204.338150 331.020477,195.841202 326.335266,192.791016 
	C326.335266,196.023804 326.335266,199.660782 326.335266,203.645081 
	C324.388641,203.645081 322.881378,203.645081 321.182434,203.645081 
	C321.182434,196.167526 321.182434,188.730148 321.182434,181.320908 
	C324.682526,180.318375 326.862122,181.367188 328.354034,184.660065 
	C329.403015,186.975418 331.173187,188.964066 332.804321,191.449631 
z"/>
<path fill="#000000" opacity="1.000000" stroke="none" 
	d="
M425.664337,194.162994 
	C425.193848,193.440491 425.010101,192.981064 424.267792,191.125000 
	C424.267792,196.161697 424.267792,199.868164 424.267792,203.781296 
	C422.269012,203.781296 420.867065,203.781296 419.226807,203.781296 
	C419.226807,196.292557 419.226807,188.858765 419.226807,181.130554 
	C428.031952,179.970032 426.705750,189.553528 431.831879,192.351227 
	C431.831879,188.886703 431.831879,185.210403 431.831879,181.181503 
	C433.629669,181.097656 435.039093,181.031921 436.729919,180.953064 
	C436.729919,188.583496 436.729919,196.012985 436.729919,203.454544 
	C432.144928,204.186523 432.144928,204.186523 425.664337,194.162994 
z"/>
<path fill="#000000" opacity="1.000000" stroke="none" 
	d="
M407.000000,231.937256 
	C407.000000,234.746933 407.000000,237.068039 407.000000,239.912262 
	C399.177673,240.520004 399.595856,232.287476 395.124146,229.474411 
	C395.124146,232.753967 395.124146,236.008881 395.124146,239.631165 
	C393.419434,239.631165 391.908539,239.631165 390.193726,239.631165 
	C390.193726,232.192505 390.193726,224.747131 390.193726,216.939499 
	C397.497620,216.929657 397.199463,224.670227 401.794250,227.847153 
	C401.794250,224.264877 401.794250,220.917969 401.794250,217.245926 
	C403.591949,217.129730 405.003479,217.038498 407.000000,216.909454 
	C407.000000,221.891464 407.000000,226.670090 407.000000,231.937256 
z"/>
<path fill="#000000" opacity="1.000000" stroke="none" 
	d="
M260.990692,198.692368 
	C257.405487,206.011429 251.050766,203.528397 245.244141,203.994766 
	C245.244141,196.309418 245.244141,188.902115 245.244141,181.501846 
	C259.995972,179.000519 264.309631,183.254730 260.990692,198.692368 
M252.269638,198.997177 
	C255.704529,197.662476 257.697449,192.556366 255.796875,188.147400 
	C255.196976,186.755768 252.481262,186.276230 250.733856,185.379257 
	C250.288055,185.785934 249.842270,186.192627 249.396469,186.599319 
	C250.050415,190.730362 250.704361,194.861420 252.269638,198.997177 
z"/>
<path fill="#000000" opacity="1.000000" stroke="none" 
	d="
M278.516846,181.008423 
	C285.016998,185.245514 287.505157,194.374725 283.280640,199.875565 
	C281.589844,202.077225 277.738007,203.820084 274.997467,203.654846 
	C272.574799,203.508774 269.430786,200.891525 268.198853,198.532959 
	C265.866272,194.067154 266.649994,189.227859 268.832947,184.533340 
	C270.901031,180.085785 274.658447,181.225098 278.516846,181.008423 
M276.435089,186.003326 
	C275.660309,186.156860 274.223694,186.263016 274.208801,186.470978 
	C273.930267,190.360626 273.820557,194.262360 273.675476,198.161560 
	C275.371033,197.983612 277.066620,197.805649 278.762177,197.627701 
	C278.281006,193.766479 277.799835,189.905258 276.435089,186.003326 
z"/>
<path fill="#000000" opacity="1.000000" stroke="none" 
	d="
M368.856934,202.354691 
	C363.322937,198.155121 364.277313,187.804382 367.464111,183.183151 
	C369.853638,179.718018 378.411072,180.312256 380.977570,183.863235 
	C383.539551,187.408051 383.714752,196.566772 381.289581,200.174728 
	C378.589020,204.192398 374.646454,204.996048 368.856934,202.354691 
M371.972504,186.563446 
	C371.662811,190.062958 371.196075,193.562027 371.185913,197.062393 
	C371.184082,197.704361 373.135162,198.975906 374.008698,198.838394 
	C375.097290,198.666992 376.636627,197.474472 376.855469,196.476120 
	C377.302277,194.437546 376.855072,192.222122 377.032471,190.100983 
	C377.310028,186.781693 375.827454,185.580353 371.972504,186.563446 
z"/>
<path fill="#000000" opacity="1.000000" stroke="none" 
	d="
M245.000000,224.066116 
	C245.000000,221.595047 245.000000,219.615051 245.000000,217.318939 
	C249.873352,217.318939 254.598465,217.318939 259.663452,217.318939 
	C259.663452,218.648438 259.663452,220.149567 259.663452,221.884293 
	C256.625885,221.884293 253.675049,221.884293 250.349976,221.884293 
	C250.234634,223.245361 250.135239,224.418289 250.015244,225.834320 
	C252.976837,225.834320 255.598068,225.834320 258.772491,225.834320 
	C258.856598,227.524567 258.931763,229.035065 259.026703,230.943497 
	C255.937744,230.943497 253.182236,230.943497 250.223633,230.943497 
	C250.223633,232.386673 250.223633,233.460159 250.223633,234.904999 
	C253.322235,234.904999 256.412720,234.904999 259.745728,234.904999 
	C259.745728,236.670685 259.745728,238.074631 259.745728,239.741364 
	C255.069656,239.741364 250.326630,239.741364 245.000000,239.741364 
	C245.000000,234.719910 245.000000,229.638550 245.000000,224.066116 
z"/>
<path fill="#000000" opacity="1.000000" stroke="none" 
	d="
M378.942780,235.000000 
	C383.881744,234.259674 383.055908,237.075745 382.874756,239.839554 
	C377.933990,239.839554 373.315674,239.839554 368.347961,239.839554 
	C368.347961,232.529221 368.347961,225.133942 368.347961,217.368408 
	C372.899872,217.368408 377.756195,217.368408 382.809631,217.368408 
	C382.809631,218.775742 382.809631,220.175705 382.809631,221.954346 
	C379.590973,221.954346 376.499695,221.954346 373.214630,221.954346 
	C373.214630,223.398163 373.214630,224.470566 373.214630,225.917236 
	C376.004486,225.917236 378.767609,225.917236 381.755920,225.917236 
	C381.755920,227.678391 381.755920,229.079132 381.755920,230.871887 
	C379.036743,230.871887 376.277222,230.871887 373.481354,230.871887 
	C371.780151,236.983139 376.392639,234.325256 378.942780,235.000000 
z"/>
<path fill="#000000" opacity="1.000000" stroke="none" 
	d="
M436.219757,239.969376 
	C435.385071,232.444839 435.031555,224.946869 434.666962,217.214172 
	C440.095459,217.214172 444.829224,217.214172 449.781921,217.214172 
	C449.781921,218.731201 449.781921,220.131485 449.781921,221.909683 
	C446.649048,221.909683 443.560608,221.909683 440.244446,221.909683 
	C440.244446,223.350952 440.244446,224.423355 440.244446,225.869186 
	C442.943451,225.869186 445.704407,225.869186 448.726166,225.869186 
	C448.726166,227.634140 448.726166,229.036682 448.726166,230.821228 
	C446.099915,230.821228 443.344299,230.821228 440.231659,230.821228 
	C440.163635,232.355560 440.111664,233.528137 440.049347,234.934784 
	C443.436951,234.934784 446.391052,234.934784 449.671356,234.934784 
	C449.671356,236.648788 449.671356,238.153000 449.671356,239.995941 
	C445.280426,239.995941 440.990662,239.995941 436.219757,239.969376 
z"/>
<path fill="#000000" opacity="1.000000" stroke="none" 
	d="
M280.781433,234.407516 
	C281.677032,236.328812 282.379059,237.913086 283.080811,239.496826 
	C277.564545,241.652191 275.784576,237.696655 273.778625,233.574448 
	C271.500275,237.832962 269.581757,241.830276 263.895996,239.460175 
	C264.931976,237.680405 265.684479,235.663696 267.036163,234.200470 
	C271.185059,229.709229 270.136322,225.791504 266.387726,221.730927 
	C265.351135,220.608093 264.992096,218.859756 264.311523,217.375183 
	C269.743469,216.778503 269.743469,216.778503 273.662476,223.179321 
	C275.724487,219.524353 277.303619,214.966949 283.025940,217.582779 
	C281.983368,222.991974 272.724854,227.370987 280.781433,234.407516 
z"/>
<path fill="#000000" opacity="1.000000" stroke="none" 
	d="
M325.966248,236.110535 
	C326.253876,238.850494 325.944061,240.310257 322.947571,240.072174 
	C319.173248,239.772293 315.356995,239.999863 311.280457,239.999863 
	C311.280457,232.388138 311.280457,224.997070 311.280457,217.301544 
	C315.908447,217.301544 320.635742,217.301544 325.755341,217.301544 
	C325.852997,218.558517 325.962036,219.962067 326.101776,221.760559 
	C322.846405,221.760559 319.761963,221.760559 316.319031,221.760559 
	C316.210480,223.286331 316.127045,224.459137 316.026794,225.868286 
	C318.695831,225.868286 320.986145,225.868286 323.637878,225.868286 
	C323.637878,227.582794 323.637878,229.094986 323.637878,230.837112 
	C321.350555,230.837112 319.064545,230.837112 316.388916,230.837112 
	C316.250427,232.191833 316.130188,233.367981 316.003510,234.607224 
	C319.509308,234.972580 322.723114,235.307495 325.966248,236.110535 
z"/>
<path fill="#000000" opacity="1.000000" stroke="none" 
	d="
M340.194763,271.998230 
	C342.959015,271.999786 345.256744,271.999786 347.772583,271.999786 
	C347.772583,273.384064 347.772583,274.458679 347.772583,275.768005 
	C342.695465,275.768005 337.615784,275.768005 332.266357,275.768005 
	C332.266357,268.688751 332.266357,261.630981 332.266357,254.285309 
	C337.276978,254.285309 342.338654,254.285309 347.799988,254.285309 
	C347.879059,255.586441 347.964233,256.987793 348.073639,258.788025 
	C344.811066,258.788025 341.726196,258.788025 338.277985,258.788025 
	C338.186310,260.318970 338.116028,261.492798 338.031586,262.903198 
	C340.732513,262.903198 343.022552,262.903198 345.675476,262.903198 
	C345.777802,264.267456 345.866211,265.445862 345.972168,266.858521 
	C343.316956,266.858521 341.024902,266.858521 337.373383,266.858521 
	C338.346252,268.981232 339.037262,270.488953 340.194763,271.998230 
z"/>
<path fill="#000000" opacity="1.000000" stroke="none" 
	d="
M280.964630,273.075134 
	C280.160126,274.361938 279.362915,275.837463 278.483948,275.887878 
	C274.196167,276.133850 269.886566,275.999207 265.293701,275.999207 
	C265.293701,268.746613 265.293701,261.685913 265.293701,254.311050 
	C270.223694,254.311050 275.284851,254.311050 280.674652,254.311050 
	C280.674652,255.666595 280.674652,257.167603 280.674652,258.904480 
	C277.267548,258.904480 273.982880,258.904480 270.326813,258.904480 
	C270.220184,260.270355 270.128815,261.441132 270.018066,262.859711 
	C273.005768,262.859711 275.627472,262.859711 278.631134,262.859711 
	C278.756897,264.217102 278.865875,265.393494 279.012299,266.974121 
	C275.920288,266.974121 273.165680,266.974121 270.210388,266.974121 
	C270.210388,268.747131 270.210388,270.149719 270.210388,271.648102 
	C273.832703,271.971985 277.383484,272.289459 280.964630,273.075134 
z"/>
<path fill="#000000" opacity="1.000000" stroke="none" 
	d="
M295.639526,217.000687 
	C298.196320,217.652237 301.052795,217.684921 302.225525,219.106552 
	C303.781891,220.993286 305.269226,224.462463 304.516510,226.343369 
	C303.569977,228.708618 300.475647,230.399063 298.010254,231.887268 
	C296.916382,232.547562 295.092590,231.998688 293.213837,231.998688 
	C293.100098,234.478119 292.988922,236.901840 292.862305,239.662689 
	C291.375305,239.662689 289.867310,239.662689 288.186707,239.662689 
	C288.186707,232.195770 288.186707,224.801651 288.186707,217.000076 
	C290.640228,217.000076 292.914978,217.000076 295.639526,217.000687 
M294.481812,222.004852 
	C293.842163,223.476730 293.202484,224.948593 292.387634,226.823578 
	C295.193146,226.823578 296.933411,226.823578 298.856781,226.823578 
	C299.241882,223.912964 299.034912,221.729614 294.481812,222.004852 
z"/>
<path fill="#000000" opacity="1.000000" stroke="none" 
	d="
M428.119019,238.387253 
	C420.266388,242.690063 414.003021,239.073746 414.000061,230.698639 
	C413.999542,229.204987 414.254211,227.658554 413.956818,226.226669 
	C412.522766,219.321747 421.077911,214.629471 426.791992,218.314667 
	C427.457642,218.743973 428.182465,219.081528 429.473755,219.785309 
	C428.220642,221.148621 427.057556,222.413940 425.895538,223.678146 
	C421.635162,220.985992 419.189117,222.186966 419.006683,226.950104 
	C418.962280,228.110123 419.005707,229.273315 418.999359,230.435013 
	C418.978577,234.238083 420.733276,235.713928 424.520569,234.843323 
	C427.638214,234.126663 428.022461,234.518097 428.119019,238.387253 
z"/>
<path fill="#000000" opacity="1.000000" stroke="none" 
	d="
M245.996689,273.949951 
	C245.386002,268.768951 243.770432,263.830902 244.507309,259.273224 
	C245.529800,252.949234 255.241470,251.844833 259.154877,256.952484 
	C258.284424,257.970093 257.364471,259.045563 256.444489,260.121063 
	C256.320557,259.716675 256.196625,259.312286 256.072693,258.907898 
	C254.067551,259.219086 250.371399,259.375977 250.326691,259.866058 
	C249.990341,263.552460 250.274872,267.317444 250.761765,271.005524 
	C250.792709,271.239868 254.142792,271.036011 255.948761,271.036011 
	C256.076508,270.608673 256.204285,270.181335 256.332031,269.753967 
	C257.379303,271.047241 258.426544,272.340515 259.502960,273.669769 
	C254.757355,278.018524 250.427048,277.305450 245.996689,273.949951 
z"/>
<path fill="#000000" opacity="1.000000" stroke="none" 
	d="
M355.876465,181.000000 
	C357.808777,181.000000 359.261200,181.000000 360.796722,181.000000 
	C360.796722,182.840286 360.796722,184.247482 360.796722,186.004059 
	C358.856659,186.004059 357.109528,186.004059 355.024658,186.004059 
	C355.024658,192.092865 355.024658,197.836105 355.024658,203.782639 
	C353.273193,203.782639 351.874603,203.782639 350.104584,203.782639 
	C350.104584,198.011353 350.104584,192.268082 350.104584,186.166763 
	C348.034637,186.067398 346.293060,185.983780 344.224915,185.884491 
	C344.129059,184.400177 344.037628,182.984711 343.909424,181.000000 
	C347.870544,181.000000 351.633575,181.000000 355.876465,181.000000 
z"/>
<path fill="#000000" opacity="1.000000" stroke="none" 
	d="
M321.023987,260.299438 
	C321.002991,265.717865 321.002991,270.661377 321.002991,275.797424 
	C319.243683,275.797424 317.844818,275.797424 316.080353,275.797424 
	C316.080353,270.312592 316.080353,264.901154 316.080353,259.130798 
	C313.996124,259.130798 312.262085,259.130798 310.192322,259.130798 
	C310.108307,257.368164 310.040924,255.954971 309.960388,254.265671 
	C315.551086,254.265671 320.958282,254.265671 326.683960,254.265671 
	C326.683960,255.686203 326.683960,257.189453 326.683960,258.531769 
	C324.686615,258.989685 322.865814,259.407104 321.023987,260.299438 
z"/>
<path fill="#000000" opacity="1.000000" stroke="none" 
	d="
M360.974609,218.290527 
	C360.996887,225.685135 360.996887,232.601547 360.996887,239.756653 
	C358.978394,239.756653 357.248688,239.756653 355.257629,239.756653 
	C355.257629,232.418442 355.257629,225.043182 355.257629,216.855637 
	C357.147369,217.173126 359.049835,217.492737 360.974609,218.290527 
z"/>
<path fill="#FFFFFF" opacity="1.000000" stroke="none" 
	d="
M71.971222,124.484680 
	C77.638817,127.222244 81.633034,133.512817 80.572533,137.887695 
	C78.637032,145.872177 74.860184,148.993759 67.113770,148.999023 
	C60.306816,149.003647 53.499851,149.000000 46.346592,149.000000 
	C46.346592,140.734543 46.346592,132.561432 46.346592,124.172813 
	C54.831730,124.172813 63.256943,124.172813 71.971222,124.484680 
z"/>
<path fill="#FFFFFF" opacity="1.000000" stroke="none" 
	d="
M46.031731,114.791069 
	C46.004162,111.030289 46.004162,107.750381 46.004162,104.001633 
	C54.204189,104.001633 62.130768,103.662842 69.986656,104.257652 
	C71.782829,104.393639 74.080292,107.493202 74.831802,109.680664 
	C76.076637,113.304070 72.863007,115.635292 70.129318,115.739479 
	C62.123547,116.044586 54.085003,115.489822 46.031731,114.791069 
z"/>
<path fill="#FFFFFF" opacity="1.000000" stroke="none" 
	d="
M423.394043,148.597076 
	C423.056244,133.635345 423.056244,119.018837 423.056244,103.532227 
	C433.419769,104.032829 443.586670,103.563217 453.386627,105.239151 
	C465.793365,107.360863 469.148407,121.524696 467.719818,130.288116 
	C467.101624,134.080368 465.297089,137.931458 463.146606,141.167892 
	C458.982452,147.434891 452.627106,149.398438 445.220306,149.065445 
	C438.070099,148.743988 430.895660,148.961517 423.394043,148.597076 
z"/>
<path fill="#FFFFFF" opacity="1.000000" stroke="none" 
	d="
M199.817078,213.000000 
	C195.051880,213.000000 190.760345,213.000000 186.238007,213.000000 
	C186.238007,204.624542 186.238007,196.563614 186.238007,187.936890 
	C193.804092,188.942703 201.628784,185.802582 208.779343,190.293793 
	C214.059769,193.610367 216.183411,198.722000 214.655075,203.871994 
	C213.103241,209.101166 207.982834,212.881531 202.286865,212.998138 
	C201.621765,213.011765 200.956131,213.000000 199.817078,213.000000 
z"/>
<path fill="#FFFFFF" opacity="1.000000" stroke="none" 
	d="
M386.734558,108.244888 
	C390.594666,112.363510 391.958832,116.681763 389.724548,121.717598 
	C387.177582,127.458115 382.026276,129.324387 376.455566,129.902557 
	C371.874512,130.378036 367.204834,129.999557 362.288086,129.999557 
	C362.288086,121.404762 362.288086,113.016617 362.288086,103.910484 
	C370.385437,104.875854 379.089355,101.596771 386.734558,108.244888 
z"/>
<path fill="#FFFFFF" opacity="1.000000" stroke="none" 
	d="
M46.000000,200.005035 
	C46.000000,195.867096 46.000000,192.224991 46.000000,187.589355 
	C53.046280,188.072235 59.969799,187.910538 66.617020,189.187317 
	C72.832199,190.381119 75.875336,196.468643 74.996582,203.251694 
	C74.437874,207.564331 68.389061,212.777420 63.472466,212.969757 
	C59.650135,213.119324 55.817280,212.999908 51.989101,213.000000 
	C50.180958,213.000046 48.372814,213.000000 46.000000,213.000000 
	C46.000000,208.697906 46.000000,204.599396 46.000000,200.005035 
z"/>
<path fill="#FFFFFF" opacity="1.000000" stroke="none" 
	d="
M119.266785,123.309418 
	C121.305679,119.432755 123.112602,115.864517 125.318886,111.507637 
	C128.991776,119.754608 132.344742,127.283257 135.671661,134.753418 
	C128.354980,134.753418 121.281616,134.753418 113.786827,134.753418 
	C115.649879,130.800262 117.342354,127.209045 119.266785,123.309418 
z"/>
<path fill="#FFFFFF" opacity="1.000000" stroke="none" 
	d="
M300.989258,133.091904 
	C304.516144,125.850922 308.005402,119.009445 311.768707,111.630630 
	C315.267517,119.400543 318.598785,126.798355 322.272949,134.957626 
	C314.889343,134.957626 307.880524,134.957626 300.871674,134.957626 
	C300.898315,134.468887 300.924988,133.980164 300.989258,133.091904 
z"/>
<path fill="#FFFFFF" opacity="1.000000" stroke="none" 
	d="
M251.813965,198.994827 
	C250.704361,194.861420 250.050415,190.730362 249.396469,186.599319 
	C249.842270,186.192627 250.288055,185.785934 250.733856,185.379257 
	C252.481262,186.276230 255.196976,186.755768 255.796875,188.147400 
	C257.697449,192.556366 255.704529,197.662476 251.813965,198.994827 
z"/>
<path fill="#FFFFFF" opacity="1.000000" stroke="none" 
	d="
M276.876892,186.023682 
	C277.799835,189.905258 278.281006,193.766479 278.762177,197.627701 
	C277.066620,197.805649 275.371033,197.983612 273.675476,198.161560 
	C273.820557,194.262360 273.930267,190.360626 274.208801,186.470978 
	C274.223694,186.263016 275.660309,186.156860 276.876892,186.023682 
z"/>
<path fill="#FFFFFF" opacity="1.000000" stroke="none" 
	d="
M372.328186,186.303650 
	C375.827454,185.580353 377.310028,186.781693 377.032471,190.100983 
	C376.855072,192.222122 377.302277,194.437546 376.855469,196.476120 
	C376.636627,197.474472 375.097290,198.666992 374.008698,198.838394 
	C373.135162,198.975906 371.184082,197.704361 371.185913,197.062393 
	C371.196075,193.562027 371.662811,190.062958 372.328186,186.303650 
z"/>
<path fill="#FFFFFF" opacity="1.000000" stroke="none" 
	d="
M294.927063,222.002670 
	C299.034912,221.729614 299.241882,223.912964 298.856781,226.823578 
	C296.933411,226.823578 295.193146,226.823578 292.387634,226.823578 
	C293.202484,224.948593 293.842163,223.476730 294.927063,222.002670 
z"/>
</svg>