<svg version="1.1" id="Layer_1" xmlns="http://www.w3.org/2000/svg" xmlns:xlink="http://www.w3.org/1999/xlink" x="0px" y="0px"
	 width="100%" viewBox="0 0 544 339" enable-background="new 0 0 544 339" xml:space="preserve">
<path fill="#FFFFFF" opacity="1.000000" stroke="none" 
	d="
M359.000000,340.000000 
	C240.700012,340.000000 122.900002,339.984985 5.100085,340.079773 
	C1.894658,340.082336 0.888704,339.731934 0.893014,336.102173 
	C1.024198,225.633591 1.017872,115.164803 0.912157,4.696164 
	C0.909043,1.442254 1.808014,0.930880 4.801827,0.932149 
	C183.584534,1.007946 362.367279,1.006595 541.150024,0.941500 
	C544.029907,0.940452 545.099304,1.274846 545.095764,4.647977 
	C544.979919,115.283203 544.981812,225.918594 545.092896,336.553833 
	C545.096069,339.684753 544.281433,340.074402 541.447937,340.070068 
	C480.798737,339.977722 420.149353,340.000000 359.000000,340.000000 
z"/>
<path fill="#BB9255" opacity="1.000000" stroke="none" 
	d="
M526.000000,174.000000 
	C526.000000,134.671585 525.961304,95.843079 526.055603,57.014889 
	C526.065857,52.805958 526.274475,50.247791 520.418945,49.373344 
	C511.942566,48.107510 503.818512,44.563473 495.880127,41.045799 
	C479.268311,33.684689 463.211090,35.859478 446.949524,42.845531 
	C436.148834,47.485569 424.945038,51.705967 412.762787,50.977451 
	C401.460938,50.301582 391.180847,45.855957 380.780640,41.931141 
	C371.518372,38.435745 362.148010,34.927845 352.090454,36.190933 
	C343.305969,37.294147 335.127289,40.906754 326.858734,44.007275 
	C317.342407,47.575684 307.829498,51.175507 297.389008,51.026810 
	C287.327698,50.883522 278.153168,47.325367 268.922424,43.964317 
	C259.088562,40.383671 249.485458,36.090347 238.707214,35.921902 
	C235.652390,35.874157 232.920013,37.199955 229.906448,37.156601 
	C228.526169,37.136742 226.547302,39.361256 226.164536,36.428329 
	C225.893478,34.351421 224.671432,31.481670 228.629028,30.641260 
	C237.295776,28.800846 245.849289,28.944715 254.243088,31.688515 
	C264.026276,34.886497 273.725403,38.344147 283.439240,41.751221 
	C295.246674,45.892612 306.723816,44.178936 318.098907,39.981354 
	C326.993774,36.699009 335.782867,33.140327 345.036743,30.868279 
	C356.618500,28.024675 367.669861,29.869373 378.603027,33.881683 
	C386.895844,36.925037 395.130432,40.203911 403.593597,42.687336 
	C414.978271,46.028019 426.143188,43.729298 436.865417,39.512009 
	C448.452057,34.954731 459.984161,29.802021 472.535522,29.413820 
	C481.468140,29.137545 490.224854,31.653767 498.765778,34.818077 
	C509.144196,38.663147 519.161804,44.046677 530.678345,43.996765 
	C532.402344,43.989292 533.095337,44.712914 532.998718,46.389336 
	C532.941223,47.385620 532.999451,48.388359 532.999451,49.388199 
	C533.000000,139.376801 532.966309,229.365448 533.099548,319.353851 
	C533.106201,323.840942 532.066528,325.113190 527.427490,325.108826 
	C385.778931,324.975464 244.130142,324.982666 102.481499,325.085724 
	C98.335457,325.088745 96.764397,324.445038 96.867439,319.760010 
	C97.215477,303.936340 97.019417,288.100220 96.980141,272.269012 
	C96.974030,269.803802 96.759087,267.853546 100.436005,267.867554 
	C103.932259,267.880890 104.051804,269.499573 104.036896,272.140137 
	C103.957870,286.137909 104.147118,300.138916 103.905670,314.132996 
	C103.837845,318.063599 104.909447,319.090790 108.853317,319.087769 
	C246.335831,318.982544 383.818451,318.978180 521.300903,319.102753 
	C525.526733,319.106567 526.077576,317.621277 526.069336,313.980255 
	C525.964294,267.487030 526.000000,220.993469 526.000000,174.000000 
z"/>
<path fill="#BB9255" opacity="1.000000" stroke="none" 
	d="
M57.999325,97.000000 
	C62.497673,97.000000 66.517151,97.259438 70.490005,96.939659 
	C76.566628,96.450539 81.385780,98.475449 83.836769,104.013664 
	C86.306358,109.593948 85.443497,114.981544 80.216576,119.264832 
	C84.254837,122.219215 87.867584,125.214149 89.202087,130.272476 
	C90.509979,135.229904 90.439499,140.067139 88.920723,144.836090 
	C86.993439,150.887802 79.864799,155.938004 73.399590,155.980286 
	C62.570522,156.051086 51.739189,155.901550 40.912071,156.063141 
	C37.917511,156.107849 36.899311,155.359238 36.927650,152.193176 
	C37.081226,135.033905 37.089630,117.871681 36.922909,100.712654 
	C36.890835,97.411682 38.151680,96.853851 41.007133,96.947746 
	C46.499249,97.128342 52.001514,97.000130 57.999325,97.000000 
z"/>
<path fill="#BB9255" opacity="1.000000" stroke="none" 
	d="
M435.999359,156.000000 
	C429.339569,155.999863 423.176483,155.884201 417.021088,156.051239 
	C414.193665,156.127960 412.890320,155.628052 412.922516,152.306808 
	C413.090332,134.994003 413.047913,117.678444 412.952087,100.364548 
	C412.937683,97.760178 413.721375,96.923965 416.349487,96.950027 
	C428.335205,97.068932 440.374481,96.305168 452.295959,97.188614 
	C465.696686,98.181694 474.558167,106.519135 476.776184,120.613556 
	C478.552521,131.901489 476.323303,142.573532 466.353851,150.204376 
	C461.761169,153.719727 456.643585,155.642059 450.980530,155.946487 
	C446.166382,156.205276 441.327271,155.999969 435.999359,156.000000 
z"/>
<path fill="#BB9255" opacity="1.000000" stroke="none" 
	d="
M225.640732,239.915802 
	C216.313889,241.559143 210.355072,237.365677 205.768829,230.284637 
	C204.172958,227.820633 202.339172,225.507919 200.566345,223.162186 
	C199.121368,221.250275 188.022202,219.855606 186.603531,221.516083 
	C186.060867,222.151230 186.041931,223.352173 186.026947,224.299118 
	C185.966446,228.124603 185.748978,231.972931 186.071442,235.771912 
	C186.385498,239.471695 184.835007,240.130966 181.523270,240.110046 
	C178.286179,240.089630 176.866272,239.572205 176.910400,235.824829 
	C177.114120,218.525101 177.063675,201.221191 176.939606,183.919968 
	C176.918335,180.954407 177.591766,179.732544 180.791092,179.949341 
	C190.829407,180.629547 201.019257,178.597595 210.932632,181.473663 
	C218.368393,183.630951 224.557632,191.366486 224.998108,198.741150 
	C225.547928,207.946167 221.568039,215.526291 213.809555,218.852646 
	C210.886047,220.106064 210.461349,220.846634 212.623413,223.204224 
	C214.943054,225.733643 217.048172,228.482758 219.031677,231.288177 
	C220.088165,232.782471 221.629974,233.813965 223.064926,233.831314 
	C228.345337,233.895142 227.650681,236.569992 225.640732,239.915802 
z"/>
<path fill="#BB9255" opacity="1.000000" stroke="none" 
	d="
M138.000305,68.818161 
	C137.999344,63.173775 137.956833,58.007133 138.016693,52.841675 
	C138.043945,50.489601 137.386414,48.858223 134.686142,49.017822 
	C125.973488,49.532776 117.867126,46.377319 109.565933,44.617409 
	C105.830536,43.825478 102.028191,44.692616 98.338249,43.162025 
	C95.976295,42.182285 96.002373,44.616837 96.002022,46.285030 
	C96.000420,53.950947 95.737694,61.629253 96.098824,69.278084 
	C96.312332,73.800354 93.553734,72.990906 91.001633,72.989037 
	C88.453346,72.987175 85.830811,73.796646 85.896660,69.284508 
	C86.151970,51.789948 86.144112,34.287445 85.899330,16.792583 
	C85.838287,12.429113 88.251266,12.928912 90.924477,12.998613 
	C93.444016,13.064305 96.381775,12.078584 96.080971,16.645432 
	C95.731232,21.955147 96.053940,27.306444 95.975372,32.638084 
	C95.944572,34.727879 96.158981,36.035656 98.849022,36.054607 
	C107.439430,36.115116 115.696945,38.218735 123.952644,40.408428 
	C127.412682,41.326141 131.072495,41.490311 134.641281,41.998558 
	C137.244080,42.369240 138.106216,41.282394 138.051437,38.649761 
	C137.898926,31.320339 138.252731,23.973736 137.908218,16.657385 
	C137.693161,12.090698 140.541809,13.057902 143.062592,13.001493 
	C145.712463,12.942193 148.162842,12.392226 148.101044,16.779585 
	C147.854660,34.274399 147.953064,51.774975 148.048691,69.272743 
	C148.063309,71.949089 147.481232,73.594826 144.519211,72.961334 
	C142.015961,72.425964 137.487259,75.249603 138.000305,68.818161 
z"/>
<path fill="#BB9255" opacity="1.000000" stroke="none" 
	d="
M377.210938,140.730286 
	C373.601166,135.338531 368.390961,137.307297 363.789520,137.059982 
	C361.742737,136.949997 362.026154,138.640671 362.014709,139.923920 
	C361.982086,143.588608 361.818481,147.265457 362.052185,150.915375 
	C362.278809,154.454468 361.729401,156.227966 357.371124,156.183182 
	C353.243225,156.140762 352.908569,154.517822 352.936859,151.163971 
	C353.075897,134.672806 353.106079,118.178619 352.917053,101.688454 
	C352.875610,98.073715 353.636292,96.740181 357.532379,96.903038 
	C365.348389,97.229752 373.195068,97.217125 381.015778,96.952133 
	C394.777924,96.485817 404.319092,111.460121 399.283722,124.232483 
	C396.944031,130.167099 392.976837,134.509186 386.071167,136.445190 
	C391.188171,141.701920 393.381866,149.558716 401.781830,151.093597 
	C403.498657,151.407288 402.859894,152.869247 402.968842,153.922714 
	C403.123871,155.421432 402.335754,155.919891 400.905762,156.005890 
	C394.107635,156.414810 387.710388,156.135635 383.660126,149.257935 
	C381.925690,146.312683 379.550842,143.744553 377.210938,140.730286 
z"/>
<path fill="#BB9255" opacity="1.000000" stroke="none" 
	d="
M37.000000,191.022659 
	C37.000000,180.000000 37.002056,179.872559 47.641750,180.044235 
	C54.892338,180.161224 62.144207,179.434616 69.402687,180.911255 
	C77.210709,182.499680 84.410126,190.429352 85.069389,198.193115 
	C86.075378,210.040070 78.150597,218.238358 70.721085,220.091522 
	C64.302719,221.692490 57.870129,220.929138 51.465645,220.877396 
	C47.314445,220.843872 45.256325,221.554443 45.922443,226.241196 
	C46.339344,229.174469 45.805367,232.231308 46.051079,235.203537 
	C46.334095,238.626999 45.679352,240.249786 41.597393,240.159012 
	C37.885529,240.076492 36.850716,239.155243 36.908314,235.408173 
	C37.133152,220.781448 37.000031,206.149216 37.000000,191.022659 
z"/>
<path fill="#BB9255" opacity="1.000000" stroke="none" 
	d="
M173.010330,73.000000 
	C168.553009,72.774040 163.410538,74.668983 160.934311,72.288147 
	C158.199646,69.658813 160.087326,64.411407 160.050278,60.320103 
	C159.920624,46.004448 160.112427,31.685381 159.919571,17.371149 
	C159.872604,13.885525 160.809464,12.856348 164.341919,12.916908 
	C176.823853,13.130898 189.314926,13.156795 201.795227,12.899296 
	C205.282196,12.827349 206.415222,14.388824 206.931229,17.225624 
	C207.409332,19.854113 206.693558,21.119465 203.606171,21.064825 
	C193.620819,20.888094 183.626038,21.168398 173.644135,20.912081 
	C169.956207,20.817383 168.793472,21.752457 168.900467,25.569387 
	C169.136658,33.993763 168.915802,33.999756 177.266434,34.000092 
	C180.762405,34.000233 184.267685,34.158451 187.751389,33.952129 
	C190.508881,33.788815 191.096970,34.978188 191.063324,37.453651 
	C191.031372,39.804264 190.718674,41.165371 187.846619,41.054226 
	C182.693680,40.854809 177.523499,41.119949 172.368301,40.951942 
	C169.760544,40.866955 168.871307,41.710453 168.950058,44.347733 
	C169.118896,50.002811 169.222031,55.678276 168.920792,61.322376 
	C168.726166,64.968971 169.669525,66.222618 173.539734,66.097450 
	C182.852570,65.796265 192.184708,65.877106 201.501892,66.101341 
	C203.417068,66.147446 206.945908,64.071342 206.992493,68.673111 
	C207.036331,73.000847 204.249420,73.088326 200.976196,73.043556 
	C191.821823,72.918373 182.664627,72.999992 173.010330,73.000000 
z"/>
<path fill="#BB9255" opacity="1.000000" stroke="none" 
	d="
M128.045227,240.000000 
	C119.000000,239.999878 118.999977,239.999878 119.000000,231.353714 
	C119.000046,215.707581 119.097672,200.060349 118.923622,184.416153 
	C118.885628,181.000717 119.699104,179.851440 123.295486,179.914352 
	C135.941681,180.135529 148.597336,180.161575 161.242371,179.909225 
	C165.432175,179.825623 165.569153,182.482697 165.952789,185.172180 
	C166.485931,188.909882 163.598465,187.962799 161.663254,187.973923 
	C151.843124,188.030380 142.020584,188.109528 132.203186,187.936539 
	C129.081039,187.881531 127.883469,188.583496 127.909286,192.007050 
	C127.977097,200.998642 127.798340,200.999985 136.702332,201.000000 
	C139.531952,201.000015 142.362045,200.967896 145.191040,201.010056 
	C147.530380,201.044907 150.088074,200.137680 150.144516,204.384720 
	C150.198746,208.462173 147.964920,208.034058 145.417755,208.011719 
	C140.757568,207.970840 136.093124,208.111023 131.437653,207.957504 
	C128.928787,207.874771 127.868286,208.548294 127.946770,211.277283 
	C128.123749,217.430771 128.125992,223.596451 127.946327,229.749802 
	C127.865707,232.510727 128.995438,233.066757 131.463745,233.041748 
	C141.616043,232.938889 151.770493,232.950668 161.922806,233.053604 
	C163.426086,233.068832 166.194748,231.896957 165.875107,235.073059 
	C165.633316,237.475601 165.536560,240.190048 161.493103,240.091263 
	C150.514099,239.823013 139.524231,239.999710 128.045227,240.000000 
z"/>
<path fill="#BB9255" opacity="1.000000" stroke="none" 
	d="
M135.013535,109.061729 
	C142.050522,124.760864 148.996658,140.087875 156.207901,155.999832 
	C153.334991,155.999832 151.033890,155.849045 148.761581,156.040314 
	C146.263107,156.250610 144.534119,155.508377 144.007980,152.954239 
	C141.844757,142.452866 135.299149,140.515137 125.169464,140.561523 
	C114.707832,140.609451 107.397537,142.263153 104.255264,153.213562 
	C102.838089,158.152222 98.493912,155.325211 95.505211,155.846207 
	C94.916946,154.684036 95.567543,154.049210 95.916573,153.323730 
	C104.604576,135.265594 113.282845,117.202797 121.969833,99.144180 
	C122.947571,97.111626 123.461563,94.752281 126.669510,94.947327 
	C129.800858,95.137688 129.393845,97.628754 130.236023,99.434753 
	C131.696716,102.567039 133.350113,105.609482 135.013535,109.061729 
z"/>
<path fill="#BB9255" opacity="1.000000" stroke="none" 
	d="
M292.952942,131.880707 
	C298.431061,120.101654 303.860596,108.702553 309.295227,97.305908 
	C309.946594,95.940033 310.611847,94.828331 312.551483,94.937912 
	C314.495117,95.047745 315.477386,95.820793 316.258270,97.556236 
	C324.521301,115.919296 332.798431,134.276672 341.233795,152.560806 
	C342.583588,155.486481 341.680908,155.790085 339.013031,156.070450 
	C333.962952,156.601151 330.638062,155.418610 329.290100,149.855988 
	C327.684601,143.230637 323.797607,139.608246 316.151459,140.857895 
	C311.451355,141.626038 306.520416,141.104599 301.698883,140.964401 
	C298.350891,140.867035 296.124481,141.936844 294.869446,145.268295 
	C293.774200,148.175613 292.206879,150.916260 290.711731,153.656097 
	C290.136719,154.709778 289.817047,156.287354 287.976593,155.995102 
	C286.072998,155.692841 283.592255,156.967178 282.358215,155.255478 
	C281.182159,153.624252 283.153748,151.944946 283.923706,150.371109 
	C286.884918,144.318481 289.906647,138.295456 292.952942,131.880707 
z"/>
<path fill="#BB9255" opacity="1.000000" stroke="none" 
	d="
M43.000000,13.000000 
	C52.330185,13.000044 61.160423,12.982200 69.990532,13.008182 
	C74.003448,13.019990 76.311172,15.604978 75.934402,19.433523 
	C75.719986,21.612152 74.081169,20.956852 72.927719,20.967793 
	C66.264023,21.031006 59.590271,21.209322 52.938679,20.918940 
	C49.134972,20.752884 47.817528,21.690489 47.894981,25.783400 
	C48.166019,40.106495 47.871590,54.439804 48.088036,68.764755 
	C48.143597,72.442123 46.849014,73.132240 43.523544,73.111160 
	C40.273788,73.090553 38.852329,72.559937 38.909832,68.813202 
	C39.132256,54.321785 38.882118,39.823284 39.083885,25.331261 
	C39.133373,21.776752 38.088863,20.777822 34.609955,20.922632 
	C28.123514,21.192627 21.616156,21.078342 15.121379,20.940882 
	C13.625770,20.909227 10.612795,22.080667 11.203704,18.987352 
	C11.642113,16.692350 10.461433,12.731987 15.512737,12.911267 
	C24.498222,13.230179 33.503185,13.000322 43.000000,13.000000 
z"/>
<path fill="#BB9255" opacity="1.000000" stroke="none" 
	d="
M194.997879,156.000000 
	C186.349670,155.999878 178.199646,155.912567 170.053345,156.047989 
	C167.284622,156.094009 165.888535,155.714813 165.921783,152.347519 
	C166.092499,135.054276 166.134476,117.756714 165.906647,100.464806 
	C165.850494,96.203003 168.352890,97.087425 170.732010,96.991821 
	C173.184219,96.893288 175.138000,96.726547 175.084839,100.430595 
	C174.874863,115.061729 175.118851,129.699326 174.915649,144.330643 
	C174.865250,147.959610 175.674042,149.192062 179.535126,149.097839 
	C190.825821,148.822311 202.127579,148.999863 213.191238,148.999863 
	C213.830276,155.129852 210.793259,156.693710 205.467026,156.071030 
	C202.185944,155.687454 198.823456,156.000000 194.997879,156.000000 
z"/>
<path fill="#BB9255" opacity="1.000000" stroke="none" 
	d="
M267.698608,149.001404 
	C270.837097,148.644867 271.329803,150.247086 270.940216,152.322189 
	C270.615326,154.052811 270.358063,156.000107 267.819489,155.996750 
	C254.008347,155.978439 240.197098,155.961349 226.386139,156.013351 
	C224.246658,156.021393 223.985886,154.886032 223.988373,153.173309 
	C224.014099,135.368530 224.011002,117.563690 223.999405,99.758873 
	C223.996414,95.198280 227.454010,97.473076 229.450775,97.043060 
	C232.303299,96.428757 233.077057,97.871094 233.054443,100.644241 
	C232.936417,115.120102 233.124893,129.599243 232.915359,144.073029 
	C232.860428,147.867554 233.694382,149.237839 237.783035,149.103867 
	C247.590103,148.782532 257.414825,149.000183 267.698608,149.001404 
z"/>
<path fill="#BB9255" opacity="1.000000" stroke="none" 
	d="
M107.000000,222.998383 
	C106.998924,227.986023 106.832619,232.481857 107.045670,236.959641 
	C107.238525,241.012695 104.393463,240.105957 102.348564,239.912933 
	C100.337585,239.723145 96.963310,241.761337 96.978928,237.143921 
	C97.040215,219.026047 96.990463,200.907806 97.013214,182.789749 
	C97.019440,177.836700 100.841354,180.577377 102.923546,180.076294 
	C105.547997,179.444717 107.133934,180.171356 107.080399,183.604218 
	C106.878250,196.566315 106.999687,209.533447 107.000000,222.998383 
z"/>
<path fill="#BB9255" opacity="1.000000" stroke="none" 
	d="
M406.080566,190.659973 
	C406.831970,187.961029 407.496582,185.623566 408.042755,183.258759 
	C408.619873,180.760117 410.526245,180.873901 412.352356,181.056763 
	C414.747528,181.296600 414.097382,183.130280 413.740814,184.455139 
	C412.260223,189.956360 410.547607,195.396408 409.134888,200.913910 
	C408.663422,202.755280 408.113525,204.004623 405.998810,203.985886 
	C403.910614,203.967392 403.285553,202.839478 402.923950,200.899551 
	C402.450439,198.358978 401.453033,195.916046 400.630585,193.268951 
	C398.591522,195.956650 398.176147,199.129562 397.178497,202.011780 
	C396.597839,203.689270 395.882874,203.977676 394.423370,204.018631 
	C392.807556,204.063995 392.263580,203.441147 391.842438,201.827545 
	C390.078064,195.066376 388.060181,188.371323 386.132355,181.642303 
	C392.376038,180.395126 391.106964,179.171021 394.499481,191.561722 
	C395.944916,189.387039 396.564728,187.066544 397.042969,184.656738 
	C397.386536,182.925354 397.647552,181.159821 400.167999,180.952332 
	C402.931610,180.724823 402.840057,182.404907 403.205780,184.276749 
	C403.671173,186.658844 404.570099,188.956406 405.294830,191.286469 
	C405.309113,191.332489 405.507690,191.377625 405.571716,191.340179 
	C405.711639,191.258286 405.820251,191.122940 406.080566,190.659973 
z"/>
<path fill="#BB9255" opacity="1.000000" stroke="none" 
	d="
M295.982483,189.632965 
	C296.362762,190.237457 295.842285,192.459595 296.902252,190.724426 
	C298.318390,188.406204 299.221802,185.676926 299.846588,183.007446 
	C300.264801,181.220428 301.113770,181.009171 302.573212,180.985291 
	C304.165527,180.959229 304.781677,181.470413 305.090790,183.192169 
	C305.592712,185.988022 306.653503,188.683578 307.511322,191.530838 
	C309.273224,189.124069 309.473297,186.295502 309.969482,183.618011 
	C310.497192,180.770432 312.502838,180.708527 314.467804,181.108139 
	C316.996582,181.622467 315.930511,183.483414 315.500763,185.020569 
	C314.011841,190.346771 312.442749,195.653824 311.118011,201.020935 
	C310.650604,202.914536 309.964600,204.038422 307.893738,203.984177 
	C305.777222,203.928757 305.271820,202.695862 304.917389,200.799271 
	C304.450195,198.299301 303.441956,195.900467 302.625549,193.329880 
	C300.700714,195.728729 300.529663,198.625320 299.444153,201.153412 
	C298.806274,202.638931 298.705505,204.084671 296.339783,204.097336 
	C293.719971,204.111359 293.870514,202.152054 293.485291,200.837036 
	C291.613831,194.448166 289.957397,187.996292 288.208801,181.507339 
	C292.262085,179.880569 294.321411,181.442062 294.994080,185.488510 
	C295.205841,186.762192 295.635956,187.999557 295.982483,189.632965 
z"/>
<path fill="#BB9255" opacity="1.000000" stroke="none" 
	d="
M303.105164,275.970581 
	C300.431671,276.419495 299.063904,275.396118 297.934692,273.503937 
	C296.348999,270.846741 294.518463,268.335632 291.999573,264.579468 
	C291.999573,267.888672 292.061401,270.051178 291.979553,272.208252 
	C291.916565,273.867645 292.709534,275.968323 289.620819,276.044220 
	C286.672394,276.116669 286.997894,274.278625 286.999451,272.445496 
	C287.003632,267.461792 286.944550,262.476990 287.039642,257.495087 
	C287.064148,256.212158 286.208252,254.264984 288.647461,254.050888 
	C290.319916,253.904083 291.877411,253.889130 292.937988,255.696213 
	C294.502075,258.361237 296.287384,260.896423 299.022095,263.462433 
	C299.022095,260.982330 299.052734,258.501709 299.012238,256.022247 
	C298.980682,254.088730 300.235474,253.914658 301.663666,254.019333 
	C303.028503,254.119370 304.966217,253.455811 304.956848,255.854584 
	C304.931580,262.316864 304.826569,268.779053 304.682220,275.239655 
	C304.676727,275.484955 303.935059,275.713837 303.105164,275.970581 
z"/>
<path fill="#BB9255" opacity="1.000000" stroke="none" 
	d="
M330.229126,187.744904 
	C331.436371,189.456009 332.393402,190.894318 334.010345,193.324371 
	C334.010345,189.251846 334.050598,186.337875 333.994476,183.425751 
	C333.963379,181.811371 334.470459,180.987122 336.256409,180.981659 
	C338.039307,180.976227 339.051544,181.352936 339.020050,183.439194 
	C338.934814,189.091919 339.054413,194.747864 338.954559,200.400085 
	C338.932098,201.671860 339.860229,203.655899 337.450897,203.931870 
	C335.610382,204.142685 334.060364,204.035553 332.899628,201.941696 
	C331.106934,198.707916 328.787384,195.766251 325.999756,191.689301 
	C325.999756,195.190369 326.060425,197.580612 325.980072,199.966125 
	C325.918884,201.782791 326.783600,204.136337 323.354340,204.037094 
	C320.259064,203.947510 321.047119,201.820053 321.025421,200.175491 
	C320.957306,195.021210 320.934235,189.863998 321.047272,184.711288 
	C321.075348,183.431702 320.126709,181.502136 322.436920,181.069916 
	C324.342987,180.713303 326.120575,181.044662 327.257141,182.815018 
	C328.227661,184.326782 329.076355,185.916733 330.229126,187.744904 
z"/>
<path fill="#BB9255" opacity="1.000000" stroke="none" 
	d="
M434.058167,181.025116 
	C437.036316,180.739288 437.017822,182.416351 437.008575,184.184341 
	C436.979919,189.663849 437.041504,195.144196 436.964386,200.622757 
	C436.947968,201.789398 437.674927,203.540909 435.724823,203.874329 
	C433.949493,204.177872 432.220398,204.271545 431.013428,202.204483 
	C429.120117,198.962021 426.906464,195.906631 423.996674,191.517181 
	C423.996674,195.529999 423.965027,198.336792 424.008698,201.142426 
	C424.034363,202.792801 423.875610,203.980392 421.684906,204.041290 
	C419.322662,204.106979 418.949707,202.975433 418.977020,201.009232 
	C419.050903,195.696671 418.918396,190.380234 419.056061,185.070221 
	C419.092255,183.674423 417.934845,181.553787 420.567169,181.049133 
	C422.769531,180.626923 424.626740,181.362274 425.624664,183.308762 
	C427.256134,186.490936 429.087463,189.504745 432.002533,192.824783 
	C432.002533,189.490433 431.957123,186.779404 432.023132,184.071121 
	C432.052826,182.854752 431.555786,181.247620 434.058167,181.025116 
z"/>
<path fill="#BB9255" opacity="1.000000" stroke="none" 
	d="
M332.015442,219.279480 
	C334.628601,216.264267 343.205566,216.170044 346.298767,218.909470 
	C349.606659,221.839035 350.169586,225.579178 347.324493,228.963531 
	C345.412292,231.238235 346.359161,232.837662 347.338440,234.715363 
	C348.146393,236.264603 349.079620,237.748520 350.036804,239.398376 
	C341.777863,242.369049 342.517578,234.113434 338.958069,231.021332 
	C337.260681,232.664597 338.058624,234.734985 338.066040,236.505920 
	C338.075958,238.882706 337.665527,240.135818 334.829285,240.080841 
	C332.158234,240.029068 331.948700,238.728470 331.976318,236.656998 
	C332.051361,231.022568 332.003204,225.386505 332.015442,219.279480 
z"/>
<path fill="#BB9255" opacity="1.000000" stroke="none" 
	d="
M406.687195,239.345459 
	C403.893127,240.615143 402.185547,239.663788 400.826630,237.375977 
	C399.262695,234.743073 397.442719,232.262253 394.994995,228.613968 
	C394.994995,232.306671 394.930206,234.839462 395.016449,237.367081 
	C395.079987,239.229858 394.438171,240.034454 392.458893,240.035950 
	C390.403656,240.037506 389.967316,239.061722 389.984283,237.282944 
	C390.038116,231.637161 389.957825,225.989899 390.037964,220.344727 
	C390.054382,219.188034 389.311981,217.525711 391.280640,217.077621 
	C392.923523,216.703690 394.241272,217.374649 395.152618,218.699554 
	C397.160126,221.618027 399.093109,224.587738 402.000122,227.404068 
	C402.000122,225.372543 401.858215,223.327942 402.043976,221.313568 
	C402.198883,219.633698 400.848083,217.104782 404.356689,216.971909 
	C407.785248,216.842072 406.967407,219.216599 406.976318,221.028748 
	C407.005768,227.005554 406.934052,232.982895 406.687195,239.345459 
z"/>
<path fill="#BB9255" opacity="1.000000" stroke="none" 
	d="
M354.002380,257.221985 
	C354.039337,256.247131 353.881256,255.586273 354.141235,255.278244 
	C355.738586,253.385651 366.203796,253.460129 368.649261,255.318344 
	C371.588501,257.551727 371.908356,261.650574 369.064056,265.338196 
	C367.770996,267.014679 368.049164,268.219788 368.920227,269.809601 
	C369.939178,271.669373 370.736206,273.650665 371.616241,275.550629 
	C366.462036,277.425720 364.232910,274.812347 362.772339,270.541504 
	C362.429108,269.537933 362.089294,267.665009 360.195496,268.112152 
	C358.258087,268.569580 359.217560,270.265442 359.025085,271.434601 
	C358.891388,272.246735 358.952026,273.098206 358.987946,273.929443 
	C359.070557,275.841492 357.858551,275.979431 356.384979,276.009583 
	C354.720276,276.043640 353.978485,275.418640 353.993927,273.694946 
	C354.041504,268.363434 354.004669,263.031097 354.002380,257.221985 
z"/>
<path fill="#BB9255" opacity="1.000000" stroke="none" 
	d="
M248.111786,203.997070 
	C245.282501,204.266418 244.957443,202.874573 244.979752,200.944550 
	C245.045120,195.288208 244.993225,189.630569 245.013229,183.973526 
	C245.016663,183.007523 244.802582,181.923950 245.771942,181.233826 
	C249.608841,178.502182 259.709839,182.027298 261.204437,186.608124 
	C263.679047,194.192505 261.410492,201.444748 255.961548,203.522751 
	C253.529861,204.450073 251.031052,203.773651 248.111786,203.997070 
z"/>
<path fill="#BB9255" opacity="1.000000" stroke="none" 
	d="
M382.993347,190.305283 
	C383.066162,193.047745 382.624115,195.249512 382.127960,197.522888 
	C381.189331,201.823700 378.376984,203.578964 374.523865,203.937653 
	C370.480408,204.314026 367.569489,202.287292 366.030365,198.553223 
	C364.325378,194.416748 364.715668,190.230362 366.041199,186.050201 
	C367.291504,182.107254 370.087158,180.931503 373.993195,180.937164 
	C377.920929,180.942871 380.556122,182.491364 381.936371,186.119141 
	C382.396667,187.329025 382.643829,188.619995 382.993347,190.305283 
z"/>
<path fill="#BB9255" opacity="1.000000" stroke="none" 
	d="
M269.313904,183.361832 
	C277.279541,178.042297 284.735352,181.719177 285.031555,191.318222 
	C285.125000,194.346268 284.715118,197.392670 283.340759,199.882599 
	C281.801697,202.670868 278.979279,204.378525 275.434814,203.994217 
	C271.873657,203.608047 269.305084,201.887512 267.994659,198.458237 
	C266.047943,193.363724 266.863617,188.481583 269.313904,183.361832 
z"/>
<path fill="#BB9255" opacity="1.000000" stroke="none" 
	d="
M257.669495,217.012238 
	C260.861481,217.288773 260.004425,219.341675 259.828339,220.796295 
	C259.626129,222.466339 258.022919,221.712677 257.010590,222.016846 
	C254.719864,222.705215 250.521408,220.199463 250.339584,223.681366 
	C250.105942,228.155380 254.554062,225.391205 256.856781,225.914520 
	C258.568970,226.303665 259.009430,226.965591 259.012299,228.511322 
	C259.015228,230.075027 258.625305,231.084549 256.810272,230.995865 
	C255.649719,230.939178 254.478210,230.927841 253.321381,231.019394 
	C251.977325,231.125793 250.130051,230.404907 250.039597,232.857529 
	C249.934860,235.697189 252.055511,234.864136 253.537872,234.978317 
	C254.860184,235.080185 256.201355,235.082382 257.524750,234.991425 
	C259.562561,234.851318 260.052216,235.870743 260.020935,237.705948 
	C259.991364,239.441818 259.263824,240.119293 257.613068,239.990814 
	C257.448029,239.977966 257.280060,239.985168 257.114655,239.998352 
	C244.999969,240.963806 244.999985,240.963928 245.000000,228.953049 
	C245.000015,216.991409 245.000015,216.991409 257.669495,217.012238 
z"/>
<path fill="#BB9255" opacity="1.000000" stroke="none" 
	d="
M380.671692,239.987457 
	C368.000000,240.009003 368.000000,240.009003 368.000000,228.047836 
	C368.000000,216.038223 367.998291,216.061035 380.115082,216.975616 
	C381.727203,217.097290 382.974365,217.077972 383.040344,219.291275 
	C383.110291,221.637100 381.963501,221.818222 380.042816,222.092529 
	C377.702972,222.426743 373.540833,220.223373 373.339966,223.658371 
	C373.075989,228.173172 377.536499,225.384506 379.832153,225.913208 
	C381.522797,226.302582 382.015839,226.920593 382.012268,228.486221 
	C382.008759,230.030014 381.669464,231.067734 379.835693,230.997162 
	C378.342224,230.939697 376.844086,231.015167 375.348145,231.008026 
	C374.081421,231.001968 373.096954,231.186142 373.019531,232.830902 
	C372.929810,234.736786 374.002197,235.030685 375.513336,234.999023 
	C377.008698,234.967667 378.509735,234.930817 379.999969,235.026108 
	C381.054962,235.093567 382.624390,234.530334 382.827759,236.198547 
	C383.004944,237.651672 383.864166,239.705597 380.671692,239.987457 
z"/>
<path fill="#BB9255" opacity="1.000000" stroke="none" 
	d="
M446.828613,235.002075 
	C449.559265,234.739853 450.094635,235.918854 450.014862,237.965286 
	C449.938995,239.911057 448.770782,240.018463 447.352753,239.995102 
	C447.020355,239.989624 446.687469,239.989334 446.355255,240.000549 
	C435.000000,240.383682 435.000000,240.383926 435.000000,229.188126 
	C435.000000,228.689331 435.000000,228.190552 435.000000,227.691757 
	C435.000000,215.752426 435.216766,215.617538 447.479156,216.950607 
	C449.413513,217.160889 450.020111,217.770218 450.031128,219.653259 
	C450.043823,221.827469 448.845123,222.059540 447.166046,222.008881 
	C445.505188,221.958725 443.841095,222.025787 442.178711,222.010910 
	C440.815216,221.998734 440.017761,222.440689 440.020294,224.004288 
	C440.022827,225.568100 440.823059,226.007309 442.185303,225.989517 
	C443.515045,225.972153 444.847076,226.042374 446.174988,225.991943 
	C447.860870,225.927887 448.983521,226.190964 449.043274,228.350784 
	C449.109741,230.753860 447.897003,231.134338 445.971100,231.009048 
	C444.977875,230.944443 443.976715,230.999954 442.979156,231.003204 
	C441.458191,231.008148 439.891846,230.842987 440.024475,233.200363 
	C440.141266,235.276291 441.605560,234.944092 442.879791,234.988312 
	C444.042297,235.028671 445.207184,234.999207 446.828613,235.002075 
z"/>
<path fill="#BB9255" opacity="1.000000" stroke="none" 
	d="
M276.448914,218.141312 
	C278.474365,216.336166 280.474121,217.140930 282.729279,217.179474 
	C282.725433,220.633209 280.221100,222.901001 278.699341,225.296173 
	C277.051361,227.890030 276.949493,229.327515 278.814209,231.738327 
	C280.550537,233.983154 282.378784,236.424652 282.827576,239.468750 
	C277.922211,240.260986 277.922211,240.260986 273.628174,234.290222 
	C272.418030,236.010605 271.476135,237.913651 270.021820,239.265289 
	C268.431213,240.743500 266.281555,239.983795 264.179382,239.678177 
	C264.274139,237.459137 265.780609,235.846680 266.953583,234.574402 
	C271.272736,229.889587 270.084229,225.864899 266.369110,221.652115 
	C265.434845,220.592697 265.088257,219.015015 264.468292,217.668350 
	C269.972626,214.956985 271.276978,219.776855 273.570374,222.719772 
	C275.089783,221.538971 275.512268,219.905777 276.448914,218.141312 
z"/>
<path fill="#BB9255" opacity="1.000000" stroke="none" 
	d="
M318.234680,231.013702 
	C315.768280,231.117462 315.893768,232.526123 316.153809,233.868439 
	C316.416656,235.225098 317.631866,234.946136 318.562500,234.977432 
	C320.390198,235.038879 322.221100,235.035202 324.050171,235.014114 
	C325.600067,234.996231 326.029480,235.856155 325.991425,237.234467 
	C325.953857,238.595352 326.094574,239.994125 324.082520,239.984177 
	C320.423737,239.966064 316.764435,239.949112 313.106049,239.991196 
	C311.231598,240.012756 310.994141,238.873932 310.999481,237.394791 
	C311.021088,231.407425 311.001709,225.419922 311.021576,219.432541 
	C311.024780,218.462326 310.935150,217.179642 312.287994,217.145416 
	C316.439606,217.040298 320.600250,216.983658 324.747162,217.155579 
	C326.384308,217.223450 325.887543,218.859406 325.970886,219.938858 
	C326.086517,221.437302 325.292511,222.003021 323.877472,221.990509 
	C321.882050,221.972855 319.886108,222.011505 317.890411,222.021332 
	C316.708679,222.027161 316.086121,222.537292 316.031403,223.794037 
	C315.969391,225.218140 316.460876,226.022293 317.980469,225.980865 
	C318.312653,225.971802 318.667206,225.917603 318.974579,226.008682 
	C320.817169,226.554504 324.156311,224.390396 323.970001,228.649719 
	C323.785767,232.862213 320.475006,230.282211 318.234680,231.013702 
z"/>
<path fill="#BB9255" opacity="1.000000" stroke="none" 
	d="
M339.366943,271.918091 
	C341.975983,271.997803 344.136780,272.014008 346.297424,272.043457 
	C347.575073,272.060852 347.955383,272.827209 347.962524,273.983276 
	C347.969666,275.134857 347.612244,275.938354 346.330231,275.945435 
	C342.174744,275.968353 338.019104,275.971619 333.863525,275.969666 
	C331.844330,275.968719 332.012054,274.478668 332.009003,273.153625 
	C331.996765,267.833588 332.083099,262.511749 331.965210,257.194275 
	C331.914795,254.920288 332.523895,253.838928 335.014404,253.962723 
	C338.331238,254.127594 341.663940,254.062820 344.986908,253.979721 
	C346.932983,253.931076 348.111847,254.277924 348.042358,256.668427 
	C347.979034,258.846832 346.820007,259.055359 345.153198,259.008301 
	C343.492249,258.961395 341.828461,259.026184 340.166199,259.011047 
	C338.794586,258.998566 338.010773,259.457733 338.021057,261.016785 
	C338.031403,262.583374 338.845276,263.024353 340.201935,262.985931 
	C340.533997,262.976501 340.902527,262.900543 341.193268,263.013000 
	C342.781952,263.627380 345.722565,261.492676 345.877380,264.880188 
	C346.037659,268.387939 343.025604,266.885498 341.445160,266.915009 
	C337.165283,266.994934 337.186768,268.900940 339.366943,271.918091 
z"/>
<path fill="#BB9255" opacity="1.000000" stroke="none" 
	d="
M276.737061,263.013123 
	C278.807739,263.020416 279.006561,264.065948 278.964325,265.359192 
	C278.920013,266.715240 278.041046,266.953400 276.960999,266.980164 
	C276.462280,266.992523 275.916046,266.862152 275.472595,267.021973 
	C273.558441,267.711853 269.776794,265.091461 270.076782,269.704254 
	C270.360138,274.061493 273.919952,271.275208 275.901764,271.940643 
	C276.952606,272.293427 278.209290,272.018677 279.372101,272.056335 
	C280.673035,272.098450 280.970795,272.927094 280.961945,274.060028 
	C280.952759,275.237762 280.509216,275.955963 279.252411,275.958588 
	C275.095245,275.967316 270.938049,275.974213 266.780884,275.966125 
	C265.139191,275.962921 265.010742,274.809906 265.011078,273.568359 
	C265.012573,267.913910 265.054138,262.258850 264.982849,256.605286 
	C264.958710,254.690399 265.689819,253.939423 267.605560,253.983521 
	C271.262390,254.067749 274.924652,254.084641 278.580475,253.981796 
	C280.688263,253.922516 281.014984,255.002228 281.016937,256.763672 
	C281.018951,258.572083 280.147644,259.054993 278.553345,259.002899 
	C276.892181,258.948639 275.221741,258.912140 273.566345,259.026428 
	C272.096405,259.127899 269.916443,258.266418 270.052246,261.113861 
	C270.185974,263.917908 272.378540,262.742737 273.797089,262.975708 
	C274.606995,263.108734 275.456268,263.002075 276.737061,263.013123 
z"/>
<path fill="#BB9255" opacity="1.000000" stroke="none" 
	d="
M299.738281,217.985321 
	C304.071198,219.025681 305.366211,221.996185 304.875488,225.497879 
	C304.348846,229.255981 301.772095,232.039749 297.911469,231.852005 
	C293.515686,231.638214 292.386383,233.319168 292.974762,237.223694 
	C293.229736,238.915649 292.736389,239.983185 290.622955,240.042755 
	C288.212189,240.110733 287.959625,238.863556 287.981232,236.964981 
	C288.041565,231.669174 288.185822,226.363358 287.932343,221.078979 
	C287.775665,217.812485 288.825745,216.603958 292.091034,216.956116 
	C294.515900,217.217606 297.035156,216.694550 299.738281,217.985321 
z"/>
<path fill="#BB9255" opacity="1.000000" stroke="none" 
	d="
M427.333862,222.164001 
	C426.364441,222.897079 426.092255,223.878082 424.691101,223.244522 
	C420.822937,221.495544 419.206268,222.675217 419.000885,227.037903 
	C418.676453,233.929214 418.875488,234.140778 425.628418,234.197800 
	C427.397705,234.212753 428.556976,235.493881 428.733276,236.848358 
	C428.936371,238.408569 427.434998,239.576859 425.982147,239.864624 
	C419.729065,241.103073 413.127808,238.789734 413.964111,231.229889 
	C414.199768,229.100006 413.919678,226.918259 414.021393,224.767166 
	C414.170532,221.612411 415.391052,219.328476 418.574554,217.908295 
	C422.246185,216.270340 425.308411,217.246521 428.253021,219.196533 
	C429.854614,220.257202 428.134094,221.072250 427.333862,222.164001 
z"/>
<path fill="#BB9255" opacity="1.000000" stroke="none" 
	d="
M253.745605,276.949066 
	C244.472000,274.886810 240.594177,266.102905 244.984741,258.032410 
	C246.960876,254.399979 253.058640,252.344116 256.623962,254.361526 
	C257.697571,254.969025 259.687653,255.923569 258.509094,257.781616 
	C257.721588,259.023193 256.756287,260.768677 254.550034,259.259949 
	C252.987488,258.191376 250.986267,257.923492 250.108536,260.111572 
	C248.731995,263.543182 248.106766,267.138611 250.276169,270.544037 
	C251.611450,272.640076 253.120468,272.209747 254.821014,270.763306 
	C256.938751,268.962036 257.794464,271.266937 258.624664,272.400940 
	C259.664581,273.821411 258.664917,274.774445 257.231995,275.364166 
	C256.168793,275.801758 255.169022,276.393494 253.745605,276.949066 
z"/>
<path fill="#BB9255" opacity="1.000000" stroke="none" 
	d="
M355.079224,187.404816 
	C355.013245,192.337097 354.963898,196.809647 355.015442,201.281006 
	C355.035828,203.047409 354.610840,204.036896 352.553925,204.034668 
	C350.593964,204.032562 349.946930,203.262283 349.982727,201.388718 
	C350.058685,197.414993 349.891602,193.434662 350.039215,189.465027 
	C350.129669,187.031586 349.576080,185.602417 346.799103,185.990845 
	C344.628937,186.294357 343.922119,185.284897 343.971161,183.143616 
	C344.024811,180.800659 345.522278,181.009613 347.015503,181.005417 
	C350.493805,180.995636 353.973480,180.945251 357.449890,181.027359 
	C358.933136,181.062378 360.861603,180.330017 361.030060,183.104568 
	C361.190582,185.748566 359.876587,186.163223 357.738647,186.028183 
	C356.797729,185.968735 355.707947,185.811066 355.079224,187.404816 
z"/>
<path fill="#BB9255" opacity="1.000000" stroke="none" 
	d="
M316.104065,254.000000 
	C319.230835,254.003113 321.879883,254.041733 324.527466,253.995850 
	C326.081360,253.968918 327.026855,254.357910 327.012939,256.188843 
	C327.000061,257.885010 326.791504,259.298828 324.659027,258.967377 
	C320.732361,258.357086 320.904541,260.856995 320.978973,263.493988 
	C321.067719,266.636505 320.952393,269.784393 321.015045,272.928192 
	C321.052155,274.789276 320.849823,276.072205 318.412445,276.046204 
	C315.839539,276.018738 315.987732,274.455597 315.997589,272.754547 
	C316.012970,270.106171 316.020569,267.457489 315.994659,264.809265 
	C315.965546,261.832489 317.030853,258.103271 311.667389,258.917603 
	C310.038727,259.164886 310.013733,257.698364 310.015350,256.511047 
	C310.016998,255.332825 309.968414,254.096680 311.654816,254.050705 
	C312.977905,254.014633 314.302032,254.015549 316.104065,254.000000 
z"/>
<path fill="#BB9255" opacity="1.000000" stroke="none" 
	d="
M357.086060,239.978012 
	C355.318695,239.907257 355.022034,239.032578 355.020752,237.942917 
	C355.013489,231.801529 355.086517,225.658768 354.973236,219.519424 
	C354.927155,217.023087 356.353058,216.973373 358.166199,216.983261 
	C359.844421,216.992416 361.043640,217.192398 361.015137,219.353333 
	C360.934204,225.493668 360.951630,231.636002 360.999969,237.777008 
	C361.021210,240.475098 359.111206,239.909698 357.086060,239.978012 
z"/>
<path fill="#FFFFFF" opacity="1.000000" stroke="none" 
	d="
M58.004745,124.000000 
	C63.831753,124.616760 69.414581,122.548477 74.523010,125.820091 
	C77.951103,128.015533 81.353905,134.252960 80.613335,137.794510 
	C79.169044,144.701431 75.274765,148.769531 69.384338,148.950089 
	C62.728828,149.154114 56.060204,148.902267 49.401569,149.046616 
	C46.842083,149.102097 45.870144,148.368286 45.947838,145.683609 
	C46.121197,139.693069 46.116249,133.690796 45.948681,127.699883 
	C45.872646,124.981415 46.547222,123.697723 49.520653,123.953461 
	C52.165752,124.180962 54.845943,124.000443 58.004745,124.000000 
z"/>
<path fill="#FFFFFF" opacity="1.000000" stroke="none" 
	d="
M73.775558,113.697014 
	C71.643242,115.554260 69.530281,116.088020 67.104950,116.035439 
	C61.807095,115.920563 56.502941,116.083588 51.205902,115.951241 
	C49.520512,115.909134 46.804798,117.011658 46.326622,114.970215 
	C45.552395,111.664864 45.501923,108.052856 46.439178,104.691383 
	C46.766727,103.516624 48.504337,104.026741 49.611359,104.019630 
	C55.739628,103.980278 61.868507,103.967445 67.996742,104.009216 
	C74.259865,104.051903 76.194588,107.084259 73.775558,113.697014 
z"/>
<path fill="#FFFFFF" opacity="1.000000" stroke="none" 
	d="
M464.364166,140.093338 
	C458.913727,147.452698 451.800140,149.661942 443.287933,149.073532 
	C437.660706,148.684540 431.981232,148.878723 426.332428,149.050613 
	C423.679901,149.131348 422.930664,148.204880 422.952515,145.623962 
	C423.061005,132.820068 422.994873,120.014755 423.013184,107.209969 
	C423.015228,105.780571 422.645966,103.930710 424.999329,104.040260 
	C434.729767,104.493187 444.616425,102.533463 454.180267,105.184715 
	C465.423645,108.301582 469.264130,121.487473 467.644470,130.560806 
	C467.079163,133.727661 465.657654,136.741638 464.364166,140.093338 
z"/>
<path fill="#FFFFFF" opacity="1.000000" stroke="none" 
	d="
M212.881104,207.603485 
	C208.617233,212.848297 203.163116,213.169571 197.339798,213.061584 
	C186.002731,212.851364 185.898956,212.998642 186.050720,201.636002 
	C186.109802,197.212540 184.013367,191.176819 187.015564,188.804626 
	C189.824341,186.585266 195.610794,188.291183 200.064438,187.964966 
	C210.151825,187.226089 219.234772,197.210312 212.881104,207.603485 
z"/>
<path fill="#FFFFFF" opacity="1.000000" stroke="none" 
	d="
M365.207550,104.002518 
	C370.603729,104.351479 375.495087,103.738258 380.478577,104.816528 
	C386.439758,106.106339 390.046295,111.189362 390.899078,116.514938 
	C391.637970,121.129433 387.067108,126.681152 381.849762,128.655731 
	C376.045380,130.852448 370.062286,129.688843 364.156433,129.979095 
	C361.863770,130.091797 362.003754,128.464066 362.003601,126.944847 
	C362.002899,120.290100 362.049438,113.634850 361.975677,106.980919 
	C361.953400,104.969406 362.442474,103.734161 365.207550,104.002518 
z"/>
<path fill="#FFFFFF" opacity="1.000000" stroke="none" 
	d="
M70.124893,190.664032 
	C75.059723,194.718246 76.423851,199.785950 74.255104,205.040146 
	C72.025284,210.442337 67.363693,213.169983 61.266823,213.018539 
	C57.285889,212.919647 53.293644,212.855911 49.319572,213.047836 
	C46.657581,213.176392 45.887222,212.190384 45.953037,209.621140 
	C46.105991,203.649994 46.113480,197.669174 45.949722,191.698578 
	C45.875793,189.003189 46.521259,187.735428 49.498531,187.961258 
	C56.320415,188.478714 63.411167,186.633179 70.124893,190.664032 
z"/>
<path fill="#FFFFFF" opacity="1.000000" stroke="none" 
	d="
M119.705971,122.681786 
	C121.572365,119.012192 123.234093,115.659737 125.060173,111.975716 
	C127.951797,115.592087 128.622849,119.689560 130.529358,123.192986 
	C132.469666,126.758530 133.841446,130.633453 135.610077,134.714142 
	C128.350937,134.714142 121.371170,134.714142 113.742462,134.714142 
	C115.788345,130.552200 117.644821,126.775566 119.705971,122.681786 
z"/>
<path fill="#FFFFFF" opacity="1.000000" stroke="none" 
	d="
M317.010651,123.050995 
	C318.688904,126.991936 320.275757,130.559280 322.067474,134.587128 
	C314.760315,134.587128 307.750793,134.587128 300.270752,134.587128 
	C303.970215,127.143143 307.670898,119.696663 311.504181,111.983353 
	C314.315765,115.273911 314.578857,119.515198 317.010651,123.050995 
z"/>
<path fill="#FFFFFF" opacity="1.000000" stroke="none" 
	d="
M338.014771,224.903595 
	C337.783020,222.526016 338.683655,221.792145 340.610321,222.025055 
	C342.124329,222.208069 343.062408,223.253220 343.510010,224.420715 
	C343.679382,224.862427 342.570618,226.188309 341.794434,226.512527 
	C340.381226,227.102829 338.526581,228.002853 338.014771,224.903595 
z"/>
<path fill="#FFFFFF" opacity="1.000000" stroke="none" 
	d="
M364.959229,261.001892 
	C363.974396,264.336395 361.653595,262.568298 359.926178,262.775452 
	C359.696838,262.802979 359.185669,261.813263 359.083130,261.244507 
	C358.939636,260.448547 359.004669,259.203247 359.931671,259.232178 
	C361.654510,259.285919 363.970856,257.676697 364.959229,261.001892 
z"/>
<path fill="#FFFFFF" opacity="1.000000" stroke="none" 
	d="
M254.556229,186.325241 
	C257.083252,189.728317 255.942047,193.289307 255.797607,196.630157 
	C255.711472,198.622650 253.411377,199.028824 251.546066,198.931656 
	C249.425613,198.821198 250.090302,197.086731 250.029770,195.913330 
	C249.927567,193.932022 250.187820,191.919830 249.958817,189.959991 
	C249.562103,186.565109 250.970184,185.434586 254.556229,186.325241 
z"/>
<path fill="#FFFFFF" opacity="1.000000" stroke="none" 
	d="
M371.000854,190.274902 
	C370.885529,187.552826 371.511017,185.893890 374.226166,186.031601 
	C377.087189,186.176697 377.019409,188.245697 377.001343,190.285080 
	C376.983856,192.257690 377.011749,194.231033 376.970276,196.203003 
	C376.933105,197.969757 375.999451,198.901688 374.217377,198.972610 
	C372.242096,199.051224 371.073486,198.203003 371.025360,196.144379 
	C370.983124,194.336884 371.006012,192.527878 371.000854,190.274902 
z"/>
<path fill="#FFFFFF" opacity="1.000000" stroke="none" 
	d="
M278.999115,194.725098 
	C279.114471,197.447174 278.488983,199.106110 275.773834,198.968414 
	C272.912811,198.823303 272.980621,196.754303 272.998688,194.714920 
	C273.016174,192.742310 272.988312,190.768967 273.029785,188.796997 
	C273.066956,187.030243 274.000549,186.098312 275.782623,186.027374 
	C277.757904,185.948792 278.926544,186.796997 278.974640,188.855621 
	C279.016846,190.663116 278.993958,192.472122 278.999115,194.725098 
z"/>
<path fill="#FFFFFF" opacity="1.000000" stroke="none" 
	d="
M295.094604,226.982620 
	C291.935577,226.285187 292.814270,224.140335 293.378937,222.739075 
	C293.927307,221.378326 295.707367,221.941406 296.906067,222.127258 
	C298.693634,222.404434 299.130585,223.832428 298.945496,225.434753 
	C298.674133,227.783997 296.773956,226.708771 295.094604,226.982620 
z"/>
</svg>