<svg version="1.1" id="Layer_1" xmlns="http://www.w3.org/2000/svg" xmlns:xlink="http://www.w3.org/1999/xlink" x="0px" y="0px"
	 width="100%" viewBox="0 0 544 339" enable-background="new 0 0 544 339" xml:space="preserve">
<path fill="#FFFFFF" opacity="1.000000" stroke="none" 
	d="
M359.000000,340.000000 
	C239.367050,340.000000 120.234100,340.000000 1.050576,340.000000 
	C1.050576,227.065704 1.050576,114.131393 1.050576,1.098535 
	C182.216278,1.098535 363.432648,1.098535 544.824463,1.098535 
	C544.824463,113.999779 544.824463,226.999863 544.824463,340.000000 
	C483.131348,340.000000 421.315674,340.000000 359.000000,340.000000 
M526.000000,174.500000 
	C526.000000,222.579849 526.000000,270.659698 526.000000,318.624084 
	C384.938782,318.624084 244.571854,318.624084 103.854630,318.624084 
	C103.854630,301.642731 103.854630,285.034576 103.854630,268.302124 
	C101.443977,268.302124 99.393608,268.302124 97.357971,268.302124 
	C97.357971,287.324371 97.357971,306.043488 97.357971,324.614075 
	C242.749207,324.614075 387.782196,324.614075 532.756287,324.614075 
	C532.756287,230.968491 532.756287,137.709045 532.756287,44.162518 
	C520.226746,44.421593 509.700714,38.204956 498.347992,34.874115 
	C489.961578,32.413609 481.285950,29.535831 472.712921,29.449409 
	C460.427856,29.325567 448.959930,34.589214 437.618439,39.123486 
	C426.718353,43.481281 415.545685,45.976810 404.031586,42.815094 
	C395.418030,40.449848 387.088531,37.020313 378.689850,33.910000 
	C367.628967,29.813803 356.351166,27.657755 344.778320,31.033813 
	C335.728088,33.673969 326.818878,36.836113 317.950867,40.052731 
	C306.560608,44.184242 295.150909,45.855434 283.386322,41.734093 
	C273.715698,38.346291 264.051849,34.931793 254.316223,31.738857 
	C244.979828,28.676851 235.560303,28.581062 226.417938,31.304159 
	C226.417938,33.825043 226.417938,35.856056 226.417938,37.846886 
	C230.682480,37.189575 234.528305,36.202515 238.402451,36.074772 
	C249.326889,35.714565 259.043640,40.356358 268.992249,43.987633 
	C278.818787,47.574341 288.691925,52.185646 299.323639,50.774258 
	C308.591492,49.543922 317.653839,46.557590 326.710632,44.005280 
	C335.308746,41.582241 343.623566,37.812096 352.351807,36.283379 
	C362.260651,34.547882 371.686523,38.508991 380.912872,41.978680 
	C391.432556,45.934738 401.816589,50.425049 413.268677,50.986053 
	C425.403442,51.580502 436.600494,47.422073 447.308838,42.736053 
	C463.742126,35.544800 479.785522,34.179676 496.572449,41.140907 
	C505.975403,45.040127 515.765259,48.006325 526.000000,51.611004 
	C526.000000,91.566963 526.000000,132.533478 526.000000,174.500000 
M58.499084,97.000000 
	C51.408451,97.000000 44.317818,97.000000 37.404449,97.000000 
	C37.404449,117.093697 37.404449,136.476349 37.404449,155.999695 
	C38.805672,155.999695 39.802334,155.999695 40.798992,155.999695 
	C51.794239,155.999649 62.800110,156.267197 73.778069,155.831558 
	C76.948158,155.705734 80.385925,154.075333 83.103073,152.246445 
	C93.583633,145.192108 92.569496,125.561600 80.261818,119.492546 
	C80.569817,119.094612 80.820885,118.639587 81.187828,118.315933 
	C85.838806,114.213577 86.056137,108.997528 83.799461,103.955093 
	C81.677841,99.214424 77.638390,96.587784 71.989464,96.948128 
	C67.841484,97.212723 63.663044,97.000000 58.499084,97.000000 
M413.142242,155.175079 
	C414.542633,155.450012 415.941681,155.955215 417.343628,155.963440 
	C428.496979,156.028854 439.651031,156.022354 450.804565,155.972549 
	C452.254089,155.966080 453.721619,155.677444 455.147552,155.366913 
	C469.249878,152.295776 477.769104,139.681351 477.199158,124.926590 
	C476.606293,109.576294 465.330017,96.703964 449.331299,96.971024 
	C439.844940,97.129379 430.353760,97.000000 420.864746,97.000000 
	C418.287628,97.000000 415.710510,97.000000 413.021210,97.000000 
	C413.021210,116.611450 413.021210,135.419479 413.142242,155.175079 
M226.119781,239.881607 
	C226.487946,238.079239 226.856125,236.276855 227.273773,234.232300 
	C217.293396,234.545197 216.527359,225.052429 210.401047,221.128830 
	C211.523285,220.142029 212.033371,219.345856 212.718643,219.143768 
	C221.223434,216.635605 225.670395,207.266373 224.998383,198.464478 
	C224.430740,191.029282 217.901733,182.319946 210.274094,181.359985 
	C199.388779,179.990005 188.322037,180.061508 177.359924,179.518692 
	C177.359924,200.373184 177.359924,220.086731 177.359924,239.760529 
	C180.327225,239.760529 182.931961,239.760529 186.059021,239.760529 
	C186.059021,233.472702 186.059021,227.406219 186.059021,221.000031 
	C189.381668,221.000031 192.205048,220.779221 194.972198,221.078400 
	C196.787613,221.274689 198.939240,221.771912 200.196594,222.936981 
	C202.189423,224.783508 203.661713,227.235138 205.174515,229.548325 
	C209.915482,236.797638 215.865814,241.623337 226.119781,239.881607 
M148.000000,21.548321 
	C148.000000,18.781858 148.000000,16.015398 148.000000,13.394117 
	C144.265854,13.394117 141.216110,13.394117 137.830566,13.394117 
	C137.830566,23.058144 137.830566,32.330254 137.830566,42.660809 
	C123.633041,40.059940 109.949821,37.553288 95.853241,34.970913 
	C95.853241,27.971828 95.853241,20.700701 95.853241,13.307896 
	C92.438072,13.307896 89.386505,13.307896 86.346344,13.307896 
	C86.346344,33.332088 86.346344,53.046345 86.346344,72.774033 
	C89.635292,72.774033 92.572853,72.774033 95.998123,72.774033 
	C95.998123,62.815746 95.998123,53.068920 95.998123,43.030243 
	C100.699013,43.568474 104.915230,43.887550 109.073898,44.561615 
	C117.589989,45.941959 126.049301,47.695446 134.587128,48.906540 
	C137.585434,49.331852 138.045090,50.734623 138.020676,53.194920 
	C137.956619,59.645195 137.999069,66.096527 137.999069,72.702553 
	C141.541245,72.702553 144.592300,72.702553 148.000000,72.702553 
	C148.000000,55.784550 148.000000,39.161335 148.000000,21.548321 
M377.914276,141.603653 
	C381.602875,145.883896 384.645874,151.149185 389.188477,154.126343 
	C392.693909,156.423752 398.081024,155.850098 402.804077,156.579620 
	C402.804077,154.023972 402.804077,152.724747 402.804077,151.455765 
	C393.781860,150.067719 391.285828,141.950409 386.056946,136.425842 
	C394.735992,133.693390 401.587982,125.068527 400.857544,116.888779 
	C400.151306,108.979874 396.920410,99.483215 386.640961,98.187950 
	C375.660461,96.804359 364.370575,97.876221 353.400543,97.876221 
	C353.400543,117.116386 353.400543,136.485779 353.400543,155.724106 
	C356.408173,155.724106 359.012726,155.724106 362.122803,155.724106 
	C362.122803,149.398499 362.122803,143.337555 362.122803,137.067017 
	C367.880951,137.367249 373.697601,135.110703 377.914276,141.603653 
M37.000000,191.518707 
	C37.000000,207.609451 37.000000,223.700195 37.000000,239.765579 
	C40.314907,239.765579 42.920891,239.765579 46.056473,239.765579 
	C46.056473,233.482864 46.056473,227.414215 46.056473,221.525116 
	C54.650017,220.998322 62.778069,221.030029 70.731041,219.865799 
	C78.937164,218.664474 84.938034,210.335617 84.999969,201.672684 
	C85.070274,191.839294 79.118980,182.190750 70.888489,181.239990 
	C59.799786,179.959076 48.551342,180.060989 37.000000,179.553101 
	C37.000000,183.913300 37.000000,187.219482 37.000000,191.518707 
M173.508453,73.000000 
	C182.668869,72.999992 191.829269,73.006035 200.989685,72.997864 
	C207.030289,72.992485 207.357147,72.590805 206.427231,65.874359 
	C194.106506,65.874359 181.706161,65.874359 169.371445,65.874359 
	C169.371445,57.306030 169.371445,49.254135 169.371445,40.864555 
	C176.680542,40.864555 183.624039,40.864555 190.705429,40.864555 
	C190.705429,38.459465 190.705429,36.409252 190.705429,33.834404 
	C183.359329,33.834404 176.294464,33.834404 169.405594,33.834404 
	C169.405594,29.242323 169.405594,25.188047 169.405594,20.828793 
	C182.093582,20.828793 194.378372,20.828793 207.344650,20.828793 
	C206.734619,17.953472 206.219284,15.524574 205.738998,13.260792 
	C190.284271,13.260792 175.358276,13.260792 160.305405,13.260792 
	C160.305405,33.233562 160.305405,52.944263 160.305405,73.000000 
	C164.573090,73.000000 168.542511,73.000000 173.508453,73.000000 
M128.002975,198.298553 
	C128.002975,195.012436 128.002975,191.726318 128.002975,187.966537 
	C140.896271,187.966537 153.306870,187.966537 166.394836,187.966537 
	C165.738052,184.920990 165.213364,182.487885 164.737839,180.282822 
	C149.233200,180.282822 134.310150,180.282822 119.328156,180.282822 
	C119.328156,200.278748 119.328156,219.990067 119.328156,239.833237 
	C134.602280,239.833237 149.548035,239.833237 164.792603,239.833237 
	C165.230118,237.620789 165.643906,235.528336 166.183136,232.801514 
	C153.024216,232.801514 140.624954,232.801514 128.233429,232.801514 
	C128.233429,224.352188 128.233429,216.420013 128.233429,207.966980 
	C135.517197,207.966980 142.584854,207.966980 149.663605,207.966980 
	C149.663605,205.387222 149.663605,203.336884 149.663605,200.999741 
	C143.524048,200.999741 137.712662,201.104401 131.910477,200.919952 
	C130.597916,200.878235 129.317291,199.831451 128.002975,198.298553 
M134.933762,108.686409 
	C133.360504,105.622742 131.885071,102.503036 130.174911,99.517799 
	C129.245819,97.895996 127.917519,96.502892 126.769295,95.006638 
	C125.179451,96.341057 122.938164,97.355217 122.100388,99.059364 
	C113.587448,116.375732 105.301956,133.803925 96.957710,151.203186 
	C96.274376,152.628052 95.627525,154.070404 94.956619,155.519989 
	C100.538643,157.074417 104.293678,155.842194 106.010185,150.222916 
	C106.623863,148.213928 107.517067,146.062485 108.922928,144.585464 
	C110.418663,143.014008 112.602020,141.331985 114.610085,141.160385 
	C120.069702,140.693817 125.665642,141.549133 131.076462,140.856476 
	C137.378616,140.049698 140.060028,142.827118 142.178680,148.257294 
	C145.371552,156.440735 145.704712,156.316635 154.550690,155.948975 
	C154.972443,155.931442 155.383362,155.653091 155.967941,155.432602 
	C148.958267,139.991562 142.023682,124.715904 134.933762,108.686409 
M329.925751,127.641327 
	C325.585999,117.986084 321.331909,108.290466 316.818542,98.717072 
	C316.102478,97.198166 314.370636,95.610641 312.820099,95.230339 
	C311.831055,94.987755 309.869324,96.649467 309.122620,97.916420 
	C307.645660,100.422523 306.814423,103.298439 305.531219,105.931290 
	C298.157776,121.059547 290.722015,136.157410 283.335602,151.279373 
	C282.714050,152.551865 282.300476,153.925903 281.578430,155.803665 
	C285.321747,155.502884 289.493195,158.109039 290.842560,153.227997 
	C293.794891,142.548676 300.709442,139.108734 311.068115,140.980835 
	C311.873810,141.126450 312.728668,141.000000 313.560669,141.000000 
	C325.573944,141.000000 325.449921,141.053101 330.312286,152.408463 
	C331.002258,154.019806 333.437103,155.300323 335.324768,155.867752 
	C337.289825,156.458450 339.570435,155.999481 342.685699,155.999481 
	C338.280334,146.351273 334.181030,137.373352 329.925751,127.641327 
M49.764248,21.021101 
	C58.465294,21.021101 67.166336,21.021101 75.815674,21.021101 
	C76.055870,14.082571 72.937485,12.459112 67.261055,12.890566 
	C60.966419,13.369007 54.607376,13.000000 48.276379,13.000000 
	C36.311371,13.000000 24.346363,13.000000 12.363267,13.000000 
	C11.815518,15.765804 11.352642,18.103054 10.776219,21.013649 
	C20.391306,21.013649 29.476044,21.013649 39.072399,21.013649 
	C39.072399,38.554947 39.072399,55.614807 39.072399,72.640915 
	C42.330574,72.640915 45.047665,72.640915 48.000008,72.640915 
	C48.000008,56.972343 47.973911,41.661316 48.036018,26.350649 
	C48.043064,24.613420 48.546089,22.878204 49.764248,21.021101 
M175.000000,136.488068 
	C175.000000,123.398758 175.000000,110.309456 175.000000,97.227051 
	C171.694153,97.227051 169.089142,97.227051 166.279388,97.227051 
	C166.279388,116.836922 166.279388,136.219360 166.279388,156.000000 
	C179.679016,156.000000 192.803177,156.000549 205.927338,155.999771 
	C212.516891,155.999374 212.516891,155.998276 213.142303,148.767303 
	C200.518814,148.767303 187.925461,148.767303 175.000000,148.767303 
	C175.000000,144.754013 175.000000,141.117661 175.000000,136.488068 
M233.000000,138.474335 
	C233.000000,124.718590 233.000000,110.962852 233.000000,97.234024 
	C229.685196,97.234024 227.079559,97.234024 224.288651,97.234024 
	C224.288651,116.852654 224.288651,136.236649 224.288651,155.999969 
	C238.201904,155.999969 251.829910,156.010162 265.457886,155.994980 
	C270.943268,155.988861 271.313141,155.481415 270.454834,148.887375 
	C258.126740,148.887375 245.721268,148.887375 233.000000,148.887375 
	C233.000000,145.406113 233.000000,142.434204 233.000000,138.474335 
M97.000000,214.500000 
	C97.000000,222.922043 97.000000,231.344086 97.000000,239.597702 
	C100.751450,239.597702 103.800171,239.597702 106.743515,239.597702 
	C106.743515,219.606689 106.743515,200.018875 106.743515,180.311111 
	C103.430000,180.311111 100.379143,180.311111 97.000000,180.311111 
	C97.000000,191.579178 97.000000,202.539597 97.000000,214.500000 
M413.974915,182.531555 
	C410.798828,180.135147 408.926605,180.475830 408.018585,183.651855 
	C407.274963,186.252823 406.591980,188.871155 405.661896,192.291702 
	C404.381866,187.854828 403.402252,184.459274 402.393494,180.962631 
	C394.344879,180.506805 398.258972,189.015564 394.379913,191.325150 
	C393.475281,187.961670 392.557159,184.547958 391.593079,180.963394 
	C389.596100,181.061325 387.886536,181.145172 386.071259,181.234192 
	C388.236694,189.043198 390.267212,196.365692 392.391479,204.026382 
	C400.126617,204.392899 396.904114,196.104736 400.726959,193.633636 
	C401.496735,196.015030 402.079071,198.399307 403.054596,200.610077 
	C403.614807,201.879700 404.812622,202.867950 405.723419,203.982864 
	C406.845306,202.889114 408.554474,201.988022 408.987457,200.668274 
	C410.856476,194.971436 412.351654,189.151947 413.974915,182.531555 
M294.985138,185.519348 
	C294.463776,184.019028 293.942444,182.518707 293.489105,181.214066 
	C291.534882,181.214066 289.902344,181.214066 288.142029,181.214066 
	C289.906128,187.851608 291.670013,194.244537 293.285217,200.674805 
	C294.023712,203.614700 295.522400,204.810654 298.543121,203.646957 
	C299.768707,200.219910 301.007111,196.756897 302.540955,192.467834 
	C303.540161,196.186966 304.166870,199.045639 305.126465,201.787842 
	C305.435638,202.671341 306.600372,203.800339 307.410736,203.830780 
	C308.515900,203.872284 310.433228,203.200333 310.660553,202.435440 
	C312.713776,195.527771 314.473633,188.532928 316.381348,181.330063 
	C306.642212,179.740784 311.285065,189.085648 307.400330,191.405380 
	C306.429016,188.008636 305.455597,184.604523 304.401947,180.919754 
	C297.014160,181.028183 300.019104,188.909851 296.359131,191.436401 
	C295.920654,189.780777 295.464203,188.057281 294.985138,185.519348 
M346.026917,231.490753 
	C347.879669,227.945145 350.994171,224.383636 347.610870,220.325012 
	C343.484009,215.374420 337.755646,217.276627 332.254425,217.132126 
	C332.254425,224.839996 332.254425,232.220062 332.254425,239.698730 
	C334.239319,239.698730 335.959442,239.698730 338.000031,239.698730 
	C338.000031,237.935913 337.952667,236.465454 338.014069,234.999542 
	C338.069122,233.685730 338.243866,232.376953 338.365784,231.065948 
	C340.559692,233.269669 341.340057,235.975739 343.091217,237.690231 
	C344.620117,239.187119 347.242462,239.567169 349.381744,240.440659 
	C349.528900,239.986923 349.676086,239.533188 349.823273,239.079468 
	C348.575592,236.807404 347.327942,234.535355 346.026917,231.490753 
M369.915802,271.585938 
	C368.929077,269.495483 366.980438,267.873077 369.220245,264.982544 
	C370.516296,263.309998 370.991577,259.845306 370.126160,257.980927 
	C369.269409,256.135254 366.400085,254.616211 364.167938,254.162735 
	C361.026978,253.524582 357.659515,254.001328 354.281342,254.001328 
	C354.281342,261.598175 354.281342,268.649689 354.281342,276.011139 
	C355.976379,275.894836 357.369080,275.799286 358.829834,275.699036 
	C358.971527,272.949432 359.094788,270.557373 359.280975,266.944702 
	C364.310333,269.575439 363.410034,279.411682 371.502258,275.486786 
	C371.092468,274.584930 370.580292,273.457672 369.915802,271.585938 
M299.000000,258.358215 
	C299.000000,260.060333 299.000000,261.762421 299.000000,264.866486 
	C296.655060,261.453308 294.897308,259.482788 293.824615,257.191528 
	C292.327728,253.994247 290.247192,253.386978 287.217346,254.401489 
	C287.217346,261.646393 287.217346,268.584534 287.217346,275.738159 
	C288.821442,275.738159 290.206055,275.738159 292.191833,275.738159 
	C292.191833,272.225922 292.191833,268.939209 292.191833,265.951782 
	C297.060669,268.604340 296.224579,277.511688 304.757507,275.735962 
	C304.757507,268.578156 304.757507,261.504974 304.757507,254.069427 
	C302.118408,254.437607 298.515564,252.262054 299.000000,258.358215 
M332.497955,191.019577 
	C331.141174,188.981400 329.520477,187.067261 328.490417,184.875534 
	C326.998383,181.700851 324.953766,180.221970 321.239685,181.363388 
	C321.239685,188.726349 321.239685,196.152100 321.239685,203.707855 
	C322.868622,203.707855 324.255157,203.707855 326.018890,203.707855 
	C326.018890,199.882675 326.018890,196.322510 326.018890,192.887161 
	C331.216644,195.534500 330.528107,204.516434 338.718109,203.929413 
	C338.718109,196.149063 338.718109,188.727692 338.718109,180.990997 
	C337.022705,181.108887 335.634033,181.205444 333.994568,181.319427 
	C333.994568,184.827148 334.012421,187.974747 333.971008,191.121582 
	C333.966064,191.496506 333.638245,191.867203 333.460083,192.239868 
	C333.284851,192.029160 333.109619,191.818451 332.497955,191.019577 
M426.004242,194.505661 
	C429.561188,197.491272 429.198669,205.129013 436.686890,203.777664 
	C436.686890,196.058762 436.686890,188.639481 436.686890,180.913391 
	C434.952148,181.085785 433.559509,181.224197 431.783691,181.400681 
	C431.783691,185.269638 431.783691,188.781570 431.783691,192.818878 
	C422.826904,180.968369 422.826904,180.968369 419.201172,181.643723 
	C419.201172,188.912491 419.201172,196.194672 419.201172,203.731110 
	C420.786346,203.731110 422.171539,203.731110 424.162140,203.731110 
	C424.162140,199.924850 424.162140,196.289734 424.162140,191.786377 
	C424.993622,193.148987 425.246460,193.563309 426.004242,194.505661 
M407.000000,231.442291 
	C407.000000,226.678604 407.000000,221.914917 407.000000,216.847076 
	C404.905426,217.078369 403.511169,217.232346 401.788239,217.422592 
	C401.788239,221.008377 401.788239,224.211823 401.788239,227.542130 
	C397.126312,224.788528 397.422089,216.927490 390.198608,217.032074 
	C390.198608,224.933136 390.198608,232.202484 390.198608,239.572876 
	C391.907013,239.572876 393.390076,239.572876 395.290955,239.572876 
	C395.290955,236.000214 395.290955,232.836594 395.290955,229.147308 
	C403.240173,240.020889 403.240173,240.020889 407.000000,239.294510 
	C407.000000,237.038239 407.000000,234.727036 407.000000,231.442291 
M261.018951,198.255615 
	C262.650330,193.072098 263.317444,187.580246 259.582489,183.361847 
	C255.709412,178.987457 250.139542,181.473328 245.384811,181.095703 
	C245.384811,189.110931 245.384811,196.484741 245.384811,203.812180 
	C254.463730,204.483582 258.659760,204.118591 261.018951,198.255615 
M278.071594,181.006500 
	C274.570496,181.146835 270.060028,180.004135 268.969879,184.649857 
	C267.939697,189.040207 267.488647,193.891998 268.306458,198.255234 
	C268.725067,200.488678 272.359100,203.423798 274.754333,203.637466 
	C277.474457,203.880112 281.348053,202.179169 283.110107,200.013275 
	C287.529877,194.580536 285.072327,185.170319 278.071594,181.006500 
M369.140533,202.613297 
	C374.342255,204.867203 380.090454,203.839005 381.554504,199.725327 
	C383.302521,194.813705 384.131592,189.592651 381.198334,184.608765 
	C378.653137,180.284286 369.881500,179.428635 367.283691,183.485367 
	C364.110474,188.440598 363.599609,198.434799 369.140533,202.613297 
M245.000000,224.566299 
	C245.000000,229.649612 245.000000,234.732910 245.000000,239.767303 
	C250.350983,239.767303 254.958527,239.767303 259.719360,239.767303 
	C259.719360,238.147385 259.719360,236.762238 259.719360,234.998123 
	C257.329224,234.998123 255.189941,234.913712 253.059906,235.017853 
	C249.856155,235.174515 249.492676,233.723343 250.603928,230.878845 
	C253.349564,230.878845 255.958069,230.878845 258.719299,230.878845 
	C258.719299,229.145828 258.719299,227.760315 258.719299,226.407425 
	C250.133591,225.451096 250.133591,225.451096 250.809860,221.880356 
	C253.684372,221.880356 256.626282,221.880356 259.717896,221.880356 
	C259.717896,220.141739 259.717896,218.760498 259.717896,217.333557 
	C254.722702,217.333557 250.004456,217.333557 245.000000,217.333557 
	C245.000000,219.636154 245.000000,221.612289 245.000000,224.566299 
M378.471313,235.000015 
	C376.833588,235.000015 375.195892,235.000015 373.558167,235.000015 
	C373.250854,234.552155 372.943542,234.104309 372.636230,233.656448 
	C373.686493,232.771774 374.621826,231.394455 375.813629,231.116348 
	C377.662689,230.684891 379.686554,231.002426 381.683441,231.002426 
	C381.683441,229.083755 381.683441,227.697449 381.683441,226.345123 
	C373.030457,225.534744 373.030457,225.534744 373.910736,221.815460 
	C376.769867,221.815460 379.711700,221.815460 382.959534,221.815460 
	C382.875336,220.059814 382.809021,218.676880 382.746674,217.376328 
	C377.631317,217.376328 372.910950,217.376328 368.249756,217.376328 
	C368.249756,225.019775 368.249756,232.284225 368.249756,239.717514 
	C373.232483,239.717514 377.962524,239.717514 382.631561,239.717514 
	C383.511780,236.522339 383.177216,234.471527 378.471313,235.000015 
M436.755157,239.978409 
	C441.042633,239.978409 445.330139,239.978409 449.698425,239.978409 
	C449.698425,238.112488 449.698425,236.726364 449.698425,234.850586 
	C446.333282,234.850586 443.253815,234.850586 439.624176,234.850586 
	C440.814026,228.320236 446.216949,232.692368 448.903351,230.084747 
	C448.903351,229.372665 448.934204,228.247269 448.881104,227.125854 
	C448.868164,226.853027 448.579102,226.593277 448.424194,226.339340 
	C440.065094,225.506378 440.065094,225.506378 440.875305,221.838715 
	C443.739410,221.838715 446.681000,221.838715 449.690369,221.838715 
	C449.690369,220.100739 449.690369,218.717010 449.690369,217.360001 
	C444.665741,217.360001 439.947052,217.360001 434.610901,217.360001 
	C435.025482,225.114441 435.419586,232.485413 436.755157,239.978409 
M280.548431,234.073822 
	C277.255035,230.843384 276.056427,227.579224 279.664124,223.610214 
	C281.183380,221.938766 282.006897,219.634933 283.006012,217.867477 
	C276.837067,214.526306 275.971771,219.775223 273.664337,222.956024 
	C271.368134,219.586121 269.876953,215.117218 264.406677,217.498672 
	C265.002869,218.839188 265.313782,220.436188 266.245789,221.477097 
	C270.103333,225.785309 271.108063,229.989151 266.817963,234.668320 
	C265.589294,236.008408 264.914032,237.855927 263.978180,239.482712 
	C269.624481,241.685776 271.429230,237.613708 273.539886,234.155304 
	C278.090973,240.483200 278.090973,240.483200 282.973236,239.146179 
	C282.288269,237.657486 281.614319,236.192673 280.548431,234.073822 
M325.836823,235.697662 
	C322.625854,235.310760 319.414917,234.923859 316.012390,234.513870 
	C316.027893,228.087860 321.598419,232.727097 323.714783,230.214676 
	C323.714783,229.136810 323.714783,227.748245 323.714783,226.392136 
	C316.093140,225.571609 316.093140,225.571609 316.834137,221.863693 
	C319.705994,221.863693 322.648804,221.863693 325.705322,221.863693 
	C325.705322,220.119858 325.705322,218.739273 325.705322,217.347534 
	C320.695221,217.347534 315.975525,217.347534 311.396240,217.347534 
	C311.396240,225.085983 311.396240,232.471313 311.396240,239.998764 
	C315.449860,239.998764 319.116913,239.841660 322.763000,240.050400 
	C325.488251,240.206436 326.383453,239.131577 325.836823,235.697662 
M339.790283,271.982391 
	C339.045502,270.581543 338.300720,269.180695 337.069122,266.864136 
	C340.969666,266.864136 343.384766,266.864136 345.629517,266.864136 
	C346.904999,262.316437 344.006714,262.971741 341.767181,263.019836 
	C339.144257,263.076172 336.906158,262.951416 338.763519,258.844086 
	C341.651794,258.844086 344.729279,258.844086 348.125488,258.844086 
	C347.917297,256.923981 347.766998,255.537674 347.629150,254.266510 
	C342.272827,254.266510 337.343781,254.266510 332.316345,254.266510 
	C332.316345,261.584808 332.316345,268.633301 332.316345,275.998077 
	C336.763611,275.998077 340.902435,275.918213 345.036591,276.023041 
	C348.414307,276.108673 348.501984,274.581757 347.340118,271.997589 
	C345.019745,271.997589 342.862030,271.997589 339.790283,271.982391 
M280.826691,272.652924 
	C277.279205,272.288727 273.731720,271.924500 269.915619,271.532684 
	C270.082123,269.927307 270.226501,268.535156 270.401520,266.847687 
	C273.393341,266.847687 276.007172,266.847687 278.609955,266.847687 
	C278.639526,263.100250 278.639893,263.072510 273.997833,263.010712 
	C271.393982,262.976044 268.529144,263.269714 270.943909,258.841797 
	C274.070343,258.841797 277.346252,258.841797 280.689941,258.841797 
	C280.689941,257.100677 280.689941,255.716721 280.689941,254.362701 
	C275.329071,254.362701 270.273621,254.362701 265.238098,254.362701 
	C265.238098,261.659882 265.238098,268.591980 265.238098,275.989685 
	C269.914093,275.989685 274.371704,276.102631 278.812531,275.880371 
	C279.567902,275.842560 280.251373,274.367279 280.826691,272.652924 
M295.178467,217.000977 
	C292.911591,217.000977 290.644714,217.000977 288.292542,217.000977 
	C288.292542,224.954727 288.292542,232.341980 288.292542,240.039703 
	C290.000946,239.902802 291.392609,239.791290 292.808746,239.677811 
	C292.970276,236.910645 293.110107,234.515106 293.257751,231.985886 
	C295.261566,231.985886 297.118896,232.551956 298.171539,231.872101 
	C300.623077,230.288788 303.566437,228.480927 304.609283,226.037827 
	C305.345032,224.314163 303.851929,220.893646 302.305756,219.172104 
	C301.018829,217.739243 298.205872,217.676956 295.178467,217.000977 
M428.351685,238.095428 
	C428.902863,235.135208 427.824463,234.198608 424.767853,234.575394 
	C423.174683,234.771774 420.068268,233.943497 419.992157,233.300293 
	C419.607605,230.051208 419.711365,226.653091 420.363556,223.453934 
	C420.485657,222.855026 423.886292,222.924515 426.924927,222.539841 
	C427.098022,222.333466 428.118073,221.117371 429.249084,219.768982 
	C428.316101,219.268127 427.768005,218.961456 427.209167,218.675797 
	C419.629578,214.801483 414.044281,218.096115 414.001129,226.466980 
	C413.993378,227.965652 414.273285,229.525528 413.953949,230.952789 
	C412.340179,238.165405 420.860748,242.707626 428.351685,238.095428 
M246.095718,274.316193 
	C248.010239,275.186005 249.964401,276.828094 251.829376,276.732422 
	C254.222061,276.609650 256.543060,275.089783 258.894958,274.171844 
	C258.168488,272.698578 257.442017,271.225311 256.683746,269.687561 
	C251.494293,273.011261 249.202591,271.841370 249.062012,266.344482 
	C249.013260,264.437714 249.327164,262.352753 250.130493,260.660065 
	C250.571701,259.730469 252.814819,258.642853 253.491806,259.011322 
	C256.661530,260.736511 257.882965,259.119049 259.041199,256.729126 
	C254.041748,251.840591 245.314590,253.395950 244.415802,259.610840 
	C243.768829,264.084412 245.325378,268.876678 246.095718,274.316193 
M355.376892,181.000000 
	C351.744629,181.000000 348.112366,181.000000 344.255127,181.000000 
	C344.255127,182.808212 344.255127,184.196472 344.255127,185.817627 
	C346.215790,185.953842 347.954376,186.074631 350.158997,186.227798 
	C350.158997,192.341751 350.158997,198.093872 350.158997,204.136749 
	C352.083099,203.919754 353.473267,203.762985 355.167542,203.571915 
	C355.167542,197.581711 355.167542,191.972168 355.167542,186.289017 
	C357.254425,186.066330 359.001770,185.879883 360.835327,185.684235 
	C360.835327,184.104752 360.835327,182.823700 360.835327,181.235855 
	C359.240540,181.152420 357.784058,181.076202 355.376892,181.000000 
M321.112122,259.914154 
	C322.935181,259.444794 324.758240,258.975433 326.703430,258.474640 
	C326.703430,257.120605 326.703430,255.735519 326.703430,254.319794 
	C321.000946,254.319794 315.590271,254.319794 309.899231,254.319794 
	C310.078949,256.072845 310.223083,257.478851 310.359833,258.812622 
	C312.386261,258.968536 313.997894,259.092560 316.086243,259.253265 
	C316.086243,264.909882 316.086243,270.323853 316.086243,276.061127 
	C318.004364,275.901123 319.391449,275.785431 321.016235,275.649902 
	C321.016235,270.469269 321.016235,265.655731 321.112122,259.914154 
M360.882935,217.901230 
	C359.101685,217.528030 357.320465,217.154846 355.299377,216.731384 
	C355.299377,224.912735 355.299377,232.312515 355.299377,240.014053 
	C357.336182,239.922119 359.057587,239.844421 360.983246,239.757507 
	C360.983246,232.460342 360.983246,225.648209 360.882935,217.901230 
z"/>
<path fill="#6D6E70" opacity="1.000000" stroke="none" 
	d="
M526.000000,174.000000 
	C526.000000,132.533478 526.000000,91.566963 526.000000,51.611004 
	C515.765259,48.006325 505.975403,45.040127 496.572449,41.140907 
	C479.785522,34.179676 463.742126,35.544800 447.308838,42.736053 
	C436.600494,47.422073 425.403442,51.580502 413.268677,50.986053 
	C401.816589,50.425049 391.432556,45.934738 380.912872,41.978680 
	C371.686523,38.508991 362.260651,34.547882 352.351807,36.283379 
	C343.623566,37.812096 335.308746,41.582241 326.710632,44.005280 
	C317.653839,46.557590 308.591492,49.543922 299.323639,50.774258 
	C288.691925,52.185646 278.818787,47.574341 268.992249,43.987633 
	C259.043640,40.356358 249.326889,35.714565 238.402451,36.074772 
	C234.528305,36.202515 230.682480,37.189575 226.417938,37.846886 
	C226.417938,35.856056 226.417938,33.825043 226.417938,31.304159 
	C235.560303,28.581062 244.979828,28.676851 254.316223,31.738857 
	C264.051849,34.931793 273.715698,38.346291 283.386322,41.734093 
	C295.150909,45.855434 306.560608,44.184242 317.950867,40.052731 
	C326.818878,36.836113 335.728088,33.673969 344.778320,31.033813 
	C356.351166,27.657755 367.628967,29.813803 378.689850,33.910000 
	C387.088531,37.020313 395.418030,40.449848 404.031586,42.815094 
	C415.545685,45.976810 426.718353,43.481281 437.618439,39.123486 
	C448.959930,34.589214 460.427856,29.325567 472.712921,29.449409 
	C481.285950,29.535831 489.961578,32.413609 498.347992,34.874115 
	C509.700714,38.204956 520.226746,44.421593 532.756287,44.162518 
	C532.756287,137.709045 532.756287,230.968491 532.756287,324.614075 
	C387.782196,324.614075 242.749207,324.614075 97.357971,324.614075 
	C97.357971,306.043488 97.357971,287.324371 97.357971,268.302124 
	C99.393608,268.302124 101.443977,268.302124 103.854630,268.302124 
	C103.854630,285.034576 103.854630,301.642731 103.854630,318.624084 
	C244.571854,318.624084 384.938782,318.624084 526.000000,318.624084 
	C526.000000,270.659698 526.000000,222.579849 526.000000,174.000000 
z"/>
<path fill="#6D6E70" opacity="1.000000" stroke="none" 
	d="
M58.998631,97.000000 
	C63.663044,97.000000 67.841484,97.212723 71.989464,96.948128 
	C77.638390,96.587784 81.677841,99.214424 83.799461,103.955093 
	C86.056137,108.997528 85.838806,114.213577 81.187828,118.315933 
	C80.820885,118.639587 80.569817,119.094612 80.261818,119.492546 
	C92.569496,125.561600 93.583633,145.192108 83.103073,152.246445 
	C80.385925,154.075333 76.948158,155.705734 73.778069,155.831558 
	C62.800110,156.267197 51.794239,155.999649 40.798992,155.999695 
	C39.802334,155.999695 38.805672,155.999695 37.404449,155.999695 
	C37.404449,136.476349 37.404449,117.093697 37.404449,97.000000 
	C44.317818,97.000000 51.408451,97.000000 58.998631,97.000000 
M71.634140,124.217453 
	C63.213646,124.217453 54.793152,124.217453 46.333839,124.217453 
	C46.333839,132.626160 46.333839,140.671692 46.333839,149.000000 
	C53.466347,149.000000 60.267342,149.006546 67.068321,148.998276 
	C74.867828,148.988800 79.065208,145.500183 80.671875,137.712021 
	C81.558327,133.415009 77.547768,127.229012 71.634140,124.217453 
M46.147358,115.194260 
	C54.170540,115.418182 62.205845,115.977661 70.210487,115.688446 
	C73.106964,115.583794 76.104881,113.042580 74.817078,109.490128 
	C74.033897,107.329697 71.589928,104.396812 69.703781,104.251358 
	C62.003181,103.657455 54.230068,104.003807 46.022354,104.003807 
	C46.022354,107.715050 46.022354,110.984474 46.147358,115.194260 
z"/>
<path fill="#6D6E70" opacity="1.000000" stroke="none" 
	d="
M413.081726,154.701294 
	C413.021210,135.419479 413.021210,116.611450 413.021210,97.000000 
	C415.710510,97.000000 418.287628,97.000000 420.864746,97.000000 
	C430.353760,97.000000 439.844940,97.129379 449.331299,96.971024 
	C465.330017,96.703964 476.606293,109.576294 477.199158,124.926590 
	C477.769104,139.681351 469.249878,152.295776 455.147552,155.366913 
	C453.721619,155.677444 452.254089,155.966080 450.804565,155.972549 
	C439.651031,156.022354 428.496979,156.028854 417.343628,155.963440 
	C415.941681,155.955215 414.542633,155.450012 413.081726,154.701294 
M423.805511,148.854202 
	C430.960510,148.902802 438.122711,148.768356 445.268463,149.051193 
	C452.483215,149.336777 458.847412,147.601547 462.915314,141.388077 
	C465.164459,137.952621 467.154633,133.921021 467.767639,129.928772 
	C469.092773,121.298981 465.624878,107.129929 453.121796,105.179024 
	C443.311829,103.648331 433.198944,104.059120 423.141388,103.603813 
	C423.141388,119.232475 423.141388,133.702637 423.805511,148.854202 
z"/>
<path fill="#6D6E70" opacity="1.000000" stroke="none" 
	d="
M225.665955,239.931854 
	C215.865814,241.623337 209.915482,236.797638 205.174515,229.548325 
	C203.661713,227.235138 202.189423,224.783508 200.196594,222.936981 
	C198.939240,221.771912 196.787613,221.274689 194.972198,221.078400 
	C192.205048,220.779221 189.381668,221.000031 186.059021,221.000031 
	C186.059021,227.406219 186.059021,233.472702 186.059021,239.760529 
	C182.931961,239.760529 180.327225,239.760529 177.359924,239.760529 
	C177.359924,220.086731 177.359924,200.373184 177.359924,179.518692 
	C188.322037,180.061508 199.388779,179.990005 210.274094,181.359985 
	C217.901733,182.319946 224.430740,191.029282 224.998383,198.464478 
	C225.670395,207.266373 221.223434,216.635605 212.718643,219.143768 
	C212.033371,219.345856 211.523285,220.142029 210.401047,221.128830 
	C216.527359,225.052429 217.293396,234.545197 227.273773,234.232300 
	C226.856125,236.276855 226.487946,238.079239 225.665955,239.931854 
M200.282532,213.000000 
	C200.945831,212.999969 201.609528,213.014618 202.272385,212.997635 
	C208.025940,212.850220 213.221970,208.976410 214.693497,203.743774 
	C216.144836,198.582947 214.183762,192.226074 208.493454,190.388428 
	C201.569595,188.152405 193.942825,188.092972 186.264069,187.043335 
	C186.264069,196.522919 186.264069,204.547440 186.264069,213.000000 
	C190.790390,213.000000 195.064102,213.000000 200.282532,213.000000 
z"/>
<path fill="#6D6E70" opacity="1.000000" stroke="none" 
	d="
M148.000000,22.043221 
	C148.000000,39.161335 148.000000,55.784550 148.000000,72.702553 
	C144.592300,72.702553 141.541245,72.702553 137.999069,72.702553 
	C137.999069,66.096527 137.956619,59.645195 138.020676,53.194920 
	C138.045090,50.734623 137.585434,49.331852 134.587128,48.906540 
	C126.049301,47.695446 117.589989,45.941959 109.073898,44.561615 
	C104.915230,43.887550 100.699013,43.568474 95.998123,43.030243 
	C95.998123,53.068920 95.998123,62.815746 95.998123,72.774033 
	C92.572853,72.774033 89.635292,72.774033 86.346344,72.774033 
	C86.346344,53.046345 86.346344,33.332088 86.346344,13.307896 
	C89.386505,13.307896 92.438072,13.307896 95.853241,13.307896 
	C95.853241,20.700701 95.853241,27.971828 95.853241,34.970913 
	C109.949821,37.553288 123.633041,40.059940 137.830566,42.660809 
	C137.830566,32.330254 137.830566,23.058144 137.830566,13.394117 
	C141.216110,13.394117 144.265854,13.394117 148.000000,13.394117 
	C148.000000,16.015398 148.000000,18.781858 148.000000,22.043221 
z"/>
<path fill="#6D6E70" opacity="1.000000" stroke="none" 
	d="
M377.695068,141.303268 
	C373.697601,135.110703 367.880951,137.367249 362.122803,137.067017 
	C362.122803,143.337555 362.122803,149.398499 362.122803,155.724106 
	C359.012726,155.724106 356.408173,155.724106 353.400543,155.724106 
	C353.400543,136.485779 353.400543,117.116386 353.400543,97.876221 
	C364.370575,97.876221 375.660461,96.804359 386.640961,98.187950 
	C396.920410,99.483215 400.151306,108.979874 400.857544,116.888779 
	C401.587982,125.068527 394.735992,133.693390 386.056946,136.425842 
	C391.285828,141.950409 393.781860,150.067719 402.804077,151.455765 
	C402.804077,152.724747 402.804077,154.023972 402.804077,156.579620 
	C398.081024,155.850098 392.693909,156.423752 389.188477,154.126343 
	C384.645874,151.149185 381.602875,145.883896 377.695068,141.303268 
M386.466858,107.975227 
	C379.177551,101.766411 370.581299,104.684776 362.306824,104.023422 
	C362.306824,112.910614 362.306824,121.286041 362.306824,129.993652 
	C367.403412,129.993652 372.260651,130.472717 376.978851,129.867584 
	C382.390717,129.173477 387.429382,127.219597 389.823425,121.461685 
	C391.915619,116.429665 390.447876,112.281898 386.466858,107.975227 
z"/>
<path fill="#6D6E70" opacity="1.000000" stroke="none" 
	d="
M37.000000,191.022186 
	C37.000000,187.219482 37.000000,183.913300 37.000000,179.553101 
	C48.551342,180.060989 59.799786,179.959076 70.888489,181.239990 
	C79.118980,182.190750 85.070274,191.839294 84.999969,201.672684 
	C84.938034,210.335617 78.937164,218.664474 70.731041,219.865799 
	C62.778069,221.030029 54.650017,220.998322 46.056473,221.525116 
	C46.056473,227.414215 46.056473,233.482864 46.056473,239.765579 
	C42.920891,239.765579 40.314907,239.765579 37.000000,239.765579 
	C37.000000,223.700195 37.000000,207.609451 37.000000,191.022186 
M46.000000,200.500946 
	C46.000000,204.580399 46.000000,208.659836 46.000000,212.997208 
	C52.302387,212.997208 57.932072,213.148285 63.549656,212.952377 
	C68.605072,212.776047 74.473137,207.485245 74.994461,203.017044 
	C75.771927,196.353302 72.803711,190.377808 66.751106,189.208481 
	C60.099445,187.923431 53.170105,188.075729 46.000000,187.576614 
	C46.000000,192.257507 46.000000,195.883881 46.000000,200.500946 
z"/>
<path fill="#6D6E70" opacity="1.000000" stroke="none" 
	d="
M173.010193,73.000000 
	C168.542511,73.000000 164.573090,73.000000 160.305405,73.000000 
	C160.305405,52.944263 160.305405,33.233562 160.305405,13.260792 
	C175.358276,13.260792 190.284271,13.260792 205.738998,13.260792 
	C206.219284,15.524574 206.734619,17.953472 207.344650,20.828793 
	C194.378372,20.828793 182.093582,20.828793 169.405594,20.828793 
	C169.405594,25.188047 169.405594,29.242323 169.405594,33.834404 
	C176.294464,33.834404 183.359329,33.834404 190.705429,33.834404 
	C190.705429,36.409252 190.705429,38.459465 190.705429,40.864555 
	C183.624039,40.864555 176.680542,40.864555 169.371445,40.864555 
	C169.371445,49.254135 169.371445,57.306030 169.371445,65.874359 
	C181.706161,65.874359 194.106506,65.874359 206.427231,65.874359 
	C207.357147,72.590805 207.030289,72.992485 200.989685,72.997864 
	C191.829269,73.006035 182.668869,72.999992 173.010193,73.000000 
z"/>
<path fill="#6D6E70" opacity="1.000000" stroke="none" 
	d="
M128.012482,198.772919 
	C129.317291,199.831451 130.597916,200.878235 131.910477,200.919952 
	C137.712662,201.104401 143.524048,200.999741 149.663605,200.999741 
	C149.663605,203.336884 149.663605,205.387222 149.663605,207.966980 
	C142.584854,207.966980 135.517197,207.966980 128.233429,207.966980 
	C128.233429,216.420013 128.233429,224.352188 128.233429,232.801514 
	C140.624954,232.801514 153.024216,232.801514 166.183136,232.801514 
	C165.643906,235.528336 165.230118,237.620789 164.792603,239.833237 
	C149.548035,239.833237 134.602280,239.833237 119.328156,239.833237 
	C119.328156,219.990067 119.328156,200.278748 119.328156,180.282822 
	C134.310150,180.282822 149.233200,180.282822 164.737839,180.282822 
	C165.213364,182.487885 165.738052,184.920990 166.394836,187.966537 
	C153.306870,187.966537 140.896271,187.966537 128.002975,187.966537 
	C128.002975,191.726318 128.002975,195.012436 128.012482,198.772919 
z"/>
<path fill="#6D6E70" opacity="1.000000" stroke="none" 
	d="
M135.011429,109.063324 
	C142.023682,124.715904 148.958267,139.991562 155.967941,155.432602 
	C155.383362,155.653091 154.972443,155.931442 154.550690,155.948975 
	C145.704712,156.316635 145.371552,156.440735 142.178680,148.257294 
	C140.060028,142.827118 137.378616,140.049698 131.076462,140.856476 
	C125.665642,141.549133 120.069702,140.693817 114.610085,141.160385 
	C112.602020,141.331985 110.418663,143.014008 108.922928,144.585464 
	C107.517067,146.062485 106.623863,148.213928 106.010185,150.222916 
	C104.293678,155.842194 100.538643,157.074417 94.956619,155.519989 
	C95.627525,154.070404 96.274376,152.628052 96.957710,151.203186 
	C105.301956,133.803925 113.587448,116.375732 122.100388,99.059364 
	C122.938164,97.355217 125.179451,96.341057 126.769287,95.006638 
	C127.917519,96.502892 129.245819,97.895996 130.174911,99.517799 
	C131.885071,102.503036 133.360504,105.622742 135.011429,109.063324 
M119.075356,123.630363 
	C117.362907,127.257278 115.650459,130.884186 113.852829,134.691528 
	C121.404198,134.691528 128.397476,134.691528 135.645462,134.691528 
	C132.210510,126.976181 128.934387,119.617577 125.339111,111.542107 
	C123.175957,115.786476 121.337425,119.393883 119.075356,123.630363 
z"/>
<path fill="#6D6E70" opacity="1.000000" stroke="none" 
	d="
M330.003723,128.018387 
	C334.181030,137.373352 338.280334,146.351273 342.685699,155.999481 
	C339.570435,155.999481 337.289825,156.458450 335.324768,155.867752 
	C333.437103,155.300323 331.002258,154.019806 330.312286,152.408463 
	C325.449921,141.053101 325.573944,141.000000 313.560669,141.000000 
	C312.728668,141.000000 311.873810,141.126450 311.068115,140.980835 
	C300.709442,139.108734 293.794891,142.548676 290.842560,153.227997 
	C289.493195,158.109039 285.321747,155.502884 281.578430,155.803665 
	C282.300476,153.925903 282.714050,152.551865 283.335602,151.279373 
	C290.722015,136.157410 298.157776,121.059547 305.531219,105.931290 
	C306.814423,103.298439 307.645660,100.422523 309.122620,97.916420 
	C309.869324,96.649467 311.831055,94.987755 312.820099,95.230339 
	C314.370636,95.610641 316.102478,97.198166 316.818542,98.717072 
	C321.331909,108.290466 325.585999,117.986084 330.003723,128.018387 
M300.928864,133.404434 
	C300.991760,133.912369 301.050262,134.864487 301.118134,134.865143 
	C307.995026,134.932602 314.872589,134.928223 322.229279,134.928223 
	C318.623413,126.872475 315.327118,119.508354 311.785309,111.595772 
	C307.992889,119.047256 304.532196,125.846924 300.928864,133.404434 
z"/>
<path fill="#6D6E70" opacity="1.000000" stroke="none" 
	d="
M49.291687,21.081577 
	C48.546089,22.878204 48.043064,24.613420 48.036018,26.350649 
	C47.973911,41.661316 48.000008,56.972343 48.000008,72.640915 
	C45.047665,72.640915 42.330574,72.640915 39.072399,72.640915 
	C39.072399,55.614807 39.072399,38.554947 39.072399,21.013649 
	C29.476044,21.013649 20.391306,21.013649 10.776219,21.013649 
	C11.352642,18.103054 11.815518,15.765804 12.363267,13.000000 
	C24.346363,13.000000 36.311371,13.000000 48.276379,13.000000 
	C54.607376,13.000000 60.966419,13.369007 67.261055,12.890566 
	C72.937485,12.459112 76.055870,14.082571 75.815674,21.021101 
	C67.166336,21.021101 58.465294,21.021101 49.291687,21.081577 
z"/>
<path fill="#6D6E70" opacity="1.000000" stroke="none" 
	d="
M175.000000,136.984680 
	C175.000000,141.117661 175.000000,144.754013 175.000000,148.767303 
	C187.925461,148.767303 200.518814,148.767303 213.142303,148.767303 
	C212.516891,155.998276 212.516891,155.999374 205.927338,155.999771 
	C192.803177,156.000549 179.679016,156.000000 166.279388,156.000000 
	C166.279388,136.219360 166.279388,116.836922 166.279388,97.227051 
	C169.089142,97.227051 171.694153,97.227051 175.000000,97.227051 
	C175.000000,110.309456 175.000000,123.398758 175.000000,136.984680 
z"/>
<path fill="#6D6E70" opacity="1.000000" stroke="none" 
	d="
M233.000000,138.968323 
	C233.000000,142.434204 233.000000,145.406113 233.000000,148.887375 
	C245.721268,148.887375 258.126740,148.887375 270.454834,148.887375 
	C271.313141,155.481415 270.943268,155.988861 265.457886,155.994980 
	C251.829910,156.010162 238.201904,155.999969 224.288651,155.999969 
	C224.288651,136.236649 224.288651,116.852654 224.288651,97.234024 
	C227.079559,97.234024 229.685196,97.234024 233.000000,97.234024 
	C233.000000,110.962852 233.000000,124.718590 233.000000,138.968323 
z"/>
<path fill="#6D6E70" opacity="1.000000" stroke="none" 
	d="
M97.000000,214.000000 
	C97.000000,202.539597 97.000000,191.579178 97.000000,180.311111 
	C100.379143,180.311111 103.430000,180.311111 106.743515,180.311111 
	C106.743515,200.018875 106.743515,219.606689 106.743515,239.597702 
	C103.800171,239.597702 100.751450,239.597702 97.000000,239.597702 
	C97.000000,231.344086 97.000000,222.922043 97.000000,214.000000 
z"/>
<path fill="#6D6E70" opacity="1.000000" stroke="none" 
	d="
M413.978912,182.954315 
	C412.351654,189.151947 410.856476,194.971436 408.987457,200.668274 
	C408.554474,201.988022 406.845306,202.889114 405.723419,203.982864 
	C404.812622,202.867950 403.614807,201.879700 403.054596,200.610077 
	C402.079071,198.399307 401.496735,196.015030 400.726959,193.633636 
	C396.904114,196.104736 400.126617,204.392899 392.391479,204.026382 
	C390.267212,196.365692 388.236694,189.043198 386.071259,181.234192 
	C387.886536,181.145172 389.596100,181.061325 391.593079,180.963394 
	C392.557159,184.547958 393.475281,187.961670 394.379913,191.325150 
	C398.258972,189.015564 394.344879,180.506805 402.393494,180.962631 
	C403.402252,184.459274 404.381866,187.854828 405.661896,192.291702 
	C406.591980,188.871155 407.274963,186.252823 408.018585,183.651855 
	C408.926605,180.475830 410.798828,180.135147 413.978912,182.954315 
z"/>
<path fill="#6D6E70" opacity="1.000000" stroke="none" 
	d="
M294.996460,185.926575 
	C295.464203,188.057281 295.920654,189.780777 296.359131,191.436401 
	C300.019104,188.909851 297.014160,181.028183 304.401947,180.919754 
	C305.455597,184.604523 306.429016,188.008636 307.400330,191.405380 
	C311.285065,189.085648 306.642212,179.740784 316.381348,181.330063 
	C314.473633,188.532928 312.713776,195.527771 310.660553,202.435440 
	C310.433228,203.200333 308.515900,203.872284 307.410736,203.830780 
	C306.600372,203.800339 305.435638,202.671341 305.126465,201.787842 
	C304.166870,199.045639 303.540161,196.186966 302.540955,192.467834 
	C301.007111,196.756897 299.768707,200.219910 298.543121,203.646957 
	C295.522400,204.810654 294.023712,203.614700 293.285217,200.674805 
	C291.670013,194.244537 289.906128,187.851608 288.142029,181.214066 
	C289.902344,181.214066 291.534882,181.214066 293.489105,181.214066 
	C293.942444,182.518707 294.463776,184.019028 294.996460,185.926575 
z"/>
<path fill="#6D6E70" opacity="1.000000" stroke="none" 
	d="
M346.053589,231.877014 
	C347.327942,234.535355 348.575592,236.807404 349.823273,239.079468 
	C349.676086,239.533188 349.528900,239.986923 349.381744,240.440659 
	C347.242462,239.567169 344.620117,239.187119 343.091217,237.690231 
	C341.340057,235.975739 340.559692,233.269669 338.365784,231.065948 
	C338.243866,232.376953 338.069122,233.685730 338.014069,234.999542 
	C337.952667,236.465454 338.000031,237.935913 338.000031,239.698730 
	C335.959442,239.698730 334.239319,239.698730 332.254425,239.698730 
	C332.254425,232.220062 332.254425,224.839996 332.254425,217.132126 
	C337.755646,217.276627 343.484009,215.374420 347.610870,220.325012 
	C350.994171,224.383636 347.879669,227.945145 346.053589,231.877014 
z"/>
<path fill="#6D6E70" opacity="1.000000" stroke="none" 
	d="
M369.991943,271.958191 
	C370.580292,273.457672 371.092468,274.584930 371.502258,275.486786 
	C363.410034,279.411682 364.310333,269.575439 359.280975,266.944702 
	C359.094788,270.557373 358.971527,272.949432 358.829834,275.699036 
	C357.369080,275.799286 355.976379,275.894836 354.281342,276.011139 
	C354.281342,268.649689 354.281342,261.598175 354.281342,254.001328 
	C357.659515,254.001328 361.026978,253.524582 364.167938,254.162735 
	C366.400085,254.616211 369.269409,256.135254 370.126160,257.980927 
	C370.991577,259.845306 370.516296,263.309998 369.220245,264.982544 
	C366.980438,267.873077 368.929077,269.495483 369.991943,271.958191 
z"/>
<path fill="#6D6E70" opacity="1.000000" stroke="none" 
	d="
M299.000244,257.919403 
	C298.515564,252.262054 302.118408,254.437607 304.757507,254.069427 
	C304.757507,261.504974 304.757507,268.578156 304.757507,275.735962 
	C296.224579,277.511688 297.060669,268.604340 292.191833,265.951782 
	C292.191833,268.939209 292.191833,272.225922 292.191833,275.738159 
	C290.206055,275.738159 288.821442,275.738159 287.217346,275.738159 
	C287.217346,268.584534 287.217346,261.646393 287.217346,254.401489 
	C290.247192,253.386978 292.327728,253.994247 293.824615,257.191528 
	C294.897308,259.482788 296.655060,261.453308 299.000000,264.866486 
	C299.000000,261.762421 299.000000,260.060333 299.000244,257.919403 
z"/>
<path fill="#6D6E70" opacity="1.000000" stroke="none" 
	d="
M332.716187,191.313660 
	C333.109619,191.818451 333.284851,192.029160 333.460083,192.239868 
	C333.638245,191.867203 333.966064,191.496506 333.971008,191.121582 
	C334.012421,187.974747 333.994568,184.827148 333.994568,181.319427 
	C335.634033,181.205444 337.022705,181.108887 338.718109,180.990997 
	C338.718109,188.727692 338.718109,196.149063 338.718109,203.929413 
	C330.528107,204.516434 331.216644,195.534500 326.018890,192.887161 
	C326.018890,196.322510 326.018890,199.882675 326.018890,203.707855 
	C324.255157,203.707855 322.868622,203.707855 321.239685,203.707855 
	C321.239685,196.152100 321.239685,188.726349 321.239685,181.363388 
	C324.953766,180.221970 326.998383,181.700851 328.490417,184.875534 
	C329.520477,187.067261 331.141174,188.981400 332.716187,191.313660 
z"/>
<path fill="#6D6E70" opacity="1.000000" stroke="none" 
	d="
M425.751770,194.241638 
	C425.246460,193.563309 424.993622,193.148987 424.162140,191.786377 
	C424.162140,196.289734 424.162140,199.924850 424.162140,203.731110 
	C422.171539,203.731110 420.786346,203.731110 419.201172,203.731110 
	C419.201172,196.194672 419.201172,188.912491 419.201172,181.643723 
	C422.826904,180.968369 422.826904,180.968369 431.783691,192.818878 
	C431.783691,188.781570 431.783691,185.269638 431.783691,181.400681 
	C433.559509,181.224197 434.952148,181.085785 436.686890,180.913391 
	C436.686890,188.639481 436.686890,196.058762 436.686890,203.777664 
	C429.198669,205.129013 429.561188,197.491272 425.751770,194.241638 
z"/>
<path fill="#6D6E70" opacity="1.000000" stroke="none" 
	d="
M407.000000,231.929047 
	C407.000000,234.727036 407.000000,237.038239 407.000000,239.294510 
	C403.240173,240.020889 403.240173,240.020889 395.290955,229.147308 
	C395.290955,232.836594 395.290955,236.000214 395.290955,239.572876 
	C393.390076,239.572876 391.907013,239.572876 390.198608,239.572876 
	C390.198608,232.202484 390.198608,224.933136 390.198608,217.032074 
	C397.422089,216.927490 397.126312,224.788528 401.788239,227.542130 
	C401.788239,224.211823 401.788239,221.008377 401.788239,217.422592 
	C403.511169,217.232346 404.905426,217.078369 407.000000,216.847076 
	C407.000000,221.914917 407.000000,226.678604 407.000000,231.929047 
z"/>
<path fill="#6D6E70" opacity="1.000000" stroke="none" 
	d="
M260.981934,198.670334 
	C258.659760,204.118591 254.463730,204.483582 245.384811,203.812180 
	C245.384811,196.484741 245.384811,189.110931 245.384811,181.095703 
	C250.139542,181.473328 255.709412,178.987457 259.582489,183.361847 
	C263.317444,187.580246 262.650330,193.072098 260.981934,198.670334 
M252.285568,198.982224 
	C255.859070,197.547440 257.502838,193.515411 255.785797,188.479156 
	C255.299133,187.051743 252.708038,186.341797 251.082077,185.302811 
	C250.532349,185.715042 249.982635,186.127258 249.432922,186.539490 
	C250.086319,190.680603 250.739716,194.821701 252.285568,198.982224 
z"/>
<path fill="#6D6E70" opacity="1.000000" stroke="none" 
	d="
M278.485474,181.024963 
	C285.072327,185.170319 287.529877,194.580536 283.110107,200.013275 
	C281.348053,202.179169 277.474457,203.880112 274.754333,203.637466 
	C272.359100,203.423798 268.725067,200.488678 268.306458,198.255234 
	C267.488647,193.891998 267.939697,189.040207 268.969879,184.649857 
	C270.060028,180.004135 274.570496,181.146835 278.485474,181.024963 
M276.430481,186.019684 
	C275.785400,186.095032 274.585480,186.127182 274.575745,186.252014 
	C274.264008,190.254150 274.067413,194.265259 273.853455,198.275009 
	C275.457062,198.098648 277.060669,197.922287 278.664276,197.745926 
	C278.209198,193.866669 277.754089,189.987427 276.430481,186.019684 
z"/>
<path fill="#6D6E70" opacity="1.000000" stroke="none" 
	d="
M368.859406,202.331665 
	C363.599609,198.434799 364.110474,188.440598 367.283691,183.485367 
	C369.881500,179.428635 378.653137,180.284286 381.198334,184.608765 
	C384.131592,189.592651 383.302521,194.813705 381.554504,199.725327 
	C380.090454,203.839005 374.342255,204.867203 368.859406,202.331665 
M371.982941,186.591827 
	C371.669952,189.954330 371.181458,193.316589 371.177032,196.679489 
	C371.176025,197.444992 372.914398,198.892319 373.737213,198.814270 
	C374.867554,198.707031 376.610046,197.597885 376.811066,196.647446 
	C377.279694,194.431702 376.899963,192.050018 377.018707,189.743515 
	C377.183258,186.547287 375.545959,185.654251 371.982941,186.591827 
z"/>
<path fill="#6D6E70" opacity="1.000000" stroke="none" 
	d="
M245.000000,224.077362 
	C245.000000,221.612289 245.000000,219.636154 245.000000,217.333557 
	C250.004456,217.333557 254.722702,217.333557 259.717896,217.333557 
	C259.717896,218.760498 259.717896,220.141739 259.717896,221.880356 
	C256.626282,221.880356 253.684372,221.880356 250.809860,221.880356 
	C250.133591,225.451096 250.133591,225.451096 258.719299,226.407425 
	C258.719299,227.760315 258.719299,229.145828 258.719299,230.878845 
	C255.958069,230.878845 253.349564,230.878845 250.603928,230.878845 
	C249.492676,233.723343 249.856155,235.174515 253.059906,235.017853 
	C255.189941,234.913712 257.329224,234.998123 259.719360,234.998123 
	C259.719360,236.762238 259.719360,238.147385 259.719360,239.767303 
	C254.958527,239.767303 250.350983,239.767303 245.000000,239.767303 
	C245.000000,234.732910 245.000000,229.649612 245.000000,224.077362 
z"/>
<path fill="#6D6E70" opacity="1.000000" stroke="none" 
	d="
M378.927399,235.000183 
	C383.177216,234.471527 383.511780,236.522339 382.631561,239.717514 
	C377.962524,239.717514 373.232483,239.717514 368.249756,239.717514 
	C368.249756,232.284225 368.249756,225.019775 368.249756,217.376328 
	C372.910950,217.376328 377.631317,217.376328 382.746674,217.376328 
	C382.809021,218.676880 382.875336,220.059814 382.959534,221.815460 
	C379.711700,221.815460 376.769867,221.815460 373.910736,221.815460 
	C373.030457,225.534744 373.030457,225.534744 381.683441,226.345123 
	C381.683441,227.697449 381.683441,229.083755 381.683441,231.002426 
	C379.686554,231.002426 377.662689,230.684891 375.813629,231.116348 
	C374.621826,231.394455 373.686493,232.771774 372.636230,233.656448 
	C372.943542,234.104309 373.250854,234.552155 373.558167,235.000015 
	C375.195892,235.000015 376.833588,235.000015 378.927399,235.000183 
z"/>
<path fill="#6D6E70" opacity="1.000000" stroke="none" 
	d="
M436.284424,239.917389 
	C435.419586,232.485413 435.025482,225.114441 434.610901,217.360001 
	C439.947052,217.360001 444.665741,217.360001 449.690369,217.360001 
	C449.690369,218.717010 449.690369,220.100739 449.690369,221.838715 
	C446.681000,221.838715 443.739410,221.838715 440.875305,221.838715 
	C440.065094,225.506378 440.065094,225.506378 448.424194,226.339340 
	C448.579102,226.593277 448.868164,226.853027 448.881104,227.125854 
	C448.934204,228.247269 448.903351,229.372665 448.903351,230.084747 
	C446.216949,232.692368 440.814026,228.320236 439.624176,234.850586 
	C443.253815,234.850586 446.333282,234.850586 449.698425,234.850586 
	C449.698425,236.726364 449.698425,238.112488 449.698425,239.978409 
	C445.330139,239.978409 441.042633,239.978409 436.284424,239.917389 
z"/>
<path fill="#6D6E70" opacity="1.000000" stroke="none" 
	d="
M280.744385,234.400833 
	C281.614319,236.192673 282.288269,237.657486 282.973236,239.146179 
	C278.090973,240.483200 278.090973,240.483200 273.539886,234.155304 
	C271.429230,237.613708 269.624481,241.685776 263.978180,239.482712 
	C264.914032,237.855927 265.589294,236.008408 266.817963,234.668320 
	C271.108063,229.989151 270.103333,225.785309 266.245789,221.477097 
	C265.313782,220.436188 265.002869,218.839188 264.406677,217.498672 
	C269.876953,215.117218 271.368134,219.586121 273.664337,222.956024 
	C275.971771,219.775223 276.837067,214.526306 283.006012,217.867477 
	C282.006897,219.634933 281.183380,221.938766 279.664124,223.610214 
	C276.056427,227.579224 277.255035,230.843384 280.744385,234.400833 
z"/>
<path fill="#6D6E70" opacity="1.000000" stroke="none" 
	d="
M325.905182,236.150116 
	C326.383453,239.131577 325.488251,240.206436 322.763000,240.050400 
	C319.116913,239.841660 315.449860,239.998764 311.396240,239.998764 
	C311.396240,232.471313 311.396240,225.085983 311.396240,217.347534 
	C315.975525,217.347534 320.695221,217.347534 325.705322,217.347534 
	C325.705322,218.739273 325.705322,220.119858 325.705322,221.863693 
	C322.648804,221.863693 319.705994,221.863693 316.834137,221.863693 
	C316.093140,225.571609 316.093140,225.571609 323.714783,226.392136 
	C323.714783,227.748245 323.714783,229.136810 323.714783,230.214676 
	C321.598419,232.727097 316.027893,228.087860 316.012390,234.513870 
	C319.414917,234.923859 322.625854,235.310760 325.905182,236.150116 
z"/>
<path fill="#6D6E70" opacity="1.000000" stroke="none" 
	d="
M340.247284,271.989990 
	C342.862030,271.997589 345.019745,271.997589 347.340118,271.997589 
	C348.501984,274.581757 348.414307,276.108673 345.036591,276.023041 
	C340.902435,275.918213 336.763611,275.998077 332.316345,275.998077 
	C332.316345,268.633301 332.316345,261.584808 332.316345,254.266510 
	C337.343781,254.266510 342.272827,254.266510 347.629150,254.266510 
	C347.766998,255.537674 347.917297,256.923981 348.125488,258.844086 
	C344.729279,258.844086 341.651794,258.844086 338.763519,258.844086 
	C336.906158,262.951416 339.144257,263.076172 341.767181,263.019836 
	C344.006714,262.971741 346.904999,262.316437 345.629517,266.864136 
	C343.384766,266.864136 340.969666,266.864136 337.069122,266.864136 
	C338.300720,269.180695 339.045502,270.581543 340.247284,271.989990 
z"/>
<path fill="#6D6E70" opacity="1.000000" stroke="none" 
	d="
M280.897369,273.104492 
	C280.251373,274.367279 279.567902,275.842560 278.812531,275.880371 
	C274.371704,276.102631 269.914093,275.989685 265.238098,275.989685 
	C265.238098,268.591980 265.238098,261.659882 265.238098,254.362701 
	C270.273621,254.362701 275.329071,254.362701 280.689941,254.362701 
	C280.689941,255.716721 280.689941,257.100677 280.689941,258.841797 
	C277.346252,258.841797 274.070343,258.841797 270.943909,258.841797 
	C268.529144,263.269714 271.393982,262.976044 273.997833,263.010712 
	C278.639893,263.072510 278.639526,263.100250 278.609955,266.847687 
	C276.007172,266.847687 273.393341,266.847687 270.401520,266.847687 
	C270.226501,268.535156 270.082123,269.927307 269.915619,271.532684 
	C273.731720,271.924500 277.279205,272.288727 280.897369,273.104492 
z"/>
<path fill="#6D6E70" opacity="1.000000" stroke="none" 
	d="
M295.623657,217.004303 
	C298.205872,217.676956 301.018829,217.739243 302.305756,219.172104 
	C303.851929,220.893646 305.345032,224.314163 304.609283,226.037827 
	C303.566437,228.480927 300.623077,230.288788 298.171539,231.872101 
	C297.118896,232.551956 295.261566,231.985886 293.257751,231.985886 
	C293.110107,234.515106 292.970276,236.910645 292.808746,239.677811 
	C291.392609,239.791290 290.000946,239.902802 288.292542,240.039703 
	C288.292542,232.341980 288.292542,224.954727 288.292542,217.000977 
	C290.644714,217.000977 292.911591,217.000977 295.623657,217.004303 
M294.535278,222.025742 
	C293.906738,223.485153 293.278168,224.944565 292.527679,226.687073 
	C295.384460,226.687073 297.102966,226.687073 298.762756,226.687073 
	C299.355408,223.611832 298.646637,221.818802 294.535278,222.025742 
z"/>
<path fill="#6D6E70" opacity="1.000000" stroke="none" 
	d="
M428.089752,238.398682 
	C420.860748,242.707626 412.340179,238.165405 413.953949,230.952789 
	C414.273285,229.525528 413.993378,227.965652 414.001129,226.466980 
	C414.044281,218.096115 419.629578,214.801483 427.209167,218.675797 
	C427.768005,218.961456 428.316101,219.268127 429.249084,219.768982 
	C428.118073,221.117371 427.098022,222.333466 426.924927,222.539841 
	C423.886292,222.924515 420.485657,222.855026 420.363556,223.453934 
	C419.711365,226.653091 419.607605,230.051208 419.992157,233.300293 
	C420.068268,233.943497 423.174683,234.771774 424.767853,234.575394 
	C427.824463,234.198608 428.902863,235.135208 428.089752,238.398682 
z"/>
<path fill="#6D6E70" opacity="1.000000" stroke="none" 
	d="
M245.997375,273.921509 
	C245.325378,268.876678 243.768829,264.084412 244.415802,259.610840 
	C245.314590,253.395950 254.041748,251.840591 259.041199,256.729126 
	C257.882965,259.119049 256.661530,260.736511 253.491806,259.011322 
	C252.814819,258.642853 250.571701,259.730469 250.130493,260.660065 
	C249.327164,262.352753 249.013260,264.437714 249.062012,266.344482 
	C249.202591,271.841370 251.494293,273.011261 256.683746,269.687561 
	C257.442017,271.225311 258.168488,272.698578 258.894958,274.171844 
	C256.543060,275.089783 254.222061,276.609650 251.829376,276.732422 
	C249.964401,276.828094 248.010239,275.186005 245.997375,273.921509 
z"/>
<path fill="#6D6E70" opacity="1.000000" stroke="none" 
	d="
M355.852234,181.000000 
	C357.784058,181.076202 359.240540,181.152420 360.835327,181.235855 
	C360.835327,182.823700 360.835327,184.104752 360.835327,185.684235 
	C359.001770,185.879883 357.254425,186.066330 355.167542,186.289017 
	C355.167542,191.972168 355.167542,197.581711 355.167542,203.571915 
	C353.473267,203.762985 352.083099,203.919754 350.158997,204.136749 
	C350.158997,198.093872 350.158997,192.341751 350.158997,186.227798 
	C347.954376,186.074631 346.215790,185.953842 344.255127,185.817627 
	C344.255127,184.196472 344.255127,182.808212 344.255127,181.000000 
	C348.112366,181.000000 351.744629,181.000000 355.852234,181.000000 
z"/>
<path fill="#6D6E70" opacity="1.000000" stroke="none" 
	d="
M321.064178,260.378174 
	C321.016235,265.655731 321.016235,270.469269 321.016235,275.649902 
	C319.391449,275.785431 318.004364,275.901123 316.086243,276.061127 
	C316.086243,270.323853 316.086243,264.909882 316.086243,259.253265 
	C313.997894,259.092560 312.386261,258.968536 310.359833,258.812622 
	C310.223083,257.478851 310.078949,256.072845 309.899231,254.319794 
	C315.590271,254.319794 321.000946,254.319794 326.703430,254.319794 
	C326.703430,255.735519 326.703430,257.120605 326.703430,258.474640 
	C324.758240,258.975433 322.935181,259.444794 321.064178,260.378174 
z"/>
<path fill="#6D6E70" opacity="1.000000" stroke="none" 
	d="
M360.933105,218.368652 
	C360.983246,225.648209 360.983246,232.460342 360.983246,239.757507 
	C359.057587,239.844421 357.336182,239.922119 355.299377,240.014053 
	C355.299377,232.312515 355.299377,224.912735 355.299377,216.731384 
	C357.320465,217.154846 359.101685,217.528030 360.933105,218.368652 
z"/>
<path fill="#FFFFFF" opacity="1.000000" stroke="none" 
	d="
M71.955070,124.489731 
	C77.547768,127.229012 81.558327,133.415009 80.671875,137.712021 
	C79.065208,145.500183 74.867828,148.988800 67.068321,148.998276 
	C60.267342,149.006546 53.466347,149.000000 46.333839,149.000000 
	C46.333839,140.671692 46.333839,132.626160 46.333839,124.217453 
	C54.793152,124.217453 63.213646,124.217453 71.955070,124.489731 
z"/>
<path fill="#FFFFFF" opacity="1.000000" stroke="none" 
	d="
M46.084854,114.724075 
	C46.022354,110.984474 46.022354,107.715050 46.022354,104.003807 
	C54.230068,104.003807 62.003181,103.657455 69.703781,104.251358 
	C71.589928,104.396812 74.033897,107.329697 74.817078,109.490128 
	C76.104881,113.042580 73.106964,115.583794 70.210487,115.688446 
	C62.205845,115.977661 54.170540,115.418182 46.084854,114.724075 
z"/>
<path fill="#FFFFFF" opacity="1.000000" stroke="none" 
	d="
M423.473450,148.513489 
	C423.141388,133.702637 423.141388,119.232475 423.141388,103.603813 
	C433.198944,104.059120 443.311829,103.648331 453.121796,105.179024 
	C465.624878,107.129929 469.092773,121.298981 467.767639,129.928772 
	C467.154633,133.921021 465.164459,137.952621 462.915314,141.388077 
	C458.847412,147.601547 452.483215,149.336777 445.268463,149.051193 
	C438.122711,148.768356 430.960510,148.902802 423.473450,148.513489 
z"/>
<path fill="#FFFFFF" opacity="1.000000" stroke="none" 
	d="
M199.810181,213.000000 
	C195.064102,213.000000 190.790390,213.000000 186.264069,213.000000 
	C186.264069,204.547440 186.264069,196.522919 186.264069,187.043335 
	C193.942825,188.092972 201.569595,188.152405 208.493454,190.388428 
	C214.183762,192.226074 216.144836,198.582947 214.693497,203.743774 
	C213.221970,208.976410 208.025940,212.850220 202.272385,212.997635 
	C201.609528,213.014618 200.945831,212.999969 199.810181,213.000000 
z"/>
<path fill="#FFFFFF" opacity="1.000000" stroke="none" 
	d="
M386.736511,108.242447 
	C390.447876,112.281898 391.915619,116.429665 389.823425,121.461685 
	C387.429382,127.219597 382.390717,129.173477 376.978851,129.867584 
	C372.260651,130.472717 367.403412,129.993652 362.306824,129.993652 
	C362.306824,121.286041 362.306824,112.910614 362.306824,104.023422 
	C370.581299,104.684776 379.177551,101.766411 386.736511,108.242447 
z"/>
<path fill="#FFFFFF" opacity="1.000000" stroke="none" 
	d="
M46.000000,200.005585 
	C46.000000,195.883881 46.000000,192.257507 46.000000,187.576614 
	C53.170105,188.075729 60.099445,187.923431 66.751106,189.208481 
	C72.803711,190.377808 75.771927,196.353302 74.994461,203.017044 
	C74.473137,207.485245 68.605072,212.776047 63.549656,212.952377 
	C57.932072,213.148285 52.302387,212.997208 46.000000,212.997208 
	C46.000000,208.659836 46.000000,204.580399 46.000000,200.005585 
z"/>
<path fill="#FFFFFF" opacity="1.000000" stroke="none" 
	d="
M119.287125,123.315826 
	C121.337425,119.393883 123.175957,115.786476 125.339111,111.542107 
	C128.934387,119.617577 132.210510,126.976181 135.645462,134.691528 
	C128.397476,134.691528 121.404198,134.691528 113.852829,134.691528 
	C115.650459,130.884186 117.362907,127.257278 119.287125,123.315826 
z"/>
<path fill="#FFFFFF" opacity="1.000000" stroke="none" 
	d="
M301.000183,133.025513 
	C304.532196,125.846924 307.992889,119.047256 311.785309,111.595772 
	C315.327118,119.508354 318.623413,126.872475 322.229279,134.928223 
	C314.872589,134.928223 307.995026,134.932602 301.118134,134.865143 
	C301.050262,134.864487 300.991760,133.912369 301.000183,133.025513 
z"/>
<path fill="#FFFFFF" opacity="1.000000" stroke="none" 
	d="
M251.839340,198.972519 
	C250.739716,194.821701 250.086319,190.680603 249.432922,186.539490 
	C249.982635,186.127258 250.532349,185.715042 251.082077,185.302811 
	C252.708038,186.341797 255.299133,187.051743 255.785797,188.479156 
	C257.502838,193.515411 255.859070,197.547440 251.839340,198.972519 
z"/>
<path fill="#FFFFFF" opacity="1.000000" stroke="none" 
	d="
M276.864746,186.063934 
	C277.754089,189.987427 278.209198,193.866669 278.664276,197.745926 
	C277.060669,197.922287 275.457062,198.098648 273.853455,198.275009 
	C274.067413,194.265259 274.264008,190.254150 274.575745,186.252014 
	C274.585480,186.127182 275.785400,186.095032 276.864746,186.063934 
z"/>
<path fill="#FFFFFF" opacity="1.000000" stroke="none" 
	d="
M372.344086,186.349686 
	C375.545959,185.654251 377.183258,186.547287 377.018707,189.743515 
	C376.899963,192.050018 377.279694,194.431702 376.811066,196.647446 
	C376.610046,197.597885 374.867554,198.707031 373.737213,198.814270 
	C372.914398,198.892319 371.176025,197.444992 371.177032,196.679489 
	C371.181458,193.316589 371.669952,189.954330 372.344086,186.349686 
z"/>
<path fill="#FFFFFF" opacity="1.000000" stroke="none" 
	d="
M294.969238,222.015625 
	C298.646637,221.818802 299.355408,223.611832 298.762756,226.687073 
	C297.102966,226.687073 295.384460,226.687073 292.527679,226.687073 
	C293.278168,224.944565 293.906738,223.485153 294.969238,222.015625 
z"/>
</svg>